<?xml version="1.0" encoding="UTF-8" standalone="no"?>
<!-- Created with Inkscape (http://www.inkscape.org/) -->

<svg
   xmlns:dc="http://purl.org/dc/elements/1.1/"
   xmlns:cc="http://creativecommons.org/ns#"
   xmlns:rdf="http://www.w3.org/1999/02/22-rdf-syntax-ns#"
   xmlns:svg="http://www.w3.org/2000/svg"
   xmlns="http://www.w3.org/2000/svg"
   xmlns:sodipodi="http://sodipodi.sourceforge.net/DTD/sodipodi-0.dtd"
   xmlns:inkscape="http://www.inkscape.org/namespaces/inkscape"
   id="svg17598"
   version="1.1"
   inkscape:version="0.91 r13725"
   xml:space="preserve"
   width="420"
   height="295"
   viewBox="0 0 420 295"
   sodipodi:docname="homocl_fit.svg"><metadata
     id="metadata17604"><rdf:RDF><cc:Work
         rdf:about=""><dc:format>image/svg+xml</dc:format><dc:type
           rdf:resource="http://purl.org/dc/dcmitype/StillImage" /><dc:title></dc:title></cc:Work></rdf:RDF></metadata><defs
     id="defs17602" /><sodipodi:namedview
     pagecolor="#ffffff"
     bordercolor="#666666"
     borderopacity="1"
     objecttolerance="10"
     gridtolerance="10"
     guidetolerance="10"
     inkscape:pageopacity="0"
     inkscape:pageshadow="2"
     inkscape:window-width="1744"
     inkscape:window-height="921"
     id="namedview17600"
     showgrid="false"
     inkscape:zoom="0.90495606"
     inkscape:cx="580.04587"
     inkscape:cy="6325.169"
     inkscape:window-x="197"
     inkscape:window-y="92"
     inkscape:window-maximized="0"
     inkscape:current-layer="g17606" /><g
     id="g17606"
     inkscape:groupmode="layer"
     inkscape:label="ink_ext_XXXXXX"
     transform="matrix(1.25,0,0,-1.25,0,295)"><g
       id="g39123"
       transform="translate(277.58254,5123.7847)"><path
         inkscape:export-ydpi="300"
         inkscape:export-xdpi="300"
         d="m 47.6051,33.0012 286.9499,0"
         style="fill:none;stroke:#000000;stroke-width:0.125;stroke-linecap:butt;stroke-linejoin:miter;stroke-miterlimit:3.79999995;stroke-dasharray:0.5, 1;stroke-dashoffset:0;stroke-opacity:1"
         id="path17610"
         inkscape:connector-curvature="0" /><path
         inkscape:export-ydpi="300"
         inkscape:export-xdpi="300"
         d="m 47.6051,33.0012 3.1488,0 m 283.8011,0 -3.153,0"
         style="fill:none;stroke:#000000;stroke-width:0.5;stroke-linecap:butt;stroke-linejoin:miter;stroke-miterlimit:3.79999995;stroke-dasharray:none;stroke-opacity:1"
         id="path17612"
         inkscape:connector-curvature="0" /><g
         inkscape:export-ydpi="300"
         inkscape:export-xdpi="300"
         id="g17614"><text
           transform="matrix(1,0,0,-1,18.8156,29.6641)"
           style="font-variant:normal;font-weight:normal;font-size:10px;font-family:'DejaVu Sans';-inkscape-font-specification:DejaVuSans;writing-mode:lr-tb;fill:#000000;fill-opacity:1;fill-rule:nonzero;stroke:none"
           id="text17616"><tspan
             x="0 3.330117 8.8899221 11.669727 17.229532"
             y="0"
             sodipodi:role="line"
             id="tspan17618">-0.05</tspan></text>
</g><path
         inkscape:export-ydpi="300"
         inkscape:export-xdpi="300"
         d="m 47.6051,61.298 286.9499,0"
         style="fill:none;stroke:#000000;stroke-width:0.125;stroke-linecap:butt;stroke-linejoin:miter;stroke-miterlimit:3.79999995;stroke-dasharray:0.5, 1;stroke-dashoffset:0;stroke-opacity:1"
         id="path17620"
         inkscape:connector-curvature="0" /><path
         inkscape:export-ydpi="300"
         inkscape:export-xdpi="300"
         d="m 47.6051,61.298 3.1488,0 m 283.8011,0 -3.153,0"
         style="fill:none;stroke:#000000;stroke-width:0.5;stroke-linecap:butt;stroke-linejoin:miter;stroke-miterlimit:3.79999995;stroke-dasharray:none;stroke-opacity:1"
         id="path17622"
         inkscape:connector-curvature="0" /><g
         inkscape:export-ydpi="300"
         inkscape:export-xdpi="300"
         id="g17624"><text
           transform="matrix(1,0,0,-1,36.0449,57.9641)"
           style="font-variant:normal;font-weight:normal;font-size:10px;font-family:'DejaVu Sans';-inkscape-font-specification:DejaVuSans;writing-mode:lr-tb;fill:#000000;fill-opacity:1;fill-rule:nonzero;stroke:none"
           id="text17626"><tspan
             x="0"
             y="0"
             id="tspan17628">0</tspan></text>
</g><path
         inkscape:export-ydpi="300"
         inkscape:export-xdpi="300"
         d="m 47.6051,89.548 286.9499,0"
         style="fill:none;stroke:#000000;stroke-width:0.125;stroke-linecap:butt;stroke-linejoin:miter;stroke-miterlimit:3.79999995;stroke-dasharray:0.5, 1;stroke-dashoffset:0;stroke-opacity:1"
         id="path17630"
         inkscape:connector-curvature="0" /><path
         inkscape:export-ydpi="300"
         inkscape:export-xdpi="300"
         d="m 47.6051,89.548 3.1488,0 m 283.8011,0 -3.153,0"
         style="fill:none;stroke:#000000;stroke-width:0.5;stroke-linecap:butt;stroke-linejoin:miter;stroke-miterlimit:3.79999995;stroke-dasharray:none;stroke-opacity:1"
         id="path17632"
         inkscape:connector-curvature="0" /><g
         inkscape:export-ydpi="300"
         inkscape:export-xdpi="300"
         id="g17634"><text
           transform="matrix(1,0,0,-1,22.1457,86.2141)"
           style="font-variant:normal;font-weight:normal;font-size:10px;font-family:'DejaVu Sans';-inkscape-font-specification:DejaVuSans;writing-mode:lr-tb;fill:#000000;fill-opacity:1;fill-rule:nonzero;stroke:none"
           id="text17636"><tspan
             x="0 5.5598049 8.3396101 13.899415"
             y="0"
             sodipodi:role="line"
             id="tspan17638">0.05</tspan></text>
</g><path
         inkscape:export-ydpi="300"
         inkscape:export-xdpi="300"
         d="m 47.6051,117.848 286.9499,0"
         style="fill:none;stroke:#000000;stroke-width:0.125;stroke-linecap:butt;stroke-linejoin:miter;stroke-miterlimit:3.79999995;stroke-dasharray:0.5, 1;stroke-dashoffset:0;stroke-opacity:1"
         id="path17640"
         inkscape:connector-curvature="0" /><path
         inkscape:export-ydpi="300"
         inkscape:export-xdpi="300"
         d="m 47.6051,117.848 3.1488,0 m 283.8011,0 -3.153,0"
         style="fill:none;stroke:#000000;stroke-width:0.5;stroke-linecap:butt;stroke-linejoin:miter;stroke-miterlimit:3.79999995;stroke-dasharray:none;stroke-opacity:1"
         id="path17642"
         inkscape:connector-curvature="0" /><g
         inkscape:export-ydpi="300"
         inkscape:export-xdpi="300"
         id="g17644"><text
           transform="matrix(1,0,0,-1,27.7055,114.514)"
           style="font-variant:normal;font-weight:normal;font-size:10px;font-family:'DejaVu Sans';-inkscape-font-specification:DejaVuSans;writing-mode:lr-tb;fill:#000000;fill-opacity:1;fill-rule:nonzero;stroke:none"
           id="text17646"><tspan
             x="0 5.5598049 8.3396101"
             y="0"
             sodipodi:role="line"
             id="tspan17648">0.1</tspan></text>
</g><path
         inkscape:export-ydpi="300"
         inkscape:export-xdpi="300"
         d="m 47.6051,146.098 286.9499,0"
         style="fill:none;stroke:#000000;stroke-width:0.125;stroke-linecap:butt;stroke-linejoin:miter;stroke-miterlimit:3.79999995;stroke-dasharray:0.5, 1;stroke-dashoffset:0;stroke-opacity:1"
         id="path17650"
         inkscape:connector-curvature="0" /><path
         inkscape:export-ydpi="300"
         inkscape:export-xdpi="300"
         d="m 47.6051,146.098 3.1488,0 m 283.8011,0 -3.153,0"
         style="fill:none;stroke:#000000;stroke-width:0.5;stroke-linecap:butt;stroke-linejoin:miter;stroke-miterlimit:3.79999995;stroke-dasharray:none;stroke-opacity:1"
         id="path17652"
         inkscape:connector-curvature="0" /><g
         inkscape:export-ydpi="300"
         inkscape:export-xdpi="300"
         id="g17654"><text
           transform="matrix(1,0,0,-1,22.1457,142.764)"
           style="font-variant:normal;font-weight:normal;font-size:10px;font-family:'DejaVu Sans';-inkscape-font-specification:DejaVuSans;writing-mode:lr-tb;fill:#000000;fill-opacity:1;fill-rule:nonzero;stroke:none"
           id="text17656"><tspan
             x="0 5.5598049 8.3396101 13.899415"
             y="0"
             sodipodi:role="line"
             id="tspan17658">0.15</tspan></text>
</g><path
         inkscape:export-ydpi="300"
         inkscape:export-xdpi="300"
         d="m 47.6051,174.399 286.9499,0"
         style="fill:none;stroke:#000000;stroke-width:0.125;stroke-linecap:butt;stroke-linejoin:miter;stroke-miterlimit:3.79999995;stroke-dasharray:0.5, 1;stroke-dashoffset:0;stroke-opacity:1"
         id="path17660"
         inkscape:connector-curvature="0" /><path
         inkscape:export-ydpi="300"
         inkscape:export-xdpi="300"
         d="m 47.6051,174.399 3.1488,0 m 283.8011,0 -3.153,0"
         style="fill:none;stroke:#000000;stroke-width:0.5;stroke-linecap:butt;stroke-linejoin:miter;stroke-miterlimit:3.79999995;stroke-dasharray:none;stroke-opacity:1"
         id="path17662"
         inkscape:connector-curvature="0" /><g
         inkscape:export-ydpi="300"
         inkscape:export-xdpi="300"
         id="g17664"><text
           transform="matrix(1,0,0,-1,27.7055,171.064)"
           style="font-variant:normal;font-weight:normal;font-size:10px;font-family:'DejaVu Sans';-inkscape-font-specification:DejaVuSans;writing-mode:lr-tb;fill:#000000;fill-opacity:1;fill-rule:nonzero;stroke:none"
           id="text17666"><tspan
             x="0 5.5598049 8.3396101"
             y="0"
             sodipodi:role="line"
             id="tspan17668">0.2</tspan></text>
</g><path
         inkscape:export-ydpi="300"
         inkscape:export-xdpi="300"
         d="m 47.6051,202.649 286.9499,0"
         style="fill:none;stroke:#000000;stroke-width:0.125;stroke-linecap:butt;stroke-linejoin:miter;stroke-miterlimit:3.79999995;stroke-dasharray:0.5, 1;stroke-dashoffset:0;stroke-opacity:1"
         id="path17670"
         inkscape:connector-curvature="0" /><path
         inkscape:export-ydpi="300"
         inkscape:export-xdpi="300"
         d="m 47.6051,202.649 3.1488,0 m 283.8011,0 -3.153,0"
         style="fill:none;stroke:#000000;stroke-width:0.5;stroke-linecap:butt;stroke-linejoin:miter;stroke-miterlimit:3.79999995;stroke-dasharray:none;stroke-opacity:1"
         id="path17672"
         inkscape:connector-curvature="0" /><g
         inkscape:export-ydpi="300"
         inkscape:export-xdpi="300"
         id="g17674"><text
           transform="matrix(1,0,0,-1,22.1457,199.314)"
           style="font-variant:normal;font-weight:normal;font-size:10px;font-family:'DejaVu Sans';-inkscape-font-specification:DejaVuSans;writing-mode:lr-tb;fill:#000000;fill-opacity:1;fill-rule:nonzero;stroke:none"
           id="text17676"><tspan
             x="0 5.5598049 8.3396101 13.899415"
             y="0"
             sodipodi:role="line"
             id="tspan17678">0.25</tspan></text>
</g><path
         inkscape:export-ydpi="300"
         inkscape:export-xdpi="300"
         d="m 47.6051,230.95 286.9499,0"
         style="fill:none;stroke:#000000;stroke-width:0.125;stroke-linecap:butt;stroke-linejoin:miter;stroke-miterlimit:3.79999995;stroke-dasharray:0.5, 1;stroke-dashoffset:0;stroke-opacity:1"
         id="path17680"
         inkscape:connector-curvature="0" /><path
         inkscape:export-ydpi="300"
         inkscape:export-xdpi="300"
         d="m 47.6051,230.95 3.1488,0 m 283.8011,0 -3.153,0"
         style="fill:none;stroke:#000000;stroke-width:0.5;stroke-linecap:butt;stroke-linejoin:miter;stroke-miterlimit:3.79999995;stroke-dasharray:none;stroke-opacity:1"
         id="path17682"
         inkscape:connector-curvature="0" /><g
         inkscape:export-ydpi="300"
         inkscape:export-xdpi="300"
         id="g17684"><text
           transform="matrix(1,0,0,-1,27.7055,227.614)"
           style="font-variant:normal;font-weight:normal;font-size:10px;font-family:'DejaVu Sans';-inkscape-font-specification:DejaVuSans;writing-mode:lr-tb;fill:#000000;fill-opacity:1;fill-rule:nonzero;stroke:none"
           id="text17686"><tspan
             x="0 5.5598049 8.3396101"
             y="0"
             sodipodi:role="line"
             id="tspan17688">0.3</tspan></text>
</g><path
         inkscape:export-ydpi="300"
         inkscape:export-xdpi="300"
         d="m 55.6051,33.0012 0,197.9488"
         style="fill:none;stroke:#000000;stroke-width:0.125;stroke-linecap:butt;stroke-linejoin:miter;stroke-miterlimit:3.79999995;stroke-dasharray:0.5, 1;stroke-dashoffset:0;stroke-opacity:1"
         id="path17690"
         inkscape:connector-curvature="0" /><path
         inkscape:export-ydpi="300"
         inkscape:export-xdpi="300"
         d="m 55.6051,33.0012 0,3.1476 m 0,194.8012 0,-3.152"
         style="fill:none;stroke:#000000;stroke-width:0.5;stroke-linecap:butt;stroke-linejoin:miter;stroke-miterlimit:3.79999995;stroke-dasharray:none;stroke-opacity:1"
         id="path17692"
         inkscape:connector-curvature="0" /><g
         inkscape:export-ydpi="300"
         inkscape:export-xdpi="300"
         id="g17694"><text
           transform="matrix(1,0,0,-1,44.2102,19.6641)"
           style="font-variant:normal;font-weight:normal;font-size:10px;font-family:'DejaVu Sans';-inkscape-font-specification:DejaVuSans;writing-mode:lr-tb;fill:#000000;fill-opacity:1;fill-rule:nonzero;stroke:none"
           id="text17696"><tspan
             x="0 3.330117 8.8899221 11.669727 17.229532"
             y="0"
             sodipodi:role="line"
             id="tspan17698">-0.95</tspan></text>
</g><path
         inkscape:export-ydpi="300"
         inkscape:export-xdpi="300"
         d="m 109.855,33.0012 0,197.9488"
         style="fill:none;stroke:#000000;stroke-width:0.125;stroke-linecap:butt;stroke-linejoin:miter;stroke-miterlimit:3.79999995;stroke-dasharray:0.5, 1;stroke-dashoffset:0;stroke-opacity:1"
         id="path17700"
         inkscape:connector-curvature="0" /><path
         inkscape:export-ydpi="300"
         inkscape:export-xdpi="300"
         d="m 109.855,33.0012 0,3.1476 m 0,194.8012 0,-3.152"
         style="fill:none;stroke:#000000;stroke-width:0.5;stroke-linecap:butt;stroke-linejoin:miter;stroke-miterlimit:3.79999995;stroke-dasharray:none;stroke-opacity:1"
         id="path17702"
         inkscape:connector-curvature="0" /><g
         inkscape:export-ydpi="300"
         inkscape:export-xdpi="300"
         id="g17704"><text
           transform="matrix(1,0,0,-1,101.241,19.6641)"
           style="font-variant:normal;font-weight:normal;font-size:10px;font-family:'DejaVu Sans';-inkscape-font-specification:DejaVuSans;writing-mode:lr-tb;fill:#000000;fill-opacity:1;fill-rule:nonzero;stroke:none"
           id="text17706"><tspan
             x="0 3.330117 8.8899221 11.669727"
             y="0"
             sodipodi:role="line"
             id="tspan17708">-0.9</tspan></text>
</g><path
         inkscape:export-ydpi="300"
         inkscape:export-xdpi="300"
         d="m 164.105,33.0012 0,197.9488"
         style="fill:none;stroke:#000000;stroke-width:0.125;stroke-linecap:butt;stroke-linejoin:miter;stroke-miterlimit:3.79999995;stroke-dasharray:0.5, 1;stroke-dashoffset:0;stroke-opacity:1"
         id="path17710"
         inkscape:connector-curvature="0" /><path
         inkscape:export-ydpi="300"
         inkscape:export-xdpi="300"
         d="m 164.105,33.0012 0,3.1476 m 0,194.8012 0,-3.152"
         style="fill:none;stroke:#000000;stroke-width:0.5;stroke-linecap:butt;stroke-linejoin:miter;stroke-miterlimit:3.79999995;stroke-dasharray:none;stroke-opacity:1"
         id="path17712"
         inkscape:connector-curvature="0" /><g
         inkscape:export-ydpi="300"
         inkscape:export-xdpi="300"
         id="g17714"><text
           transform="matrix(1,0,0,-1,152.711,19.6641)"
           style="font-variant:normal;font-weight:normal;font-size:10px;font-family:'DejaVu Sans';-inkscape-font-specification:DejaVuSans;writing-mode:lr-tb;fill:#000000;fill-opacity:1;fill-rule:nonzero;stroke:none"
           id="text17716"><tspan
             x="0 3.330117 8.8899221 11.669727 17.229532"
             y="0"
             sodipodi:role="line"
             id="tspan17718">-0.85</tspan></text>
</g><path
         inkscape:export-ydpi="300"
         inkscape:export-xdpi="300"
         d="m 218.355,33.0012 0,197.9488"
         style="fill:none;stroke:#000000;stroke-width:0.125;stroke-linecap:butt;stroke-linejoin:miter;stroke-miterlimit:3.79999995;stroke-dasharray:0.5, 1;stroke-dashoffset:0;stroke-opacity:1"
         id="path17720"
         inkscape:connector-curvature="0" /><path
         inkscape:export-ydpi="300"
         inkscape:export-xdpi="300"
         d="m 218.355,33.0012 0,3.1476 m 0,194.8012 0,-3.152"
         style="fill:none;stroke:#000000;stroke-width:0.5;stroke-linecap:butt;stroke-linejoin:miter;stroke-miterlimit:3.79999995;stroke-dasharray:none;stroke-opacity:1"
         id="path17722"
         inkscape:connector-curvature="0" /><g
         inkscape:export-ydpi="300"
         inkscape:export-xdpi="300"
         id="g17724"><text
           transform="matrix(1,0,0,-1,209.741,19.6641)"
           style="font-variant:normal;font-weight:normal;font-size:10px;font-family:'DejaVu Sans';-inkscape-font-specification:DejaVuSans;writing-mode:lr-tb;fill:#000000;fill-opacity:1;fill-rule:nonzero;stroke:none"
           id="text17726"><tspan
             x="0 3.330117 8.8899221 11.669727"
             y="0"
             sodipodi:role="line"
             id="tspan17728">-0.8</tspan></text>
</g><path
         inkscape:export-ydpi="300"
         inkscape:export-xdpi="300"
         d="m 272.605,33.0012 0,197.9488"
         style="fill:none;stroke:#000000;stroke-width:0.125;stroke-linecap:butt;stroke-linejoin:miter;stroke-miterlimit:3.79999995;stroke-dasharray:0.5, 1;stroke-dashoffset:0;stroke-opacity:1"
         id="path17730"
         inkscape:connector-curvature="0" /><path
         inkscape:export-ydpi="300"
         inkscape:export-xdpi="300"
         d="m 272.605,33.0012 0,3.1476 m 0,194.8012 0,-3.152"
         style="fill:none;stroke:#000000;stroke-width:0.5;stroke-linecap:butt;stroke-linejoin:miter;stroke-miterlimit:3.79999995;stroke-dasharray:none;stroke-opacity:1"
         id="path17732"
         inkscape:connector-curvature="0" /><g
         inkscape:export-ydpi="300"
         inkscape:export-xdpi="300"
         id="g17734"><text
           transform="matrix(1,0,0,-1,261.211,19.6641)"
           style="font-variant:normal;font-weight:normal;font-size:10px;font-family:'DejaVu Sans';-inkscape-font-specification:DejaVuSans;writing-mode:lr-tb;fill:#000000;fill-opacity:1;fill-rule:nonzero;stroke:none"
           id="text17736"><tspan
             x="0 3.330117 8.8899221 11.669727 17.229532"
             y="0"
             sodipodi:role="line"
             id="tspan17738">-0.75</tspan></text>
</g><path
         inkscape:export-ydpi="300"
         inkscape:export-xdpi="300"
         d="m 326.855,33.0012 0,197.9488"
         style="fill:none;stroke:#000000;stroke-width:0.125;stroke-linecap:butt;stroke-linejoin:miter;stroke-miterlimit:3.79999995;stroke-dasharray:0.5, 1;stroke-dashoffset:0;stroke-opacity:1"
         id="path17740"
         inkscape:connector-curvature="0" /><path
         inkscape:export-ydpi="300"
         inkscape:export-xdpi="300"
         d="m 326.855,33.0012 0,3.1476 m 0,194.8012 0,-3.152"
         style="fill:none;stroke:#000000;stroke-width:0.5;stroke-linecap:butt;stroke-linejoin:miter;stroke-miterlimit:3.79999995;stroke-dasharray:none;stroke-opacity:1"
         id="path17742"
         inkscape:connector-curvature="0" /><g
         inkscape:export-ydpi="300"
         inkscape:export-xdpi="300"
         id="g17744"><text
           transform="matrix(1,0,0,-1,318.241,19.6641)"
           style="font-variant:normal;font-weight:normal;font-size:10px;font-family:'DejaVu Sans';-inkscape-font-specification:DejaVuSans;writing-mode:lr-tb;fill:#000000;fill-opacity:1;fill-rule:nonzero;stroke:none"
           id="text17746"><tspan
             x="0 3.330117 8.8899221 11.669727"
             y="0"
             sodipodi:role="line"
             id="tspan17748">-0.7</tspan></text>
</g><path
         inkscape:export-ydpi="300"
         inkscape:export-xdpi="300"
         d="m 47.6051,33.0012 286.949,0 0,197.949 -286.949,0 0,-197.949 z"
         style="fill:none;stroke:#000000;stroke-width:0.5;stroke-linecap:butt;stroke-linejoin:miter;stroke-miterlimit:3.79999995;stroke-dasharray:none;stroke-opacity:1"
         id="path17750"
         inkscape:connector-curvature="0" /><g
         inkscape:export-ydpi="300"
         inkscape:export-xdpi="300"
         id="g17752"><text
           transform="matrix(1,0,0,-1,-0.229297,126.936)"
           style="font-variant:normal;font-weight:normal;font-size:10px;font-family:'DejaVu Sans';-inkscape-font-specification:DejaVuSans;writing-mode:lr-tb;fill:#000000;fill-opacity:1;fill-rule:nonzero;stroke:none"
           id="text17754"><tspan
             x="0"
             y="0"
             id="tspan17756">f</tspan></text>
<text
           transform="translate(185.9,5.6)"
           style="font-variant:normal;font-weight:normal;font-size:0.1px;font-family:Arial;-inkscape-font-specification:Arial;writing-mode:lr-tb;fill:#000000;fill-opacity:1;fill-rule:nonzero;stroke:none"
           id="text17758"><tspan
             x="0"
             y="0"
             id="tspan17760"></tspan></text>
<text
           transform="matrix(1,0,0,-1,192.114,2.66406)"
           style="font-variant:normal;font-weight:normal;font-size:8px;font-family:'DejaVu Sans';-inkscape-font-specification:DejaVuSans;writing-mode:lr-tb;fill:#000000;fill-opacity:1;fill-rule:nonzero;stroke:none"
           id="text17762"><tspan
             x="0"
             y="0"
             id="tspan17764">y</tspan></text>
</g><path
         inkscape:export-ydpi="300"
         inkscape:export-xdpi="300"
         d="m 334.059,175.505 0.78906,0 0,0.78906 -0.78906,0 0,-0.78906 z m -1.098,-0.149 0.78516,0 0,0.78516 -0.78516,0 0,-0.78516 z m -1.102,-0.203 0.78906,0 0,0.78906 -0.78906,0 0,-0.78906 z m -1.05,-0.25 0.78906,0 0,0.78906 -0.78906,0 0,-0.78906 z m -1.098,-0.098 0.78516,0 0,0.78477 -0.78516,0 0,-0.78477 z m -1.102,-0.101 0.78906,0 0,0.78906 -0.78906,0 0,-0.78906 z m -1.05,-0.149 0.78906,0 0,0.78477 -0.78906,0 0,-0.78477 z m -1.098,-0.101 0.78516,0 0,0.78906 -0.78516,0 0,-0.78906 z m -1.102,-0.25 0.78906,0 0,0.78906 -0.78906,0 0,-0.78906 z m -1.05,-0.098 0.78906,0 0,0.78516 -0.78906,0 0,-0.78516 z m -1.098,-0.101 0.78516,0 0,0.78906 -0.78516,0 0,-0.78906 z m -1.102,-0.25 0.78906,0 0,0.78906 -0.78906,0 0,-0.78906 z m -1.101,-0.2 0.78867,0 0,0.78477 -0.78867,0 0,-0.78477 z m -1.047,0 0.78516,0 0,0.78477 -0.78516,0 0,-0.78477 z m -1.102,-0.25 0.78906,0 0,0.78477 -0.78906,0 0,-0.78477 z m -1.101,-0.199 0.78867,0 0,0.78516 -0.78867,0 0,-0.78516 z m -1.047,-0.101 0.78516,0 0,0.78906 -0.78516,0 0,-0.78906 z m -1.102,-0.149 0.78906,0 0,0.78516 -0.78906,0 0,-0.78516 z m -1.101,-0.101 0.78867,0 0,0.78906 -0.78867,0 0,-0.78906 z m -1.047,-0.2 0.78516,0 0,0.78477 -0.78516,0 0,-0.78477 z m -1.102,-0.101 0.78906,0 0,0.78906 -0.78906,0 0,-0.78906 z m -1.101,-0.25 0.78867,0 0,0.78906 -0.78867,0 0,-0.78906 z m -1.098,-0.098 0.78477,0 0,0.78516 -0.78477,0 0,-0.78516 z m -1.051,-0.101 0.78906,0 0,0.78906 -0.78906,0 0,-0.78906 z m -1.101,-0.25 0.78867,0 0,0.78906 -0.78867,0 0,-0.78906 z m -1.098,-0.2 0.78477,0 0,0.78477 -0.78477,0 0,-0.78477 z m -1.051,-0.101 0.78906,0 0,0.78906 -0.78906,0 0,-0.78906 z m -1.101,-0.199 0.78867,0 0,0.78906 -0.78867,0 0,-0.78906 z m -1.098,-0.102 0.78477,0 0,0.78906 -0.78477,0 0,-0.78906 z m -1.101,-0.25 0.78906,0 0,0.78906 -0.78906,0 0,-0.78906 z m -1.051,-0.098 0.78867,0 0,0.78477 -0.78867,0 0,-0.78477 z m -1.098,-0.199 0.78477,0 0,0.78516 -0.78477,0 0,-0.78516 z m -1.101,-0.203 0.78906,0 0,0.78906 -0.78906,0 0,-0.78906 z m -1.051,-0.148 0.78867,0 0,0.78906 -0.78867,0 0,-0.78906 z m -1.098,-0.102 0.78477,0 0,0.78906 -0.78477,0 0,-0.78906 z m -1.101,-0.199 0.78906,0 0,0.78906 -0.78906,0 0,-0.78906 z m -1.051,-0.098 0.78867,0 0,0.78516 -0.78867,0 0,-0.78516 z m -1.098,-0.203 0.78477,0 0,0.78906 -0.78477,0 0,-0.78906 z m -1.101,-0.098 0.78906,0 0,0.78477 -0.78906,0 0,-0.78477 z m -1.098,-0.199 0.78516,0 0,0.78516 -0.78516,0 0,-0.78516 z m -1.051,-0.101 0.78477,0 0,0.78906 -0.78477,0 0,-0.78906 z m -1.101,-0.352 0.78906,0 0,0.78906 -0.78906,0 0,-0.78906 z m -1.098,-0.098 0.78516,0 0,0.78477 -0.78516,0 0,-0.78477 z m -1.051,-0.101 0.78477,0 0,0.78906 -0.78477,0 0,-0.78906 z m -1.101,-0.199 0.78906,0 0,0.78906 -0.78906,0 0,-0.78906 z m -1.098,-0.2 0.78516,0 0,0.78477 -0.78516,0 0,-0.78477 z m -1.051,-0.199 0.78477,0 0,0.78516 -0.78477,0 0,-0.78516 z m -1.101,-0.101 0.78906,0 0,0.78906 -0.78906,0 0,-0.78906 z m -1.098,-0.2 0.78516,0 0,0.78477 -0.78516,0 0,-0.78477 z m -1.102,-0.199 0.78906,0 0,0.78516 -0.78906,0 0,-0.78516 z m -1.05,-0.203 0.78906,0 0,0.78906 -0.78906,0 0,-0.78906 z m -1.098,-0.098 0.78516,0 0,0.78477 -0.78516,0 0,-0.78477 z m -1.102,-0.199 0.78906,0 0,0.78516 -0.78906,0 0,-0.78516 z m -1.05,-0.203 0.78906,0 0,0.78906 -0.78906,0 0,-0.78906 z m -1.098,-0.098 0.78516,0 0,0.78477 -0.78516,0 0,-0.78477 z m -1.102,-0.3 0.78906,0 0,0.78906 -0.78906,0 0,-0.78906 z m -1.05,-0.102 0.78906,0 0,0.78906 -0.78906,0 0,-0.78906 z m -1.098,-0.098 0.78516,0 0,0.78477 -0.78516,0 0,-0.78477 z m -1.102,-0.3 0.78906,0 0,0.78906 -0.78906,0 0,-0.78906 z m -1.101,-0.102 0.78867,0 0,0.78906 -0.78867,0 0,-0.78906 z m -1.047,-0.297 0.78516,0 0,0.78516 -0.78516,0 0,-0.78516 z m -1.102,-0.101 0.78906,0 0,0.78906 -0.78906,0 0,-0.78906 z m -1.101,-0.2 0.78867,0 0,0.78477 -0.78867,0 0,-0.78477 z m -1.047,-0.05 0.78516,0 0,0.78906 -0.78516,0 0,-0.78906 z m -1.102,-0.301 0.78906,0 0,0.78906 -0.78906,0 0,-0.78906 z m -1.101,-0.199 0.78867,0 0,0.78906 -0.78867,0 0,-0.78906 z m -1.047,-0.2 0.78516,0 0,0.78477 -0.78516,0 0,-0.78477 z m -1.102,-0.101 0.78906,0 0,0.78906 -0.78906,0 0,-0.78906 z m -1.101,-0.199 0.78867,0 0,0.78906 -0.78867,0 0,-0.78906 z m -1.098,-0.25 0.78477,0 0,0.78906 -0.78477,0 0,-0.78906 z m -1.051,-0.2 0.78906,0 0,0.78477 -0.78906,0 0,-0.78477 z m -1.101,-0.199 0.78867,0 0,0.78516 -0.78867,0 0,-0.78516 z m -1.098,-0.152 0.78477,0 0,0.78906 -0.78477,0 0,-0.78906 z m -1.051,-0.199 0.78906,0 0,0.78906 -0.78906,0 0,-0.78906 z m -1.101,-0.2 0.78867,0 0,0.78477 -0.78867,0 0,-0.78477 z m -1.098,-0.152 0.78477,0 0,0.78906 -0.78477,0 0,-0.78906 z m -1.051,-0.199 0.78906,0 0,0.78906 -0.78906,0 0,-0.78906 z m -1.101,-0.301 0.78867,0 0,0.78906 -0.78867,0 0,-0.78906 z m -1.098,-0.148 0.78477,0 0,0.78906 -0.78477,0 0,-0.78906 z m -1.101,-0.2 0.78906,0 0,0.78477 -0.78906,0 0,-0.78477 z m -1.051,-0.199 0.78867,0 0,0.78516 -0.78867,0 0,-0.78516 z m -1.098,-0.152 0.78477,0 0,0.78906 -0.78477,0 0,-0.78906 z m -1.101,-0.199 0.78906,0 0,0.78906 -0.78906,0 0,-0.78906 z m -1.051,-0.149 0.78867,0 0,0.78516 -0.78867,0 0,-0.78516 z m -1.098,-0.301 0.78477,0 0,0.78477 -0.78477,0 0,-0.78477 z m -1.101,-0.152 0.78906,0 0,0.78906 -0.78906,0 0,-0.78906 z m -1.051,-0.199 0.78867,0 0,0.78906 -0.78867,0 0,-0.78906 z m -1.098,-0.149 0.78477,0 0,0.78477 -0.78477,0 0,-0.78477 z m -1.101,-0.25 0.78906,0 0,0.78477 -0.78906,0 0,-0.78477 z m -1.098,-0.199 0.78516,0 0,0.78516 -0.78516,0 0,-0.78516 z m -1.051,-0.152 0.78477,0 0,0.78906 -0.78477,0 0,-0.78906 z m -1.101,-0.301 0.78906,0 0,0.78906 -0.78906,0 0,-0.78906 z m -1.098,-0.25 0.78516,0 0,0.78906 -0.78516,0 0,-0.78906 z m -1.051,-0.148 0.78477,0 0,0.78906 -0.78477,0 0,-0.78906 z m -1.101,-0.2 0.78906,0 0,0.78477 -0.78906,0 0,-0.78477 z m -1.098,-0.152 0.78516,0 0,0.78906 -0.78516,0 0,-0.78906 z m -1.102,-0.348 0.78906,0 0,0.78477 -0.78906,0 0,-0.78477 z m -1.05,-0.05 0.78906,0 0,0.78906 -0.78906,0 0,-0.78906 z m -1.098,-0.301 0.78516,0 0,0.78906 -0.78516,0 0,-0.78906 z m -1.102,-0.25 0.78906,0 0,0.78906 -0.78906,0 0,-0.78906 z m -1.05,-0.149 0.78906,0 0,0.78477 -0.78906,0 0,-0.78477 z m -1.098,-0.351 0.78516,0 0,0.78906 -0.78516,0 0,-0.78906 z m -1.102,-0.149 0.78906,0 0,0.78477 -0.78906,0 0,-0.78477 z m -1.05,-0.25 0.78906,0 0,0.78477 -0.78906,0 0,-0.78477 z m -1.098,-0.25 0.78516,0 0,0.78477 -0.78516,0 0,-0.78477 z m -1.102,-0.199 0.78906,0 0,0.78516 -0.78906,0 0,-0.78516 z m -1.101,-0.203 0.78867,0 0,0.78906 -0.78867,0 0,-0.78906 z m -1.047,-0.25 0.78516,0 0,0.78906 -0.78516,0 0,-0.78906 z m -1.102,-0.199 0.78906,0 0,0.78906 -0.78906,0 0,-0.78906 z m -1.101,-0.25 0.78867,0 0,0.78906 -0.78867,0 0,-0.78906 z m -1.047,-0.25 0.78516,0 0,0.78906 -0.78516,0 0,-0.78906 z m -1.102,-0.25 0.78906,0 0,0.78906 -0.78906,0 0,-0.78906 z m -1.101,-0.149 0.78867,0 0,0.78477 -0.78867,0 0,-0.78477 z m -1.047,-0.3 0.78516,0 0,0.78906 -0.78516,0 0,-0.78906 z m -1.102,-0.25 0.78906,0 0,0.78906 -0.78906,0 0,-0.78906 z m -1.101,-0.2 0.78867,0 0,0.78477 -0.78867,0 0,-0.78477 z m -1.098,-0.3 0.78477,0 0,0.78906 -0.78477,0 0,-0.78906 z m -1.051,-0.25 0.78906,0 0,0.78906 -0.78906,0 0,-0.78906 z m -1.101,-0.149 0.78867,0 0,0.78516 -0.78867,0 0,-0.78516 z m -1.098,-0.402 0.78477,0 0,0.78906 -0.78477,0 0,-0.78906 z m -1.051,-0.149 0.78906,0 0,0.78477 -0.78906,0 0,-0.78477 z m -1.101,-0.3 0.78906,0 0,0.78906 -0.78906,0 0,-0.78906 z m -1.098,-0.2 0.78477,0 0,0.78477 -0.78477,0 0,-0.78477 z m -1.051,-0.25 0.78906,0 0,0.78477 -0.78906,0 0,-0.78477 z m -1.101,-0.25 0.78906,0 0,0.78477 -0.78906,0 0,-0.78477 z m -1.098,-0.3 0.78477,0 0,0.78906 -0.78477,0 0,-0.78906 z m -1.101,-0.25 0.78906,0 0,0.78906 -0.78906,0 0,-0.78906 z m -1.051,-0.25 0.78906,0 0,0.78906 -0.78906,0 0,-0.78906 z m -1.098,-0.301 0.78477,0 0,0.78906 -0.78477,0 0,-0.78906 z m -1.101,-0.301 0.78906,0 0,0.78906 -0.78906,0 0,-0.78906 z m -1.051,-0.199 0.78906,0 0,0.78906 -0.78906,0 0,-0.78906 z m -1.098,-0.348 0.78477,0 0,0.78516 -0.78477,0 0,-0.78516 z m -1.101,-0.301 0.78906,0 0,0.78477 -0.78906,0 0,-0.78477 z m -1.051,-0.25 0.78906,0 0,0.78477 -0.78906,0 0,-0.78477 z m -1.098,-0.3 0.78477,0 0,0.78906 -0.78477,0 0,-0.78906 z m -1.101,-0.301 0.78906,0 0,0.78906 -0.78906,0 0,-0.78906 z m -1.098,-0.25 0.78516,0 0,0.78906 -0.78516,0 0,-0.78906 z m -1.051,-0.25 0.78477,0 0,0.78906 -0.78477,0 0,-0.78906 z m -1.101,-0.301 0.78906,0 0,0.78906 -0.78906,0 0,-0.78906 z m -1.098,-0.348 0.78516,0 0,0.78477 -0.78516,0 0,-0.78477 z m -1.051,-0.3 0.78477,0 0,0.78906 -0.78477,0 0,-0.78906 z m -1.101,-0.25 0.78906,0 0,0.78906 -0.78906,0 0,-0.78906 z m -1.098,-0.352 0.78516,0 0,0.78906 -0.78516,0 0,-0.78906 z m -1.051,-0.25 0.78477,0 0,0.78906 -0.78477,0 0,-0.78906 z m -1.101,-0.348 0.78906,0 0,0.78477 -0.78906,0 0,-0.78477 z m -1.098,-0.3 0.78516,0 0,0.78906 -0.78516,0 0,-0.78906 z m -1.102,-0.399 0.78906,0 0,0.78516 -0.78906,0 0,-0.78516 z m -1.05,-0.301 0.78906,0 0,0.78477 -0.78906,0 0,-0.78477 z m -1.098,-0.3 0.78516,0 0,0.78906 -0.78516,0 0,-0.78906 z m -1.102,-0.352 0.78906,0 0,0.78906 -0.78906,0 0,-0.78906 z m -1.05,-0.297 0.78906,0 0,0.78516 -0.78906,0 0,-0.78516 z m -1.098,-0.301 0.78516,0 0,0.78477 -0.78516,0 0,-0.78477 z m -1.102,-0.351 0.78906,0 0,0.78906 -0.78906,0 0,-0.78906 z m -1.05,-0.399 0.78906,0 0,0.78477 -0.78906,0 0,-0.78477 z m -1.098,-0.351 0.78516,0 0,0.78906 -0.78516,0 0,-0.78906 z m -1.102,-0.348 0.78906,0 0,0.78516 -0.78906,0 0,-0.78516 z m -1.101,-0.402 0.78906,0 0,0.78906 -0.78906,0 0,-0.78906 z m -1.047,-0.301 0.78516,0 0,0.78906 -0.78516,0 0,-0.78906 z m -1.102,-0.449 0.78906,0 0,0.78906 -0.78906,0 0,-0.78906 z m -1.101,-0.348 0.78906,0 0,0.78516 -0.78906,0 0,-0.78516 z m -1.047,-0.402 0.78516,0 0,0.78906 -0.78516,0 0,-0.78906 z m -1.102,-0.399 0.78906,0 0,0.78477 -0.78906,0 0,-0.78477 z m -1.101,-0.402 0.78906,0 0,0.78906 -0.78906,0 0,-0.78906 z m -1.098,-0.348 0.78477,0 0,0.78477 -0.78477,0 0,-0.78477 z m -1.051,-0.449 0.78906,0 0,0.78516 -0.78906,0 0,-0.78516 z m -1.101,-0.453 0.78906,0 0,0.78906 -0.78906,0 0,-0.78906 z m -1.098,-0.449 0.78477,0 0,0.78906 -0.78477,0 0,-0.78906 z m -1.051,-0.449 0.78906,0 0,0.78906 -0.78906,0 0,-0.78906 z m -1.101,-0.399 0.78906,0 0,0.78516 -0.78906,0 0,-0.78516 z m -1.098,-0.453 0.78477,0 0,0.78906 -0.78477,0 0,-0.78906 z m -1.051,-0.449 0.78906,0 0,0.78906 -0.78906,0 0,-0.78906 z m -1.101,-0.449 0.78906,0 0,0.78906 -0.78906,0 0,-0.78906 z m -1.098,-0.551 0.78477,0 0,0.78906 -0.78477,0 0,-0.78906 z m -1.101,-0.5 0.78906,0 0,0.78906 -0.78906,0 0,-0.78906 z m -1.051,-0.5 0.78906,0 0,0.78906 -0.78906,0 0,-0.78906 z m -1.098,-0.5 0.78477,0 0,0.78906 -0.78477,0 0,-0.78906 z m -1.101,-0.551 0.78906,0 0,0.78906 -0.78906,0 0,-0.78906 z m -1.051,-0.547 0.78906,0 0,0.78516 -0.78906,0 0,-0.78516 z m -1.098,-0.551 0.78477,0 0,0.78477 -0.78477,0 0,-0.78477 z m -1.101,-0.652 0.78906,0 0,0.78906 -0.78906,0 0,-0.78906 z m -1.051,-0.547 0.78906,0 0,0.78516 -0.78906,0 0,-0.78516 z m -1.098,-0.703 0.78477,0 0,0.78906 -0.78477,0 0,-0.78906 z m -1.101,-0.598 0.78906,0 0,0.78477 -0.78906,0 0,-0.78477 z m -1.098,-0.699 0.78516,0 0,0.78516 -0.78516,0 0,-0.78516 z m -1.051,-0.703 0.78477,0 0,0.78906 -0.78477,0 0,-0.78906 z m -1.101,-0.75 0.78906,0 0,0.78906 -0.78906,0 0,-0.78906 z m -1.098,-0.797 0.78516,0 0,0.78516 -0.78516,0 0,-0.78516 z m -1.051,1.199 0.78477,0 0,0.78477 -0.78477,0 0,-0.78477 z m -14,-67.148 0.78477,0 0,0.785156 -0.78477,0 0,-0.785156 z m 0.149,41.148 0.78906,0 0,0.78477 -0.78906,0 0,-0.78477 z m 0.152,1.149 0.78516,0 0,0.78906 -0.78516,0 0,-0.78906 z m 0.098,0.949 0.78906,0 0,0.78906 -0.78906,0 0,-0.78906 z m 0.152,0.852 0.78516,0 0,0.78906 -0.78516,0 0,-0.78906 z m 0.148,0.75 0.78906,0 0,0.78906 -0.78906,0 0,-0.78906 z m 0.149,0.648 0.78867,0 0,0.78906 -0.78867,0 0,-0.78906 z m 0.101,0.652 0.78906,0 0,0.78477 -0.78906,0 0,-0.78477 z m 0.149,0.551 0.78867,0 0,0.78516 -0.78867,0 0,-0.78516 z m 0.152,0.547 0.78477,0 0,0.78906 -0.78477,0 0,-0.78906 z m 0.098,0.5 0.78867,0 0,0.78906 -0.78867,0 0,-0.78906 z m 0.152,0.453 0.78477,0 0,0.78516 -0.78477,0 0,-0.78516 z m 0.149,0.449 0.78906,0 0,0.78477 -0.78906,0 0,-0.78477 z m 0.152,0.399 0.78516,0 0,0.78906 -0.78516,0 0,-0.78906 z m 0.098,0.402 0.78906,0 0,0.78516 -0.78906,0 0,-0.78516 z m 0.152,0.399 0.78516,0 0,0.78906 -0.78516,0 0,-0.78906 z m 0.148,0.398 0.78906,0 0,0.78906 -0.78906,0 0,-0.78906 z m 0.102,0.352 0.78516,0 0,0.78906 -0.78516,0 0,-0.78906 z m 0.148,0.351 0.78906,0 0,0.78516 -0.78906,0 0,-0.78516 z m 0.149,0.297 0.78867,0 0,0.78906 -0.78867,0 0,-0.78906 z m 0.101,0.301 0.78906,0 0,0.78906 -0.78906,0 0,-0.78906 z m 0.149,0.301 0.78867,0 0,0.78906 -0.78867,0 0,-0.78906 z m 0.152,0.351 0.78477,0 0,0.78516 -0.78477,0 0,-0.78516 z m 0.149,0.25 0.78906,0 0,0.78516 -0.78906,0 0,-0.78516 z m 0.101,0.297 0.78477,0 0,0.78906 -0.78477,0 0,-0.78906 z m 0.149,0.301 0.78906,0 0,0.78906 -0.78906,0 0,-0.78906 z m 0.152,0.25 0.78516,0 0,0.78906 -0.78516,0 0,-0.78906 z m 0.098,0.25 0.78906,0 0,0.78906 -0.78906,0 0,-0.78906 z m 0.152,0.25 0.78516,0 0,0.78906 -0.78516,0 0,-0.78906 z m 0.148,0.25 0.78906,0 0,0.78906 -0.78906,0 0,-0.78906 z m 0.149,0.25 0.78867,0 0,0.78906 -0.78867,0 0,-0.78906 z m 0.101,0.25 0.78906,0 0,0.78906 -0.78906,0 0,-0.78906 z m 0.149,0.25 0.78867,0 0,0.78906 -0.78867,0 0,-0.78906 z m 0.152,0.199 0.78477,0 0,0.78906 -0.78477,0 0,-0.78906 z m 0.098,0.203 0.78867,0 0,0.78516 -0.78867,0 0,-0.78516 z m 0.152,0.25 0.78477,0 0,0.78516 -0.78477,0 0,-0.78516 z m 0.149,0.199 0.78906,0 0,0.78477 -0.78906,0 0,-0.78477 z m 0.152,0.2 0.78516,0 0,0.78906 -0.78516,0 0,-0.78906 z m 0.098,0.199 0.78906,0 0,0.78906 -0.78906,0 0,-0.78906 z m 0.152,0.25 0.78516,0 0,0.78906 -0.78516,0 0,-0.78906 z m 0.148,0.152 0.78906,0 0,0.78516 -0.78906,0 0,-0.78516 z m 0.102,0.199 0.78516,0 0,0.78477 -0.78516,0 0,-0.78477 z m 0.148,0.2 0.78906,0 0,0.78906 -0.78906,0 0,-0.78906 z m 0.149,0.199 0.78867,0 0,0.78906 -0.78867,0 0,-0.78906 z m 0.152,0.152 0.78477,0 0,0.78516 -0.78477,0 0,-0.78516 z m 0.098,0.199 0.78867,0 0,0.78477 -0.78867,0 0,-0.78477 z m 0.152,0.2 0.78477,0 0,0.78906 -0.78477,0 0,-0.78906 z m 0.149,0.148 0.78906,0 0,0.78906 -0.78906,0 0,-0.78906 z m 0.101,0.203 0.78477,0 0,0.78516 -0.78477,0 0,-0.78516 z m 0.149,0.199 0.78906,0 0,0.78477 -0.78906,0 0,-0.78477 z m 0.152,0.149 0.78516,0 0,0.78906 -0.78516,0 0,-0.78906 z m 0.148,0.152 0.78906,0 0,0.78516 -0.78906,0 0,-0.78516 z m 0.102,0.149 0.78516,0 0,0.78906 -0.78516,0 0,-0.78906 z m 0.148,0.148 0.78906,0 0,0.78906 -0.78906,0 0,-0.78906 z m 0.149,0.203 0.78867,0 0,0.78516 -0.78867,0 0,-0.78516 z m 0.101,0.149 0.78906,0 0,0.78906 -0.78906,0 0,-0.78906 z m 0.149,0.199 0.78867,0 0,0.78906 -0.78867,0 0,-0.78906 z m 0.152,0.101 0.78477,0 0,0.78477 -0.78477,0 0,-0.78477 z m 0.149,0.2 0.78906,0 0,0.78906 -0.78906,0 0,-0.78906 z m 0.101,0.148 0.78477,0 0,0.78906 -0.78477,0 0,-0.78906 z m 0.149,0.152 0.78906,0 0,0.78477 -0.78906,0 0,-0.78477 z m 0.152,0.149 0.78516,0 0,0.78906 -0.78516,0 0,-0.78906 z m 0.098,0.152 0.78906,0 0,0.78516 -0.78906,0 0,-0.78516 z m 0.152,0.149 0.78516,0 0,0.78906 -0.78516,0 0,-0.78906 z m 0.148,0.101 0.78906,0 0,0.78516 -0.78906,0 0,-0.78516 z m 0.149,0.199 0.78867,0 0,0.78477 -0.78867,0 0,-0.78477 z m 0.101,0.098 0.78906,0 0,0.78906 -0.78906,0 0,-0.78906 z m 0.149,0.152 0.78867,0 0,0.78477 -0.78867,0 0,-0.78477 z m 0.152,0.149 0.78477,0 0,0.78906 -0.78477,0 0,-0.78906 z m 0.098,0.101 0.78867,0 0,0.78477 -0.78867,0 0,-0.78477 z m 0.152,0.149 0.78477,0 0,0.78906 -0.78477,0 0,-0.78906 z m 0.149,0.152 0.78906,0 0,0.78516 -0.78906,0 0,-0.78516 z m 0.152,0.149 0.78516,0 0,0.78906 -0.78516,0 0,-0.78906 z m 0.098,0.101 0.78906,0 0,0.78516 -0.78906,0 0,-0.78516 z m 0.152,0.098 0.78516,0 0,0.78906 -0.78516,0 0,-0.78906 z m 0.148,0.152 0.78906,0 0,0.78516 -0.78906,0 0,-0.78516 z m 0.102,0.098 0.78516,0 0,0.78906 -0.78516,0 0,-0.78906 z m 0.148,0.152 0.78906,0 0,0.78516 -0.78906,0 0,-0.78516 z m 0.149,0.149 0.78867,0 0,0.78906 -0.78867,0 0,-0.78906 z m 0.152,0.101 0.78477,0 0,0.78516 -0.78477,0 0,-0.78516 z m 0.098,0.149 0.78906,0 0,0.78906 -0.78906,0 0,-0.78906 z m 0.152,0.101 0.78477,0 0,0.78516 -0.78477,0 0,-0.78516 z m 0.149,0.098 0.78906,0 0,0.78906 -0.78906,0 0,-0.78906 z m 0.101,0.152 0.78477,0 0,0.78516 -0.78477,0 0,-0.78516 z m 0.149,0.098 0.78906,0 0,0.78906 -0.78906,0 0,-0.78906 z m 0.152,0.101 0.78516,0 0,0.78477 -0.78516,0 0,-0.78477 z m 0.148,0.149 0.78906,0 0,0.78906 -0.78906,0 0,-0.78906 z m 0.102,0.101 0.78516,0 0,0.78477 -0.78516,0 0,-0.78477 z m 0.148,0.149 0.78906,0 0,0.78906 -0.78906,0 0,-0.78906 z m 0.149,0.101 0.78906,0 0,0.78477 -0.78906,0 0,-0.78477 z m 0.101,0.149 0.78906,0 0,0.78906 -0.78906,0 0,-0.78906 z m 0.149,0.101 0.78906,0 0,0.78477 -0.78906,0 0,-0.78477 z m 0.152,0.098 0.78477,0 0,0.78906 -0.78477,0 0,-0.78906 z m 0.149,0.102 0.78906,0 0,0.78906 -0.78906,0 0,-0.78906 z m 0.101,0.101 0.78477,0 0,0.78516 -0.78477,0 0,-0.78516 z m 0.149,0.098 0.78906,0 0,0.78906 -0.78906,0 0,-0.78906 z m 0.152,0.152 0.78516,0 0,0.78516 -0.78516,0 0,-0.78516 z m 0.098,0.098 0.78906,0 0,0.78906 -0.78906,0 0,-0.78906 z m 0.152,0.101 0.78516,0 0,0.78477 -0.78516,0 0,-0.78477 z m 0.148,0.098 0.78906,0 0,0.78906 -0.78906,0 0,-0.78906 z m 0.149,0.102 0.78906,0 0,0.78906 -0.78906,0 0,-0.78906 z m 0.101,0.101 0.78906,0 0,0.78516 -0.78906,0 0,-0.78516 z m 0.149,0.149 0.78906,0 0,0.78906 -0.78906,0 0,-0.78906 z m -9.348,-10.102 0.78477,0 0,0.78906 -0.78477,0 0,-0.78906 z m 1.348,2 0.78867,0 0,0.78906 -0.78867,0 0,-0.78906 z m 1.351,1.75 0.78906,0 0,0.78906 -0.78906,0 0,-0.78906 z m 1.352,1.551 0.78516,0 0,0.78906 -0.78516,0 0,-0.78906 z m 1.348,1.402 0.78906,0 0,0.78516 -0.78906,0 0,-0.78516 z m 1.351,1.199 0.78477,0 0,0.78477 -0.78477,0 0,-0.78477 z m 1.399,1.2 0.78906,0 0,0.78906 -0.78906,0 0,-0.78906 z m 1.351,1.05 0.78477,0 0,0.78477 -0.78477,0 0,-0.78477 z m 1.348,1.051 0.78906,0 0,0.78516 -0.78906,0 0,-0.78516 z m 1.351,0.899 0.78906,0 0,0.78906 -0.78906,0 0,-0.78906 z m 1.352,0.898 0.78516,0 0,0.78906 -0.78516,0 0,-0.78906 z m 1.348,0.852 0.78906,0 0,0.78906 -0.78906,0 0,-0.78906 z m 1.351,0.8 0.78477,0 0,0.78477 -0.78477,0 0,-0.78477 z m 1.348,0.801 0.78906,0 0,0.78516 -0.78906,0 0,-0.78516 z m 1.402,0.699 0.78477,0 0,0.78477 -0.78477,0 0,-0.78477 z m 1.348,0.75 0.78906,0 0,0.78477 -0.78906,0 0,-0.78477 z m 1.351,0.7 0.78906,0 0,0.78906 -0.78906,0 0,-0.78906 z m 1.352,0.699 0.78516,0 0,0.78906 -0.78516,0 0,-0.78906 z m 1.348,0.601 0.78906,0 0,0.78477 -0.78906,0 0,-0.78477 z m 1.351,0.649 0.78477,0 0,0.78906 -0.78477,0 0,-0.78906 z m 1.348,0.652 0.78906,0 0,0.78516 -0.78906,0 0,-0.78516 z m 1.351,0.547 0.78906,0 0,0.78906 -0.78906,0 0,-0.78906 z m 1.399,0.602 0.78906,0 0,0.78906 -0.78906,0 0,-0.78906 z m 1.351,0.5 0.78906,0 0,0.78906 -0.78906,0 0,-0.78906 z m 1.352,0.601 0.78516,0 0,0.78516 -0.78516,0 0,-0.78516 z m 1.348,0.547 0.78906,0 0,0.78906 -0.78906,0 0,-0.78906 z m 1.351,0.5 0.78477,0 0,0.78906 -0.78477,0 0,-0.78906 z m 1.348,0.453 0.78906,0 0,0.78516 -0.78906,0 0,-0.78516 z m 1.351,0.547 0.78906,0 0,0.78906 -0.78906,0 0,-0.78906 z m 1.352,0.453 0.78516,0 0,0.78516 -0.78516,0 0,-0.78516 z m 1.398,0.5 0.78906,0 0,0.78516 -0.78906,0 0,-0.78516 z m 1.352,0.5 0.78516,0 0,0.78516 -0.78516,0 0,-0.78516 z m 1.348,0.449 0.78906,0 0,0.78477 -0.78906,0 0,-0.78477 z m 1.351,0.5 0.78477,0 0,0.78477 -0.78477,0 0,-0.78477 z m 1.348,0.399 0.78906,0 0,0.78906 -0.78906,0 0,-0.78906 z m 1.351,0.402 0.78906,0 0,0.78516 -0.78906,0 0,-0.78516 z m 1.352,0.5 0.78516,0 0,0.78516 -0.78516,0 0,-0.78516 z m 1.348,0.449 0.78906,0 0,0.78477 -0.78906,0 0,-0.78477 z m 1.402,0.348 0.78516,0 0,0.78906 -0.78516,0 0,-0.78906 z m 1.348,0.453 0.78906,0 0,0.78516 -0.78906,0 0,-0.78516 z m 1.351,0.399 0.78477,0 0,0.78906 -0.78477,0 0,-0.78906 z m 1.348,0.351 0.78906,0 0,0.78516 -0.78906,0 0,-0.78516 z m 1.351,0.399 0.78906,0 0,0.78906 -0.78906,0 0,-0.78906 z m 1.352,0.398 0.78516,0 0,0.78906 -0.78516,0 0,-0.78906 z m 1.348,0.402 0.78906,0 0,0.78477 -0.78906,0 0,-0.78477 z m 1.351,0.399 0.78477,0 0,0.78906 -0.78477,0 0,-0.78906 z m 1.399,0.301 0.78906,0 0,0.78906 -0.78906,0 0,-0.78906 z m 1.351,0.351 0.78477,0 0,0.78516 -0.78477,0 0,-0.78516 z m 1.348,0.399 0.78906,0 0,0.78906 -0.78906,0 0,-0.78906 z m 1.351,0.351 0.78906,0 0,0.78516 -0.78906,0 0,-0.78516 z m 1.352,0.449 0.78516,0 0,0.78477 -0.78516,0 0,-0.78477 z m 1.348,0.25 0.78906,0 0,0.78477 -0.78906,0 0,-0.78477 z m 1.351,0.45 0.78477,0 0,0.78906 -0.78477,0 0,-0.78906 z m 1.348,0.25 0.78906,0 0,0.78906 -0.78906,0 0,-0.78906 z m 1.402,0.351 0.78477,0 0,0.78516 -0.78477,0 0,-0.78516 z m 1.348,0.399 0.78906,0 0,0.78906 -0.78906,0 0,-0.78906 z m 1.351,0.25 0.78906,0 0,0.78906 -0.78906,0 0,-0.78906 z m 1.352,0.398 0.78516,0 0,0.78906 -0.78516,0 0,-0.78906 z m 1.348,0.25 0.78906,0 0,0.78906 -0.78906,0 0,-0.78906 z m 1.351,0.402 0.78477,0 0,0.78477 -0.78477,0 0,-0.78477 z m 1.348,0.301 0.78906,0 0,0.78516 -0.78906,0 0,-0.78516 z m 1.402,0.297 0.78477,0 0,0.78906 -0.78477,0 0,-0.78906 z m 1.348,0.301 0.78867,0 0,0.78906 -0.78867,0 0,-0.78906 z m 1.351,0.301 0.78906,0 0,0.78906 -0.78906,0 0,-0.78906 z m 1.352,0.398 0.78516,0 0,0.78906 -0.78516,0 0,-0.78906 z m 1.348,0.203 0.78906,0 0,0.78516 -0.78906,0 0,-0.78516 z m 1.351,0.297 0.78477,0 0,0.78906 -0.78477,0 0,-0.78906 z m 1.348,0.352 0.78867,0 0,0.78906 -0.78867,0 0,-0.78906 z m 1.351,0.3 0.78906,0 0,0.78477 -0.78906,0 0,-0.78477 z m 1.399,0.25 0.78867,0 0,0.78477 -0.78867,0 0,-0.78477 z m 1.351,0.301 0.78906,0 0,0.78516 -0.78906,0 0,-0.78516 z m 1.352,0.25 0.78516,0 0,0.78516 -0.78516,0 0,-0.78516 z m 1.348,0.399 0.78906,0 0,0.78906 -0.78906,0 0,-0.78906 z m 1.351,0.25 0.78477,0 0,0.78906 -0.78477,0 0,-0.78906 z m 1.348,0.25 0.78867,0 0,0.78906 -0.78867,0 0,-0.78906 z m 1.351,0.3 0.78906,0 0,0.78477 -0.78906,0 0,-0.78477 z m 1.352,0.25 0.78516,0 0,0.78477 -0.78516,0 0,-0.78477 z m 1.398,0.25 0.78906,0 0,0.78477 -0.78906,0 0,-0.78477 z m 1.352,0.348 0.78516,0 0,0.78906 -0.78516,0 0,-0.78906 z m 1.348,0.25 0.78906,0 0,0.78906 -0.78906,0 0,-0.78906 z m 1.351,0.25 0.78477,0 0,0.78906 -0.78477,0 0,-0.78906 z m 1.348,0.25 0.78867,0 0,0.78906 -0.78867,0 0,-0.78906 z m 1.351,0.25 0.78906,0 0,0.78906 -0.78906,0 0,-0.78906 z m 1.352,0.352 0.78516,0 0,0.78906 -0.78516,0 0,-0.78906 z m 1.348,0.25 0.78906,0 0,0.78906 -0.78906,0 0,-0.78906 z m 1.402,0.25 0.78516,0 0,0.78906 -0.78516,0 0,-0.78906 z m 1.348,0.199 0.78906,0 0,0.78906 -0.78906,0 0,-0.78906 z m 1.351,0.351 0.78477,0 0,0.78477 -0.78477,0 0,-0.78477 z m 1.348,0.25 0.78867,0 0,0.78477 -0.78867,0 0,-0.78477 z m 1.351,0.2 0.78906,0 0,0.78906 -0.78906,0 0,-0.78906 z m 1.352,0.25 0.78516,0 0,0.78906 -0.78516,0 0,-0.78906 z m 1.348,0.25 0.78906,0 0,0.78906 -0.78906,0 0,-0.78906 z m 1.351,0.199 0.78477,0 0,0.78906 -0.78477,0 0,-0.78906 z m 1.399,0.25 0.78906,0 0,0.78906 -0.78906,0 0,-0.78906 z m 1.351,0.301 0.78477,0 0,0.78906 -0.78477,0 0,-0.78906 z m 1.348,0.25 0.78867,0 0,0.78906 -0.78867,0 0,-0.78906 z m 1.351,0.3 0.78906,0 0,0.78477 -0.78906,0 0,-0.78477 z m 1.352,0.149 0.78516,0 0,0.78906 -0.78516,0 0,-0.78906 z m 1.348,0.301 0.78906,0 0,0.78906 -0.78906,0 0,-0.78906 z m 1.351,0.199 0.78477,0 0,0.78906 -0.78477,0 0,-0.78906 z m 1.348,0.25 0.78867,0 0,0.78906 -0.78867,0 0,-0.78906 z m 1.402,0.199 0.78477,0 0,0.78906 -0.78477,0 0,-0.78906 z m 1.348,0.203 0.78867,0 0,0.78516 -0.78867,0 0,-0.78516 z m 1.351,0.25 0.78906,0 0,0.78516 -0.78906,0 0,-0.78516 z m 1.352,0.297 0.78516,0 0,0.78906 -0.78516,0 0,-0.78906 z m 1.348,0.203 0.78906,0 0,0.78516 -0.78906,0 0,-0.78516 z m 1.351,0.199 0.78477,0 0,0.78477 -0.78477,0 0,-0.78477 z m 1.348,0.25 0.78867,0 0,0.78477 -0.78867,0 0,-0.78477 z m 1.351,0.2 0.78906,0 0,0.78906 -0.78906,0 0,-0.78906 z m 1.399,0.3 0.78867,0 0,0.78477 -0.78867,0 0,-0.78477 z m 1.351,0.2 0.78906,0 0,0.78906 -0.78906,0 0,-0.78906 z m 1.352,0.199 0.78516,0 0,0.78906 -0.78516,0 0,-0.78906 z m 1.348,0.199 0.78906,0 0,0.78906 -0.78906,0 0,-0.78906 z m 1.351,0.301 0.78477,0 0,0.78906 -0.78477,0 0,-0.78906 z m 1.348,0.101 0.78867,0 0,0.78477 -0.78867,0 0,-0.78477 z m 1.351,0.301 0.78906,0 0,0.78516 -0.78906,0 0,-0.78516 z m 1.352,0.199 0.78516,0 0,0.78477 -0.78516,0 0,-0.78477 z m 1.398,0.301 0.78906,0 0,0.78516 -0.78906,0 0,-0.78516 z m 1.352,0.199 0.78516,0 0,0.78477 -0.78516,0 0,-0.78477 z m 1.348,0.2 0.78906,0 0,0.78906 -0.78906,0 0,-0.78906 z m 1.351,0.101 0.78477,0 0,0.78516 -0.78477,0 0,-0.78516 z m 1.348,0.297 0.78867,0 0,0.78906 -0.78867,0 0,-0.78906 z m 1.351,0.203 0.78906,0 0,0.78516 -0.78906,0 0,-0.78516 z m 1.352,0.199 0.78516,0 0,0.78477 -0.78516,0 0,-0.78477 z m 1.398,0.2 0.78906,0 0,0.78906 -0.78906,0 0,-0.78906 z m 1.352,0.25 0.78516,0 0,0.78906 -0.78516,0 0,-0.78906 z m 1.348,0.199 0.78906,0 0,0.78906 -0.78906,0 0,-0.78906 z m 1.351,0.199 0.78477,0 0,0.78906 -0.78477,0 0,-0.78906 z m 1.348,0.203 0.78867,0 0,0.78516 -0.78867,0 0,-0.78516 z m 1.351,0.199 0.78906,0 0,0.78477 -0.78906,0 0,-0.78477 z m 1.352,0.098 0.78516,0 0,0.78906 -0.78516,0 0,-0.78906 z m 1.348,0.352 0.78906,0 0,0.78906 -0.78906,0 0,-0.78906 z m 1.402,0.101 0.78516,0 0,0.78516 -0.78516,0 0,-0.78516 z m 1.348,0.199 0.78906,0 0,0.78477 -0.78906,0 0,-0.78477 z m 1.351,0.348 0.78477,0 0,0.78906 -0.78477,0 0,-0.78906 z m 1.348,0.203 0.78867,0 0,0.78516 -0.78867,0 0,-0.78516 z m 1.351,0.098 0.78906,0 0,0.78906 -0.78906,0 0,-0.78906 z m 1.352,0.199 0.78516,0 0,0.78906 -0.78516,0 0,-0.78906 z m 1.348,0.25 0.78906,0 0,0.78906 -0.78906,0 0,-0.78906 z m 1.351,0.203 0.78477,0 0,0.78516 -0.78477,0 0,-0.78516 z m 1.399,0.098 0.78906,0 0,0.78906 -0.78906,0 0,-0.78906 z m 1.351,0.25 0.78477,0 0,0.78906 -0.78477,0 0,-0.78906 z m 1.348,0.199 0.78867,0 0,0.78906 -0.78867,0 0,-0.78906 z m 1.351,0.203 0.78906,0 0,0.78516 -0.78906,0 0,-0.78516 z m 1.352,0.25 0.78516,0 0,0.78516 -0.78516,0 0,-0.78516 z m 1.348,0.199 0.78906,0 0,0.78477 -0.78906,0 0,-0.78477 z m 1.351,0.149 0.78477,0 0,0.78906 -0.78477,0 0,-0.78906 z m 1.348,0.199 0.78867,0 0,0.78906 -0.78867,0 0,-0.78906 z m 1.402,0.25 0.78477,0 0,0.78906 -0.78477,0 0,-0.78906 z m 1.348,0.102 0.78867,0 0,0.78906 -0.78867,0 0,-0.78906 z m 1.351,0.101 0.78906,0 0,0.78516 -0.78906,0 0,-0.78516 z"
         style="fill:#1f77b4;fill-opacity:1;fill-rule:nonzero;stroke:#1f77b4;stroke-width:0.36000001;stroke-miterlimit:4;stroke-dasharray:none;stroke-opacity:1"
         id="path18648"
         inkscape:connector-curvature="0" /><path
         inkscape:export-ydpi="300"
         inkscape:export-xdpi="300"
         sodipodi:nodetypes="cccccccccccccccccccccccccccccccccccccccccccccccccccccccc"
         inkscape:connector-curvature="0"
         id="path18760"
         d="m 117.652,86.798 c 0.0162,5.208188 -0.0513,10.680073 0.602,15.601 0.20049,1.74398 0.54508,3.35887 0.949,4.949 0.4385,1.5268 0.84625,2.71137 1.449,4.102 0.56622,1.21926 1.22763,2.60057 2,3.699 0.66869,1.15078 1.48892,2.21357 2.301,3.199 0.80464,0.97357 1.69575,1.98046 2.602,2.801 0.87879,0.92554 1.88616,1.84287 2.949,2.649 0.94823,0.85463 1.98873,1.64918 3.051,2.351 1.03031,0.85285 2.08318,1.42215 3.148,2.199 1.19465,0.72338 2.31713,1.39343 3.449,2.102 1.14106,0.5846 2.36537,1.3199 3.5,1.898 1.23959,0.66298 2.37507,1.20681 3.551,1.801 1.20093,0.59679 2.47935,1.17234 3.699,1.75 1.24879,0.55615 2.45931,1.08557 3.75,1.649 1.30247,0.56219 2.60057,1.05223 3.801,1.601 1.29276,0.44644 2.54673,1.01211 3.902,1.5 1.24142,0.48722 2.74058,1.03327 4,1.5 1.37293,0.50136 2.71626,0.97321 4.047,1.449 1.32472,0.4371 2.68985,0.94255 4,1.352 1.30716,0.43788 2.5819,0.89686 4,1.301 1.31179,0.47516 2.64599,0.86869 4.051,1.297 1.34196,0.43389 2.70666,0.87037 4.102,1.25 1.3026,0.45516 2.6733,0.78326 4.05,1.25 1.37934,0.33408 2.71987,0.82048 4.149,1.152 1.41331,0.44837 2.80505,0.83199 4.25,1.199 1.35148,0.44209 2.84185,0.75561 4.199,1.199 1.42144,0.32384 2.8519,0.74977 4.199,1.102 1.4008,0.34988 2.89061,0.76422 4.25,1.098 1.39887,0.37889 2.8911,0.73273 4.25,1.101 1.38214,0.3088 2.89923,0.7396 4.301,1.051 1.34214,0.37326 2.82997,0.69202 4.199,1.051 1.5165,0.35368 2.9131,0.69858 4.352,1.047 1.45427,0.31727 2.84402,0.70468 4.351,1 1.42755,0.37307 2.83197,0.69756 4.297,1 1.43823,0.37074 2.85537,0.68652 4.352,1 1.39261,0.36475 2.91324,0.64312 4.301,1 1.43178,0.29798 2.87287,0.60237 4.25,0.953 1.44244,0.27427 2.93703,0.60226 4.347,0.949 1.4882,0.25678 2.8941,0.63936 4.352,0.898 1.41174,0.34463 2.85509,0.60781 4.351,0.95 1.45357,0.28817 2.86026,0.60689 4.348,0.902 1.42213,0.30713 2.86816,0.60313 4.301,0.898 1.50349,0.31373 2.8944,0.59431 4.398,0.903 1.42672,0.3025 2.90389,0.56746 4.301,0.898 1.52634,0.23247 2.98523,0.62112 4.699,0.899 1.62123,0.35904 2.97815,0.61536 4.5,0.902 1.45137,0.32409 2.99915,0.58194 4.453,0.898 1.47423,0.26263 2.95184,0.58048 4.45,0.852 1.47795,0.29685 2.93763,0.57405 4.398,0.848 1.43567,0.29722 2.92549,0.54511 4.352,0.851 1.47957,0.26485 2.96643,0.52938 4.449,0.852 1.55481,0.22905 2.93576,0.56858 4.449,0.797 1.40568,0.3117 2.97394,0.54465 4.402,0.851 1.54845,0.23982 3.00412,0.58877 4.547,0.801 1.46075,0.32942 2.97901,0.56262 4.5,0.848"
         style="fill:none;stroke:#000000;stroke-width:0.81999999;stroke-linecap:butt;stroke-linejoin:miter;stroke-miterlimit:3.79999995;stroke-dasharray:4.92, 4.92;stroke-dashoffset:0;stroke-opacity:1" /><path
         inkscape:export-ydpi="300"
         inkscape:export-xdpi="300"
         d="m 334.355,181.598 0.047,0 0,0.051 0.153,0"
         style="fill:none;stroke:#00ff00;stroke-width:0.5;stroke-linecap:butt;stroke-linejoin:miter;stroke-miterlimit:3.79999995;stroke-dasharray:none;stroke-opacity:1"
         id="path18762"
         inkscape:connector-curvature="0" /><path
         inkscape:export-ydpi="300"
         inkscape:export-xdpi="300"
         d="m 47.6051,33.0012 286.949,0 0,197.949 -286.949,0 0,-197.949 z"
         style="fill:none;stroke:#000000;stroke-width:0.5;stroke-linecap:butt;stroke-linejoin:miter;stroke-miterlimit:3.79999995;stroke-dasharray:none;stroke-opacity:1"
         id="path18764"
         inkscape:connector-curvature="0" /></g></g></svg>