<?xml version="1.0" encoding="utf-8" standalone="no"?>
<!DOCTYPE svg PUBLIC "-//W3C//DTD SVG 1.1//EN"
  "http://www.w3.org/Graphics/SVG/1.1/DTD/svg11.dtd">
<!-- Created with matplotlib (http://matplotlib.org/) -->
<svg height="720pt" version="1.1" viewBox="0 0 720 720" width="720pt" xmlns="http://www.w3.org/2000/svg" xmlns:xlink="http://www.w3.org/1999/xlink">
 <defs>
  <style type="text/css">
*{stroke-linecap:butt;stroke-linejoin:round;}
  </style>
 </defs>
 <g id="figure_1">
  <g id="patch_1">
   <path d="M 0 720 
L 720 720 
L 720 0 
L 0 0 
z
" style="fill:#ffffff;"/>
  </g>
  <g id="axes_1">
   <g id="patch_2">
    <path d="M 127.584 528.12 
L 592.416 528.12 
L 592.416 191.88 
L 127.584 191.88 
z
" style="fill:#ffffff;"/>
   </g>
   <g id="matplotlib.axis_1">
    <g id="xtick_1">
     <g id="line2d_1">
      <defs>
       <path d="M 0 0 
L 0 3.5 
" id="m49d2982a6a" style="stroke:#000000;stroke-width:0.8;"/>
      </defs>
      <g>
       <use style="stroke:#000000;stroke-width:0.8;" x="154.927059" xlink:href="#m49d2982a6a" y="528.12"/>
      </g>
     </g>
     <g id="text_1">
      <!-- −4 -->
      <defs>
       <path d="M 10.59375 35.5 
L 73.1875 35.5 
L 73.1875 27.203125 
L 10.59375 27.203125 
z
" id="DejaVuSans-2212"/>
       <path d="M 37.796875 64.3125 
L 12.890625 25.390625 
L 37.796875 25.390625 
z
M 35.203125 72.90625 
L 47.609375 72.90625 
L 47.609375 25.390625 
L 58.015625 25.390625 
L 58.015625 17.1875 
L 47.609375 17.1875 
L 47.609375 0 
L 37.796875 0 
L 37.796875 17.1875 
L 4.890625 17.1875 
L 4.890625 26.703125 
z
" id="DejaVuSans-34"/>
      </defs>
      <g transform="translate(143.133309 547.2775)scale(0.16 -0.16)">
       <use xlink:href="#DejaVuSans-2212"/>
       <use x="83.789062" xlink:href="#DejaVuSans-34"/>
      </g>
     </g>
    </g>
    <g id="xtick_2">
     <g id="line2d_2">
      <g>
       <use style="stroke:#000000;stroke-width:0.8;" x="209.613176" xlink:href="#m49d2982a6a" y="528.12"/>
      </g>
     </g>
     <g id="text_2">
      <!-- −2 -->
      <defs>
       <path d="M 19.1875 8.296875 
L 53.609375 8.296875 
L 53.609375 0 
L 7.328125 0 
L 7.328125 8.296875 
Q 12.9375 14.109375 22.625 23.890625 
Q 32.328125 33.6875 34.8125 36.53125 
Q 39.546875 41.84375 41.421875 45.53125 
Q 43.3125 49.21875 43.3125 52.78125 
Q 43.3125 58.59375 39.234375 62.25 
Q 35.15625 65.921875 28.609375 65.921875 
Q 23.96875 65.921875 18.8125 64.3125 
Q 13.671875 62.703125 7.8125 59.421875 
L 7.8125 69.390625 
Q 13.765625 71.78125 18.9375 73 
Q 24.125 74.21875 28.421875 74.21875 
Q 39.75 74.21875 46.484375 68.546875 
Q 53.21875 62.890625 53.21875 53.421875 
Q 53.21875 48.921875 51.53125 44.890625 
Q 49.859375 40.875 45.40625 35.40625 
Q 44.1875 33.984375 37.640625 27.21875 
Q 31.109375 20.453125 19.1875 8.296875 
z
" id="DejaVuSans-32"/>
      </defs>
      <g transform="translate(197.819426 547.2775)scale(0.16 -0.16)">
       <use xlink:href="#DejaVuSans-2212"/>
       <use x="83.789062" xlink:href="#DejaVuSans-32"/>
      </g>
     </g>
    </g>
    <g id="xtick_3">
     <g id="line2d_3">
      <g>
       <use style="stroke:#000000;stroke-width:0.8;" x="264.299294" xlink:href="#m49d2982a6a" y="528.12"/>
      </g>
     </g>
     <g id="text_3">
      <!-- 0 -->
      <defs>
       <path d="M 31.78125 66.40625 
Q 24.171875 66.40625 20.328125 58.90625 
Q 16.5 51.421875 16.5 36.375 
Q 16.5 21.390625 20.328125 13.890625 
Q 24.171875 6.390625 31.78125 6.390625 
Q 39.453125 6.390625 43.28125 13.890625 
Q 47.125 21.390625 47.125 36.375 
Q 47.125 51.421875 43.28125 58.90625 
Q 39.453125 66.40625 31.78125 66.40625 
z
M 31.78125 74.21875 
Q 44.046875 74.21875 50.515625 64.515625 
Q 56.984375 54.828125 56.984375 36.375 
Q 56.984375 17.96875 50.515625 8.265625 
Q 44.046875 -1.421875 31.78125 -1.421875 
Q 19.53125 -1.421875 13.0625 8.265625 
Q 6.59375 17.96875 6.59375 36.375 
Q 6.59375 54.828125 13.0625 64.515625 
Q 19.53125 74.21875 31.78125 74.21875 
z
" id="DejaVuSans-30"/>
      </defs>
      <g transform="translate(259.209294 547.2775)scale(0.16 -0.16)">
       <use xlink:href="#DejaVuSans-30"/>
      </g>
     </g>
    </g>
    <g id="xtick_4">
     <g id="line2d_4">
      <g>
       <use style="stroke:#000000;stroke-width:0.8;" x="318.985412" xlink:href="#m49d2982a6a" y="528.12"/>
      </g>
     </g>
     <g id="text_4">
      <!-- 2 -->
      <g transform="translate(313.895412 547.2775)scale(0.16 -0.16)">
       <use xlink:href="#DejaVuSans-32"/>
      </g>
     </g>
    </g>
    <g id="xtick_5">
     <g id="line2d_5">
      <g>
       <use style="stroke:#000000;stroke-width:0.8;" x="373.671529" xlink:href="#m49d2982a6a" y="528.12"/>
      </g>
     </g>
     <g id="text_5">
      <!-- 4 -->
      <g transform="translate(368.581529 547.2775)scale(0.16 -0.16)">
       <use xlink:href="#DejaVuSans-34"/>
      </g>
     </g>
    </g>
    <g id="xtick_6">
     <g id="line2d_6">
      <g>
       <use style="stroke:#000000;stroke-width:0.8;" x="428.357647" xlink:href="#m49d2982a6a" y="528.12"/>
      </g>
     </g>
     <g id="text_6">
      <!-- 6 -->
      <defs>
       <path d="M 33.015625 40.375 
Q 26.375 40.375 22.484375 35.828125 
Q 18.609375 31.296875 18.609375 23.390625 
Q 18.609375 15.53125 22.484375 10.953125 
Q 26.375 6.390625 33.015625 6.390625 
Q 39.65625 6.390625 43.53125 10.953125 
Q 47.40625 15.53125 47.40625 23.390625 
Q 47.40625 31.296875 43.53125 35.828125 
Q 39.65625 40.375 33.015625 40.375 
z
M 52.59375 71.296875 
L 52.59375 62.3125 
Q 48.875 64.0625 45.09375 64.984375 
Q 41.3125 65.921875 37.59375 65.921875 
Q 27.828125 65.921875 22.671875 59.328125 
Q 17.53125 52.734375 16.796875 39.40625 
Q 19.671875 43.65625 24.015625 45.921875 
Q 28.375 48.1875 33.59375 48.1875 
Q 44.578125 48.1875 50.953125 41.515625 
Q 57.328125 34.859375 57.328125 23.390625 
Q 57.328125 12.15625 50.6875 5.359375 
Q 44.046875 -1.421875 33.015625 -1.421875 
Q 20.359375 -1.421875 13.671875 8.265625 
Q 6.984375 17.96875 6.984375 36.375 
Q 6.984375 53.65625 15.1875 63.9375 
Q 23.390625 74.21875 37.203125 74.21875 
Q 40.921875 74.21875 44.703125 73.484375 
Q 48.484375 72.75 52.59375 71.296875 
z
" id="DejaVuSans-36"/>
      </defs>
      <g transform="translate(423.267647 547.2775)scale(0.16 -0.16)">
       <use xlink:href="#DejaVuSans-36"/>
      </g>
     </g>
    </g>
    <g id="xtick_7">
     <g id="line2d_7">
      <g>
       <use style="stroke:#000000;stroke-width:0.8;" x="483.043765" xlink:href="#m49d2982a6a" y="528.12"/>
      </g>
     </g>
     <g id="text_7">
      <!-- 8 -->
      <defs>
       <path d="M 31.78125 34.625 
Q 24.75 34.625 20.71875 30.859375 
Q 16.703125 27.09375 16.703125 20.515625 
Q 16.703125 13.921875 20.71875 10.15625 
Q 24.75 6.390625 31.78125 6.390625 
Q 38.8125 6.390625 42.859375 10.171875 
Q 46.921875 13.96875 46.921875 20.515625 
Q 46.921875 27.09375 42.890625 30.859375 
Q 38.875 34.625 31.78125 34.625 
z
M 21.921875 38.8125 
Q 15.578125 40.375 12.03125 44.71875 
Q 8.5 49.078125 8.5 55.328125 
Q 8.5 64.0625 14.71875 69.140625 
Q 20.953125 74.21875 31.78125 74.21875 
Q 42.671875 74.21875 48.875 69.140625 
Q 55.078125 64.0625 55.078125 55.328125 
Q 55.078125 49.078125 51.53125 44.71875 
Q 48 40.375 41.703125 38.8125 
Q 48.828125 37.15625 52.796875 32.3125 
Q 56.78125 27.484375 56.78125 20.515625 
Q 56.78125 9.90625 50.3125 4.234375 
Q 43.84375 -1.421875 31.78125 -1.421875 
Q 19.734375 -1.421875 13.25 4.234375 
Q 6.78125 9.90625 6.78125 20.515625 
Q 6.78125 27.484375 10.78125 32.3125 
Q 14.796875 37.15625 21.921875 38.8125 
z
M 18.3125 54.390625 
Q 18.3125 48.734375 21.84375 45.5625 
Q 25.390625 42.390625 31.78125 42.390625 
Q 38.140625 42.390625 41.71875 45.5625 
Q 45.3125 48.734375 45.3125 54.390625 
Q 45.3125 60.0625 41.71875 63.234375 
Q 38.140625 66.40625 31.78125 66.40625 
Q 25.390625 66.40625 21.84375 63.234375 
Q 18.3125 60.0625 18.3125 54.390625 
z
" id="DejaVuSans-38"/>
      </defs>
      <g transform="translate(477.953765 547.2775)scale(0.16 -0.16)">
       <use xlink:href="#DejaVuSans-38"/>
      </g>
     </g>
    </g>
    <g id="xtick_8">
     <g id="line2d_8">
      <g>
       <use style="stroke:#000000;stroke-width:0.8;" x="537.729882" xlink:href="#m49d2982a6a" y="528.12"/>
      </g>
     </g>
     <g id="text_8">
      <!-- 10 -->
      <defs>
       <path d="M 12.40625 8.296875 
L 28.515625 8.296875 
L 28.515625 63.921875 
L 10.984375 60.40625 
L 10.984375 69.390625 
L 28.421875 72.90625 
L 38.28125 72.90625 
L 38.28125 8.296875 
L 54.390625 8.296875 
L 54.390625 0 
L 12.40625 0 
z
" id="DejaVuSans-31"/>
      </defs>
      <g transform="translate(527.549882 547.2775)scale(0.16 -0.16)">
       <use xlink:href="#DejaVuSans-31"/>
       <use x="63.623047" xlink:href="#DejaVuSans-30"/>
      </g>
     </g>
    </g>
    <g id="xtick_9">
     <g id="line2d_9">
      <g>
       <use style="stroke:#000000;stroke-width:0.8;" x="592.416" xlink:href="#m49d2982a6a" y="528.12"/>
      </g>
     </g>
     <g id="text_9">
      <!-- 12 -->
      <g transform="translate(582.236 547.2775)scale(0.16 -0.16)">
       <use xlink:href="#DejaVuSans-31"/>
       <use x="63.623047" xlink:href="#DejaVuSans-32"/>
      </g>
     </g>
    </g>
    <g id="text_10">
     <!-- x -->
     <defs>
      <path d="M 54.890625 54.6875 
L 35.109375 28.078125 
L 55.90625 0 
L 45.3125 0 
L 29.390625 21.484375 
L 13.484375 0 
L 2.875 0 
L 24.125 28.609375 
L 4.6875 54.6875 
L 15.28125 54.6875 
L 29.78125 35.203125 
L 44.28125 54.6875 
z
" id="DejaVuSans-78"/>
     </defs>
     <g transform="translate(355.265 566.7625)scale(0.16 -0.16)">
      <use xlink:href="#DejaVuSans-78"/>
     </g>
    </g>
   </g>
   <g id="matplotlib.axis_2">
    <g id="ytick_1">
     <g id="line2d_10">
      <defs>
       <path d="M 0 0 
L -3.5 0 
" id="m7ae3c53be6" style="stroke:#000000;stroke-width:0.8;"/>
      </defs>
      <g>
       <use style="stroke:#000000;stroke-width:0.8;" x="127.584" xlink:href="#m7ae3c53be6" y="528.12"/>
      </g>
     </g>
     <g id="text_11">
      <!-- −2 -->
      <g transform="translate(96.9965 534.19875)scale(0.16 -0.16)">
       <use xlink:href="#DejaVuSans-2212"/>
       <use x="83.789062" xlink:href="#DejaVuSans-32"/>
      </g>
     </g>
    </g>
    <g id="ytick_2">
     <g id="line2d_11">
      <g>
       <use style="stroke:#000000;stroke-width:0.8;" x="127.584" xlink:href="#m7ae3c53be6" y="466.985455"/>
      </g>
     </g>
     <g id="text_12">
      <!-- 0 -->
      <g transform="translate(110.404 473.064205)scale(0.16 -0.16)">
       <use xlink:href="#DejaVuSans-30"/>
      </g>
     </g>
    </g>
    <g id="ytick_3">
     <g id="line2d_12">
      <g>
       <use style="stroke:#000000;stroke-width:0.8;" x="127.584" xlink:href="#m7ae3c53be6" y="405.850909"/>
      </g>
     </g>
     <g id="text_13">
      <!-- 2 -->
      <g transform="translate(110.404 411.929659)scale(0.16 -0.16)">
       <use xlink:href="#DejaVuSans-32"/>
      </g>
     </g>
    </g>
    <g id="ytick_4">
     <g id="line2d_13">
      <g>
       <use style="stroke:#000000;stroke-width:0.8;" x="127.584" xlink:href="#m7ae3c53be6" y="344.716364"/>
      </g>
     </g>
     <g id="text_14">
      <!-- 4 -->
      <g transform="translate(110.404 350.795114)scale(0.16 -0.16)">
       <use xlink:href="#DejaVuSans-34"/>
      </g>
     </g>
    </g>
    <g id="ytick_5">
     <g id="line2d_14">
      <g>
       <use style="stroke:#000000;stroke-width:0.8;" x="127.584" xlink:href="#m7ae3c53be6" y="283.581818"/>
      </g>
     </g>
     <g id="text_15">
      <!-- 6 -->
      <g transform="translate(110.404 289.660568)scale(0.16 -0.16)">
       <use xlink:href="#DejaVuSans-36"/>
      </g>
     </g>
    </g>
    <g id="ytick_6">
     <g id="line2d_15">
      <g>
       <use style="stroke:#000000;stroke-width:0.8;" x="127.584" xlink:href="#m7ae3c53be6" y="222.447273"/>
      </g>
     </g>
     <g id="text_16">
      <!-- 8 -->
      <g transform="translate(110.404 228.526023)scale(0.16 -0.16)">
       <use xlink:href="#DejaVuSans-38"/>
      </g>
     </g>
    </g>
    <g id="text_17">
     <!-- y -->
     <defs>
      <path d="M 32.171875 -5.078125 
Q 28.375 -14.84375 24.75 -17.8125 
Q 21.140625 -20.796875 15.09375 -20.796875 
L 7.90625 -20.796875 
L 7.90625 -13.28125 
L 13.1875 -13.28125 
Q 16.890625 -13.28125 18.9375 -11.515625 
Q 21 -9.765625 23.484375 -3.21875 
L 25.09375 0.875 
L 2.984375 54.6875 
L 12.5 54.6875 
L 29.59375 11.921875 
L 46.6875 54.6875 
L 56.203125 54.6875 
z
" id="DejaVuSans-79"/>
     </defs>
     <g transform="translate(89.669 364.735)rotate(-90)scale(0.16 -0.16)">
      <use xlink:href="#DejaVuSans-79"/>
     </g>
    </g>
   </g>
   <g id="line2d_16">
    <path clip-path="url(#p0808db038d)" d="M 127.556651 283.126337 
L 137.238031 290.750795 
L 146.591227 297.832963 
L 155.452151 304.267398 
L 163.984891 310.194933 
L 172.353541 315.738155 
L 180.394009 320.799116 
L 188.270385 325.493718 
L 195.818579 329.738688 
L 203.202681 333.642483 
L 210.422693 337.214494 
L 217.642704 340.538218 
L 224.698625 343.541725 
L 231.590454 346.238381 
L 238.482283 348.698502 
L 245.374112 350.920982 
L 252.265942 352.906033 
L 259.157771 354.655298 
L 266.0496 356.17196 
L 272.941429 357.460837 
L 279.997349 358.55124 
L 287.05327 359.418646 
L 294.437373 360.099466 
L 301.985566 360.570753 
L 309.861943 360.840082 
L 318.230592 360.903477 
L 327.419698 360.745821 
L 337.757442 360.340204 
L 350.720644 359.596178 
L 388.133431 357.308159 
L 398.471175 356.987664 
L 407.496189 356.926287 
L 415.864839 357.089984 
L 423.741215 357.465812 
L 431.289409 358.048877 
L 438.509421 358.82673 
L 445.565341 359.807291 
L 452.45717 360.984917 
L 459.349 362.387293 
L 466.240829 364.020079 
L 472.968567 365.840059 
L 479.696305 367.885662 
L 486.588134 370.216029 
L 493.479963 372.78369 
L 500.371792 375.586985 
L 507.427713 378.698213 
L 514.647724 382.130151 
L 521.867736 385.807905 
L 529.251839 389.816904 
L 536.800032 394.166005 
L 544.676409 398.96529 
L 552.716876 404.128686 
L 560.921435 409.66033 
L 569.454175 415.681113 
L 578.315099 422.206958 
L 587.504204 429.251394 
L 592.426939 433.134917 
L 592.426939 433.134917 
" style="fill:none;stroke:#8fbbda;stroke-linecap:square;stroke-width:1.5;"/>
   </g>
   <g id="line2d_17">
    <path clip-path="url(#p0808db038d)" d="M 127.556651 314.118458 
L 244.717748 444.929097 
L 261.619138 463.469399 
L 271.956882 474.500985 
L 279.505076 482.245577 
L 285.412358 488.000247 
L 290.171002 492.345156 
L 294.273281 495.803816 
L 297.883287 498.559858 
L 301.001019 500.667119 
L 303.790569 502.290507 
L 306.251937 503.478325 
L 308.549213 504.345498 
L 310.682399 504.910897 
L 312.651493 505.200177 
L 314.456495 505.245387 
L 316.261498 505.05673 
L 317.90241 504.661577 
L 319.543322 504.032987 
L 321.184233 503.149964 
L 322.825145 501.990413 
L 324.466057 500.531268 
L 326.106969 498.748683 
L 327.74788 496.618275 
L 329.388792 494.115447 
L 331.029704 491.215786 
L 332.834707 487.539507 
L 334.639709 483.324513 
L 336.444712 478.543837 
L 338.413806 472.656633 
L 340.3829 466.046747 
L 342.516086 458.056211 
L 344.649271 449.202869 
L 346.946547 438.726114 
L 349.407915 426.475792 
L 352.197465 411.441557 
L 355.479288 392.477865 
L 360.073841 364.472639 
L 367.293853 320.445511 
L 370.739767 300.900065 
L 373.529317 286.28245 
L 376.154776 273.700253 
L 378.452052 263.711901 
L 380.749329 254.716659 
L 382.882514 247.261968 
L 384.851608 241.139377 
L 386.820702 235.725418 
L 388.625705 231.361612 
L 390.430708 227.544062 
L 392.235711 224.24359 
L 394.040713 221.428934 
L 395.681625 219.264484 
L 397.322537 217.450171 
L 398.963449 215.961577 
L 400.60436 214.774794 
L 402.245272 213.866675 
L 403.886184 213.215024 
L 405.527095 212.798739 
L 407.168007 212.597895 
L 408.97301 212.603522 
L 410.778013 212.824094 
L 412.747107 213.284848 
L 414.880292 214.014782 
L 417.177569 215.036995 
L 419.803027 216.464973 
L 422.592577 218.241017 
L 425.710309 220.489861 
L 429.320315 223.378115 
L 433.422595 226.953848 
L 438.181239 231.400443 
L 443.924429 237.077893 
L 451.144441 244.542757 
L 460.661729 254.723995 
L 474.445387 269.824958 
L 498.730881 296.812726 
L 577.330552 384.64212 
L 592.426939 401.518508 
L 592.426939 401.518508 
" style="fill:none;stroke:#1f77b4;stroke-linecap:square;stroke-width:1.5;"/>
   </g>
   <g id="line2d_18">
    <path clip-path="url(#p0808db038d)" d="M 127.556651 512.836362 
L 279.012802 512.726174 
L 294.765555 512.487601 
L 304.446934 512.128342 
L 311.502854 511.650177 
L 317.081954 511.052596 
L 321.676507 510.340391 
L 325.614695 509.507604 
L 329.06061 508.554048 
L 332.178342 507.458129 
L 334.967892 506.242089 
L 337.593351 504.847792 
L 340.054718 503.274428 
L 342.351995 501.528056 
L 344.48518 499.622632 
L 346.454274 497.580704 
L 348.423368 495.224145 
L 350.392462 492.504781 
L 352.197465 489.646098 
L 354.002468 486.38722 
L 355.807471 482.672647 
L 357.612473 478.439341 
L 359.417476 473.615743 
L 361.222479 468.120694 
L 363.027482 461.862216 
L 364.832485 454.736177 
L 366.637488 446.624819 
L 368.442491 437.395143 
L 370.247494 426.897164 
L 372.052497 414.962025 
L 373.857499 401.399992 
L 375.662502 385.998348 
L 377.467505 368.519224 
L 379.272508 348.697401 
L 381.077511 326.238177 
L 382.882514 300.815365 
L 384.687517 272.069562 
L 386.49252 239.606846 
L 388.297522 202.998091 
L 390.102525 161.779141 
L 391.907528 115.452146 
L 393.712531 63.488371 
L 395.517534 5.332875 
L 395.70244 -1 
L 395.70244 -1 
" style="fill:none;stroke:#ffb280;stroke-linecap:square;stroke-width:1.5;"/>
   </g>
   <g id="line2d_19">
    <path clip-path="url(#p0808db038d)" d="M 127.556651 617.334797 
L 143.309404 616.509043 
L 156.928971 615.578674 
L 169.071718 614.532841 
L 180.065826 613.367557 
L 190.075388 612.087566 
L 199.264493 610.693511 
L 207.797234 609.178916 
L 215.837702 607.527108 
L 223.385895 605.74929 
L 230.441816 603.861824 
L 237.169554 601.833942 
L 243.569109 599.674418 
L 249.640483 597.395498 
L 255.547765 594.941401 
L 261.290956 592.310278 
L 266.705965 589.588271 
L 271.956882 586.706375 
L 277.2078 583.566912 
L 282.294626 580.261406 
L 287.217361 576.797302 
L 292.140096 573.054674 
L 296.89874 569.15519 
L 301.657384 564.962159 
L 306.251937 560.619497 
L 310.84649 555.972515 
L 315.441042 551.006237 
L 320.035595 545.705968 
L 324.630148 540.057485 
L 329.224701 534.047252 
L 333.819254 527.662663 
L 338.413806 520.892295 
L 343.008359 513.726187 
L 347.602912 506.156138 
L 352.361556 497.883357 
L 357.1202 489.166538 
L 362.042935 479.680764 
L 367.129761 469.381288 
L 372.380679 458.227418 
L 377.795688 446.184665 
L 383.374787 433.22723 
L 389.282069 418.936268 
L 395.517534 403.268151 
L 402.409363 385.338487 
L 410.285739 364.201643 
L 420.13121 337.09702 
L 449.503529 255.77625 
L 457.379906 234.889502 
L 464.271735 217.235095 
L 470.507199 201.854707 
L 476.414481 187.8644 
L 481.993581 175.210955 
L 487.40859 163.477407 
L 492.659507 152.632765 
L 497.746334 142.638282 
L 502.669069 133.449882 
L 507.591804 124.73745 
L 512.350448 116.764619 
L 517.109092 109.227274 
L 521.703645 102.355093 
L 526.298197 95.871428 
L 530.89275 89.76521 
L 535.487303 84.024112 
L 540.081856 78.634815 
L 544.676409 73.583255 
L 549.270961 68.854839 
L 553.865514 64.434647 
L 558.624158 60.165445 
L 563.382802 56.193967 
L 568.305537 52.381192 
L 573.228272 48.851245 
L 578.315099 45.482089 
L 583.401925 42.377386 
L 588.652842 39.430785 
L 592.426939 37.464431 
L 592.426939 37.464431 
" style="fill:none;stroke:#ff6600;stroke-linecap:square;stroke-width:1.5;"/>
   </g>
   <g id="patch_3">
    <path d="M 127.584 528.12 
L 127.584 191.88 
" style="fill:none;stroke:#000000;stroke-linecap:square;stroke-linejoin:miter;stroke-width:0.8;"/>
   </g>
   <g id="patch_4">
    <path d="M 592.416 528.12 
L 592.416 191.88 
" style="fill:none;stroke:#000000;stroke-linecap:square;stroke-linejoin:miter;stroke-width:0.8;"/>
   </g>
   <g id="patch_5">
    <path d="M 127.584 528.12 
L 592.416 528.12 
" style="fill:none;stroke:#000000;stroke-linecap:square;stroke-linejoin:miter;stroke-width:0.8;"/>
   </g>
   <g id="patch_6">
    <path d="M 127.584 191.88 
L 592.416 191.88 
" style="fill:none;stroke:#000000;stroke-linecap:square;stroke-linejoin:miter;stroke-width:0.8;"/>
   </g>
  </g>
 </g>
 <defs>
  <clipPath id="p0808db038d">
   <rect height="336.24" width="464.832" x="127.584" y="191.88"/>
  </clipPath>
 </defs>
</svg>
