<?xml version="1.0" encoding="UTF-8" standalone="no"?>
<!-- Created with matplotlib (http://matplotlib.org/) -->

<svg
   xmlns:dc="http://purl.org/dc/elements/1.1/"
   xmlns:cc="http://creativecommons.org/ns#"
   xmlns:rdf="http://www.w3.org/1999/02/22-rdf-syntax-ns#"
   xmlns:svg="http://www.w3.org/2000/svg"
   xmlns="http://www.w3.org/2000/svg"
   xmlns:xlink="http://www.w3.org/1999/xlink"
   xmlns:sodipodi="http://sodipodi.sourceforge.net/DTD/sodipodi-0.dtd"
   xmlns:inkscape="http://www.inkscape.org/namespaces/inkscape"
   height="720pt"
   version="1.1"
   viewBox="0 0 1440 720"
   width="1440pt"
   id="svg5361"
   inkscape:version="0.91 r13725"
   sodipodi:docname="rate_dyn_u_step_illustr.svg">
  <metadata
     id="metadata5725">
    <rdf:RDF>
      <cc:Work
         rdf:about="">
        <dc:format>image/svg+xml</dc:format>
        <dc:type
           rdf:resource="http://purl.org/dc/dcmitype/StillImage" />
      </cc:Work>
    </rdf:RDF>
  </metadata>
  <sodipodi:namedview
     pagecolor="#ffffff"
     bordercolor="#666666"
     borderopacity="1"
     objecttolerance="10"
     gridtolerance="10"
     guidetolerance="10"
     inkscape:pageopacity="0"
     inkscape:pageshadow="2"
     inkscape:window-width="1851"
     inkscape:window-height="979"
     id="namedview5723"
     showgrid="false"
     inkscape:zoom="0.44050341"
     inkscape:cx="785.93288"
     inkscape:cy="685.23547"
     inkscape:window-x="65"
     inkscape:window-y="39"
     inkscape:window-maximized="0"
     inkscape:current-layer="svg5361" />
  <defs
     id="defs5363">
    <style
       type="text/css"
       id="style5365">
*{stroke-linecap:butt;stroke-linejoin:round;}
  </style>
  </defs>
  <g
     id="g6490"
     inkscape:export-xdpi="299.96503"
     inkscape:export-ydpi="299.96503">
    <g
       id="axes_1"
       style="stroke-linecap:butt;stroke-linejoin:round">
      <g
         id="patch_2"
         style="stroke-linecap:butt;stroke-linejoin:round">
        <path
           d="m 219.6,504 1000.8,0 0,-288 -1000.8,0 z"
           style="fill:#ffffff;stroke-linecap:butt;stroke-linejoin:round"
           id="path5373"
           inkscape:connector-curvature="0" />
      </g>
      <g
         id="matplotlib.axis_1"
         style="stroke-linecap:butt;stroke-linejoin:round">
        <g
           id="xtick_1"
           style="stroke-linecap:butt;stroke-linejoin:round">
          <g
             id="line2d_1"
             style="stroke-linecap:butt;stroke-linejoin:round">
            <defs
               id="defs5378">
              <path
                 d="M 0,0 0,3.5"
                 id="me0fa5aa087"
                 style="stroke:#000000;stroke-width:0.80000001;stroke-linecap:butt;stroke-linejoin:round"
                 inkscape:connector-curvature="0" />
            </defs>
            <g
               id="g5381"
               style="stroke-linecap:butt;stroke-linejoin:round">
              <use
                 style="stroke:#000000;stroke-width:0.80000001;stroke-linecap:butt;stroke-linejoin:round"
                 x="219.60001"
                 xlink:href="#me0fa5aa087"
                 y="504"
                 id="use5383"
                 width="100%"
                 height="100%" />
            </g>
          </g>
          <g
             id="text_1"
             style="stroke-linecap:butt;stroke-linejoin:round">
            <!-- 0 -->
            <defs
               id="defs5386">
              <path
                 d="m 31.78125,66.40625 q -7.609375,0 -11.453125,-7.5 Q 16.5,51.421875 16.5,36.375 q 0,-14.984375 3.828125,-22.484375 3.84375,-7.5 11.453125,-7.5 7.671875,0 11.5,7.5 3.84375,7.5 3.84375,22.484375 0,15.046875 -3.84375,22.53125 -3.828125,7.5 -11.5,7.5 z m 0,7.8125 q 12.265625,0 18.734375,-9.703125 6.46875,-9.6875 6.46875,-28.140625 0,-18.40625 -6.46875,-28.109375 -6.46875,-9.6875 -18.734375,-9.6875 -12.25,0 -18.71875,9.6875 Q 6.59375,17.96875 6.59375,36.375 q 0,18.453125 6.46875,28.140625 6.46875,9.703125 18.71875,9.703125 z"
                 id="DejaVuSans-30"
                 inkscape:connector-curvature="0"
                 style="stroke-linecap:butt;stroke-linejoin:round" />
            </defs>
            <g
               transform="matrix(0.16,0,0,-0.16,214.51,523.1575)"
               id="g5389"
               style="stroke-linecap:butt;stroke-linejoin:round">
              <use
                 xlink:href="#DejaVuSans-30"
                 id="use5391"
                 style="stroke-linecap:butt;stroke-linejoin:round"
                 x="0"
                 y="0"
                 width="100%"
                 height="100%" />
            </g>
          </g>
        </g>
        <g
           id="xtick_2"
           style="stroke-linecap:butt;stroke-linejoin:round">
          <g
             id="line2d_2"
             style="stroke-linecap:butt;stroke-linejoin:round">
            <g
               id="g5395"
               style="stroke-linecap:butt;stroke-linejoin:round">
              <use
                 style="stroke:#000000;stroke-width:0.80000001;stroke-linecap:butt;stroke-linejoin:round"
                 x="419.76001"
                 xlink:href="#me0fa5aa087"
                 y="504"
                 id="use5397"
                 width="100%"
                 height="100%" />
            </g>
          </g>
          <g
             id="text_2"
             style="stroke-linecap:butt;stroke-linejoin:round">
            <!-- 20 -->
            <defs
               id="defs5400">
              <path
                 d="m 19.1875,8.296875 34.421875,0 0,-8.296875 -46.28125,0 0,8.296875 q 5.609375,5.8125 15.296875,15.59375 9.703125,9.796875 12.1875,12.640625 4.734375,5.3125 6.609375,9 1.890625,3.6875 1.890625,7.25 0,5.8125 -4.078125,9.46875 -4.078125,3.671875 -10.625,3.671875 -4.640625,0 -9.796875,-1.609375 -5.140625,-1.609375 -11,-4.890625 l 0,9.96875 Q 13.765625,71.78125 18.9375,73 q 5.1875,1.21875 9.484375,1.21875 11.328125,0 18.0625,-5.671875 6.734375,-5.65625 6.734375,-15.125 0,-4.5 -1.6875,-8.53125 Q 49.859375,40.875 45.40625,35.40625 44.1875,33.984375 37.640625,27.21875 31.109375,20.453125 19.1875,8.296875 Z"
                 id="DejaVuSans-32"
                 inkscape:connector-curvature="0"
                 style="stroke-linecap:butt;stroke-linejoin:round" />
            </defs>
            <g
               transform="matrix(0.16,0,0,-0.16,409.58,523.1575)"
               id="g5403"
               style="stroke-linecap:butt;stroke-linejoin:round">
              <use
                 xlink:href="#DejaVuSans-32"
                 id="use5405"
                 style="stroke-linecap:butt;stroke-linejoin:round"
                 x="0"
                 y="0"
                 width="100%"
                 height="100%" />
              <use
                 x="63.623047"
                 xlink:href="#DejaVuSans-30"
                 id="use5407"
                 style="stroke-linecap:butt;stroke-linejoin:round"
                 y="0"
                 width="100%"
                 height="100%" />
            </g>
          </g>
        </g>
        <g
           id="xtick_3"
           style="stroke-linecap:butt;stroke-linejoin:round">
          <g
             id="line2d_3"
             style="stroke-linecap:butt;stroke-linejoin:round">
            <g
               id="g5411"
               style="stroke-linecap:butt;stroke-linejoin:round">
              <use
                 style="stroke:#000000;stroke-width:0.80000001;stroke-linecap:butt;stroke-linejoin:round"
                 x="619.91998"
                 xlink:href="#me0fa5aa087"
                 y="504"
                 id="use5413"
                 width="100%"
                 height="100%" />
            </g>
          </g>
          <g
             id="text_3"
             style="stroke-linecap:butt;stroke-linejoin:round">
            <!-- 40 -->
            <defs
               id="defs5416">
              <path
                 d="m 37.796875,64.3125 -24.90625,-38.921875 24.90625,0 z m -2.59375,8.59375 12.40625,0 0,-47.515625 10.40625,0 0,-8.203125 -10.40625,0 0,-17.1875 -9.8125,0 0,17.1875 -32.90625,0 0,9.515625 z"
                 id="DejaVuSans-34"
                 inkscape:connector-curvature="0"
                 style="stroke-linecap:butt;stroke-linejoin:round" />
            </defs>
            <g
               transform="matrix(0.16,0,0,-0.16,609.74,523.1575)"
               id="g5419"
               style="stroke-linecap:butt;stroke-linejoin:round">
              <use
                 xlink:href="#DejaVuSans-34"
                 id="use5421"
                 style="stroke-linecap:butt;stroke-linejoin:round"
                 x="0"
                 y="0"
                 width="100%"
                 height="100%" />
              <use
                 x="63.623047"
                 xlink:href="#DejaVuSans-30"
                 id="use5423"
                 style="stroke-linecap:butt;stroke-linejoin:round"
                 y="0"
                 width="100%"
                 height="100%" />
            </g>
          </g>
        </g>
        <g
           id="xtick_4"
           style="stroke-linecap:butt;stroke-linejoin:round">
          <g
             id="line2d_4"
             style="stroke-linecap:butt;stroke-linejoin:round">
            <g
               id="g5427"
               style="stroke-linecap:butt;stroke-linejoin:round">
              <use
                 style="stroke:#000000;stroke-width:0.80000001;stroke-linecap:butt;stroke-linejoin:round"
                 x="820.08002"
                 xlink:href="#me0fa5aa087"
                 y="504"
                 id="use5429"
                 width="100%"
                 height="100%" />
            </g>
          </g>
          <g
             id="text_4"
             style="stroke-linecap:butt;stroke-linejoin:round">
            <!-- 60 -->
            <defs
               id="defs5432">
              <path
                 d="m 33.015625,40.375 q -6.640625,0 -10.53125,-4.546875 -3.875,-4.53125 -3.875,-12.4375 0,-7.859375 3.875,-12.4375 3.890625,-4.5625 10.53125,-4.5625 6.640625,0 10.515625,4.5625 3.875,4.578125 3.875,12.4375 0,7.90625 -3.875,12.4375 Q 39.65625,40.375 33.015625,40.375 Z m 19.578125,30.921875 0,-8.984375 q -3.71875,1.75 -7.5,2.671875 -3.78125,0.9375 -7.5,0.9375 -9.765625,0 -14.921875,-6.59375 -5.140625,-6.59375 -5.875,-19.921875 2.875,4.25 7.21875,6.515625 4.359375,2.265625 9.578125,2.265625 10.984375,0 17.359375,-6.671875 6.375,-6.65625 6.375,-18.125 0,-11.234375 -6.640625,-18.03125 -6.640625,-6.78125 -17.671875,-6.78125 -12.65625,0 -19.34375,9.6875 -6.6875,9.703125 -6.6875,28.109375 0,17.28125 8.203125,27.5625 8.203125,10.28125 22.015625,10.28125 3.71875,0 7.5,-0.734375 3.78125,-0.734375 7.890625,-2.1875 z"
                 id="DejaVuSans-36"
                 inkscape:connector-curvature="0"
                 style="stroke-linecap:butt;stroke-linejoin:round" />
            </defs>
            <g
               transform="matrix(0.16,0,0,-0.16,809.9,523.1575)"
               id="g5435"
               style="stroke-linecap:butt;stroke-linejoin:round">
              <use
                 xlink:href="#DejaVuSans-36"
                 id="use5437"
                 style="stroke-linecap:butt;stroke-linejoin:round"
                 x="0"
                 y="0"
                 width="100%"
                 height="100%" />
              <use
                 x="63.623047"
                 xlink:href="#DejaVuSans-30"
                 id="use5439"
                 style="stroke-linecap:butt;stroke-linejoin:round"
                 y="0"
                 width="100%"
                 height="100%" />
            </g>
          </g>
        </g>
        <g
           id="xtick_5"
           style="stroke-linecap:butt;stroke-linejoin:round">
          <g
             id="line2d_5"
             style="stroke-linecap:butt;stroke-linejoin:round">
            <g
               id="g5443"
               style="stroke-linecap:butt;stroke-linejoin:round">
              <use
                 style="stroke:#000000;stroke-width:0.80000001;stroke-linecap:butt;stroke-linejoin:round"
                 x="1020.24"
                 xlink:href="#me0fa5aa087"
                 y="504"
                 id="use5445"
                 width="100%"
                 height="100%" />
            </g>
          </g>
          <g
             id="text_5"
             style="stroke-linecap:butt;stroke-linejoin:round">
            <!-- 80 -->
            <defs
               id="defs5448">
              <path
                 d="m 31.78125,34.625 q -7.03125,0 -11.0625,-3.765625 -4.015625,-3.765625 -4.015625,-10.34375 0,-6.59375 4.015625,-10.359375 4.03125,-3.765625 11.0625,-3.765625 7.03125,0 11.078125,3.78125 4.0625,3.796875 4.0625,10.34375 0,6.578125 -4.03125,10.34375 Q 38.875,34.625 31.78125,34.625 Z m -9.859375,4.1875 Q 15.578125,40.375 12.03125,44.71875 8.5,49.078125 8.5,55.328125 q 0,8.734375 6.21875,13.8125 6.234375,5.078125 17.0625,5.078125 10.890625,0 17.09375,-5.078125 6.203125,-5.078125 6.203125,-13.8125 0,-6.25 -3.546875,-10.609375 Q 48,40.375 41.703125,38.8125 q 7.125,-1.65625 11.09375,-6.5 3.984375,-4.828125 3.984375,-11.796875 0,-10.609375 -6.46875,-16.28125 -6.46875,-5.65625 -18.53125,-5.65625 -12.046875,0 -18.53125,5.65625 -6.46875,5.671875 -6.46875,16.28125 0,6.96875 4,11.796875 4.015625,4.84375 11.140625,6.5 z M 18.3125,54.390625 q 0,-5.65625 3.53125,-8.828125 3.546875,-3.171875 9.9375,-3.171875 6.359375,0 9.9375,3.171875 3.59375,3.171875 3.59375,8.828125 0,5.671875 -3.59375,8.84375 -3.578125,3.171875 -9.9375,3.171875 -6.390625,0 -9.9375,-3.171875 Q 18.3125,60.0625 18.3125,54.390625 Z"
                 id="DejaVuSans-38"
                 inkscape:connector-curvature="0"
                 style="stroke-linecap:butt;stroke-linejoin:round" />
            </defs>
            <g
               transform="matrix(0.16,0,0,-0.16,1010.06,523.1575)"
               id="g5451"
               style="stroke-linecap:butt;stroke-linejoin:round">
              <use
                 xlink:href="#DejaVuSans-38"
                 id="use5453"
                 style="stroke-linecap:butt;stroke-linejoin:round"
                 x="0"
                 y="0"
                 width="100%"
                 height="100%" />
              <use
                 x="63.623047"
                 xlink:href="#DejaVuSans-30"
                 id="use5455"
                 style="stroke-linecap:butt;stroke-linejoin:round"
                 y="0"
                 width="100%"
                 height="100%" />
            </g>
          </g>
        </g>
        <g
           id="xtick_6"
           style="stroke-linecap:butt;stroke-linejoin:round">
          <g
             id="line2d_6"
             style="stroke-linecap:butt;stroke-linejoin:round">
            <g
               id="g5459"
               style="stroke-linecap:butt;stroke-linejoin:round">
              <use
                 style="stroke:#000000;stroke-width:0.80000001;stroke-linecap:butt;stroke-linejoin:round"
                 x="1220.4"
                 xlink:href="#me0fa5aa087"
                 y="504"
                 id="use5461"
                 width="100%"
                 height="100%" />
            </g>
          </g>
          <g
             id="text_6"
             style="stroke-linecap:butt;stroke-linejoin:round">
            <!-- 100 -->
            <defs
               id="defs5464">
              <path
                 d="m 12.40625,8.296875 16.109375,0 0,55.625 -17.53125,-3.515625 0,8.984375 17.4375,3.515625 9.859375,0 0,-64.609375 16.109375,0 0,-8.296875 -41.984375,0 z"
                 id="DejaVuSans-31"
                 inkscape:connector-curvature="0"
                 style="stroke-linecap:butt;stroke-linejoin:round" />
            </defs>
            <g
               transform="matrix(0.16,0,0,-0.16,1205.13,523.1575)"
               id="g5467"
               style="stroke-linecap:butt;stroke-linejoin:round">
              <use
                 xlink:href="#DejaVuSans-31"
                 id="use5469"
                 style="stroke-linecap:butt;stroke-linejoin:round"
                 x="0"
                 y="0"
                 width="100%"
                 height="100%" />
              <use
                 x="63.623047"
                 xlink:href="#DejaVuSans-30"
                 id="use5471"
                 style="stroke-linecap:butt;stroke-linejoin:round"
                 y="0"
                 width="100%"
                 height="100%" />
              <use
                 x="127.24609"
                 xlink:href="#DejaVuSans-30"
                 id="use5473"
                 style="stroke-linecap:butt;stroke-linejoin:round"
                 y="0"
                 width="100%"
                 height="100%" />
            </g>
          </g>
        </g>
        <g
           id="text_7"
           style="stroke-linecap:butt;stroke-linejoin:round">
          <!-- t -->
          <defs
             id="defs5476">
            <path
               d="m 18.3125,70.21875 0,-15.53125 18.5,0 0,-6.984375 -18.5,0 0,-29.6875 q 0,-6.6875 1.828125,-8.59375 1.828125,-1.90625 7.453125,-1.90625 l 9.21875,0 L 36.8125,0 27.59375,0 Q 17.1875,0 13.234375,3.875 9.28125,7.765625 9.28125,18.015625 l 0,29.6875 -6.59375,0 0,6.984375 6.59375,0 0,15.53125 z"
               id="DejaVuSans-74"
               inkscape:connector-curvature="0"
               style="stroke-linecap:butt;stroke-linejoin:round" />
          </defs>
          <g
             transform="matrix(0.16,0,0,-0.16,716.86375,542.6425)"
             id="g5479"
             style="stroke-linecap:butt;stroke-linejoin:round">
            <use
               xlink:href="#DejaVuSans-74"
               id="use5481"
               style="stroke-linecap:butt;stroke-linejoin:round"
               x="0"
               y="0"
               width="100%"
               height="100%" />
          </g>
        </g>
      </g>
      <g
         id="matplotlib.axis_2"
         style="stroke-linecap:butt;stroke-linejoin:round">
        <g
           id="ytick_1"
           style="stroke-linecap:butt;stroke-linejoin:round">
          <g
             id="line2d_7"
             style="stroke-linecap:butt;stroke-linejoin:round">
            <defs
               id="defs5486">
              <path
                 d="M 0,0 -3.5,0"
                 id="m04687eec83"
                 style="stroke:#1f77b4;stroke-width:0.80000001;stroke-linecap:butt;stroke-linejoin:round"
                 inkscape:connector-curvature="0" />
            </defs>
            <g
               id="g5489"
               style="stroke-linecap:butt;stroke-linejoin:round">
              <use
                 style="fill:#1f77b4;stroke:#1f77b4;stroke-width:0.80000001;stroke-linecap:butt;stroke-linejoin:round"
                 x="219.60001"
                 xlink:href="#m04687eec83"
                 y="481.05322"
                 id="use5491"
                 width="100%"
                 height="100%" />
            </g>
          </g>
          <g
             id="text_8"
             style="stroke-linecap:butt;stroke-linejoin:round">
            <!-- 2 -->
            <g
               style="fill:#1f77b4;stroke-linecap:butt;stroke-linejoin:round"
               transform="matrix(0.16,0,0,-0.16,202.42,487.13199)"
               id="g5494">
              <use
                 xlink:href="#DejaVuSans-32"
                 id="use5496"
                 style="stroke-linecap:butt;stroke-linejoin:round"
                 x="0"
                 y="0"
                 width="100%"
                 height="100%" />
            </g>
          </g>
        </g>
        <g
           id="ytick_2"
           style="stroke-linecap:butt;stroke-linejoin:round">
          <g
             id="line2d_8"
             style="stroke-linecap:butt;stroke-linejoin:round">
            <g
               id="g5500"
               style="stroke-linecap:butt;stroke-linejoin:round">
              <use
                 style="fill:#1f77b4;stroke:#1f77b4;stroke-width:0.80000001;stroke-linecap:butt;stroke-linejoin:round"
                 x="219.60001"
                 xlink:href="#m04687eec83"
                 y="440.20132"
                 id="use5502"
                 width="100%"
                 height="100%" />
            </g>
          </g>
          <g
             id="text_9"
             style="stroke-linecap:butt;stroke-linejoin:round">
            <!-- 3 -->
            <defs
               id="defs5505">
              <path
                 d="M 40.578125,39.3125 Q 47.65625,37.796875 51.625,33 q 3.984375,-4.78125 3.984375,-11.8125 0,-10.78125 -7.421875,-16.703125 -7.421875,-5.90625 -21.09375,-5.90625 -4.578125,0 -9.4375,0.90625 -4.859375,0.90625 -10.03125,2.71875 l 0,9.515625 q 4.09375,-2.390625 8.96875,-3.609375 4.890625,-1.21875 10.21875,-1.21875 9.265625,0 14.125,3.65625 4.859375,3.65625 4.859375,10.640625 0,6.453125 -4.515625,10.078125 -4.515625,3.640625 -12.5625,3.640625 l -8.5,0 0,8.109375 8.890625,0 q 7.265625,0 11.125,2.90625 3.859375,2.90625 3.859375,8.375 0,5.609375 -3.984375,8.609375 -3.96875,3.015625 -11.390625,3.015625 -4.0625,0 -8.703125,-0.890625 Q 15.375,64.15625 9.8125,62.3125 l 0,8.78125 q 5.625,1.5625 10.53125,2.34375 4.90625,0.78125 9.25,0.78125 11.234375,0 17.765625,-5.109375 6.546875,-5.09375 6.546875,-13.78125 0,-6.0625 -3.46875,-10.234375 -3.46875,-4.171875 -9.859375,-5.78125 z"
                 id="DejaVuSans-33"
                 inkscape:connector-curvature="0"
                 style="stroke-linecap:butt;stroke-linejoin:round" />
            </defs>
            <g
               style="fill:#1f77b4;stroke-linecap:butt;stroke-linejoin:round"
               transform="matrix(0.16,0,0,-0.16,202.42,446.28006)"
               id="g5508">
              <use
                 xlink:href="#DejaVuSans-33"
                 id="use5510"
                 style="stroke-linecap:butt;stroke-linejoin:round"
                 x="0"
                 y="0"
                 width="100%"
                 height="100%" />
            </g>
          </g>
        </g>
        <g
           id="ytick_3"
           style="stroke-linecap:butt;stroke-linejoin:round">
          <g
             id="line2d_9"
             style="stroke-linecap:butt;stroke-linejoin:round">
            <g
               id="g5514"
               style="stroke-linecap:butt;stroke-linejoin:round">
              <use
                 style="fill:#1f77b4;stroke:#1f77b4;stroke-width:0.80000001;stroke-linecap:butt;stroke-linejoin:round"
                 x="219.60001"
                 xlink:href="#m04687eec83"
                 y="399.3494"
                 id="use5516"
                 width="100%"
                 height="100%" />
            </g>
          </g>
          <g
             id="text_10"
             style="stroke-linecap:butt;stroke-linejoin:round">
            <!-- 4 -->
            <g
               style="fill:#1f77b4;stroke-linecap:butt;stroke-linejoin:round"
               transform="matrix(0.16,0,0,-0.16,202.42,405.42814)"
               id="g5519">
              <use
                 xlink:href="#DejaVuSans-34"
                 id="use5521"
                 style="stroke-linecap:butt;stroke-linejoin:round"
                 x="0"
                 y="0"
                 width="100%"
                 height="100%" />
            </g>
          </g>
        </g>
        <g
           id="ytick_4"
           style="stroke-linecap:butt;stroke-linejoin:round">
          <g
             id="line2d_10"
             style="stroke-linecap:butt;stroke-linejoin:round">
            <g
               id="g5525"
               style="stroke-linecap:butt;stroke-linejoin:round">
              <use
                 style="fill:#1f77b4;stroke:#1f77b4;stroke-width:0.80000001;stroke-linecap:butt;stroke-linejoin:round"
                 x="219.60001"
                 xlink:href="#m04687eec83"
                 y="358.49747"
                 id="use5527"
                 width="100%"
                 height="100%" />
            </g>
          </g>
          <g
             id="text_11"
             style="stroke-linecap:butt;stroke-linejoin:round">
            <!-- 5 -->
            <defs
               id="defs5530">
              <path
                 d="m 10.796875,72.90625 38.71875,0 0,-8.3125 -29.6875,0 0,-17.859375 q 2.140625,0.734375 4.28125,1.09375 2.15625,0.359375 4.3125,0.359375 Q 40.625,48.1875 47.75,41.5 54.890625,34.8125 54.890625,23.390625 54.890625,11.625 47.5625,5.09375 40.234375,-1.421875 26.90625,-1.421875 q -4.59375,0 -9.359375,0.78125 -4.75,0.78125 -9.828125,2.34375 l 0,9.921875 q 4.390625,-2.390625 9.078125,-3.5625 4.6875,-1.171875 9.90625,-1.171875 8.453125,0 13.375,4.4375 4.9375,4.4375 4.9375,12.0625 0,7.609375 -4.9375,12.046875 -4.921875,4.453125 -13.375,4.453125 -3.953125,0 -7.890625,-0.875 -3.921875,-0.875 -8.015625,-2.734375 z"
                 id="DejaVuSans-35"
                 inkscape:connector-curvature="0"
                 style="stroke-linecap:butt;stroke-linejoin:round" />
            </defs>
            <g
               style="fill:#1f77b4;stroke-linecap:butt;stroke-linejoin:round"
               transform="matrix(0.16,0,0,-0.16,202.42,364.57622)"
               id="g5533">
              <use
                 xlink:href="#DejaVuSans-35"
                 id="use5535"
                 style="stroke-linecap:butt;stroke-linejoin:round"
                 x="0"
                 y="0"
                 width="100%"
                 height="100%" />
            </g>
          </g>
        </g>
        <g
           id="ytick_5"
           style="stroke-linecap:butt;stroke-linejoin:round">
          <g
             id="line2d_11"
             style="stroke-linecap:butt;stroke-linejoin:round">
            <g
               id="g5539"
               style="stroke-linecap:butt;stroke-linejoin:round">
              <use
                 style="fill:#1f77b4;stroke:#1f77b4;stroke-width:0.80000001;stroke-linecap:butt;stroke-linejoin:round"
                 x="219.60001"
                 xlink:href="#m04687eec83"
                 y="317.64554"
                 id="use5541"
                 width="100%"
                 height="100%" />
            </g>
          </g>
          <g
             id="text_12"
             style="stroke-linecap:butt;stroke-linejoin:round">
            <!-- 6 -->
            <g
               style="fill:#1f77b4;stroke-linecap:butt;stroke-linejoin:round"
               transform="matrix(0.16,0,0,-0.16,202.42,323.7243)"
               id="g5544">
              <use
                 xlink:href="#DejaVuSans-36"
                 id="use5546"
                 style="stroke-linecap:butt;stroke-linejoin:round"
                 x="0"
                 y="0"
                 width="100%"
                 height="100%" />
            </g>
          </g>
        </g>
        <g
           id="ytick_6"
           style="stroke-linecap:butt;stroke-linejoin:round">
          <g
             id="line2d_12"
             style="stroke-linecap:butt;stroke-linejoin:round">
            <g
               id="g5550"
               style="stroke-linecap:butt;stroke-linejoin:round">
              <use
                 style="fill:#1f77b4;stroke:#1f77b4;stroke-width:0.80000001;stroke-linecap:butt;stroke-linejoin:round"
                 x="219.60001"
                 xlink:href="#m04687eec83"
                 y="276.79364"
                 id="use5552"
                 width="100%"
                 height="100%" />
            </g>
          </g>
          <g
             id="text_13"
             style="stroke-linecap:butt;stroke-linejoin:round">
            <!-- 7 -->
            <defs
               id="defs5555">
              <path
                 d="m 8.203125,72.90625 46.875,0 0,-4.203125 L 28.609375,0 18.3125,0 l 24.90625,64.59375 -35.015625,0 z"
                 id="DejaVuSans-37"
                 inkscape:connector-curvature="0"
                 style="stroke-linecap:butt;stroke-linejoin:round" />
            </defs>
            <g
               style="fill:#1f77b4;stroke-linecap:butt;stroke-linejoin:round"
               transform="matrix(0.16,0,0,-0.16,202.42,282.87238)"
               id="g5558">
              <use
                 xlink:href="#DejaVuSans-37"
                 id="use5560"
                 style="stroke-linecap:butt;stroke-linejoin:round"
                 x="0"
                 y="0"
                 width="100%"
                 height="100%" />
            </g>
          </g>
        </g>
        <g
           id="ytick_7"
           style="stroke-linecap:butt;stroke-linejoin:round">
          <g
             id="line2d_13"
             style="stroke-linecap:butt;stroke-linejoin:round">
            <g
               id="g5564"
               style="stroke-linecap:butt;stroke-linejoin:round">
              <use
                 style="fill:#1f77b4;stroke:#1f77b4;stroke-width:0.80000001;stroke-linecap:butt;stroke-linejoin:round"
                 x="219.60001"
                 xlink:href="#m04687eec83"
                 y="235.94171"
                 id="use5566"
                 width="100%"
                 height="100%" />
            </g>
          </g>
          <g
             id="text_14"
             style="stroke-linecap:butt;stroke-linejoin:round">
            <!-- 8 -->
            <g
               style="fill:#1f77b4;stroke-linecap:butt;stroke-linejoin:round"
               transform="matrix(0.16,0,0,-0.16,202.42,242.02046)"
               id="g5569">
              <use
                 xlink:href="#DejaVuSans-38"
                 id="use5571"
                 style="stroke-linecap:butt;stroke-linejoin:round"
                 x="0"
                 y="0"
                 width="100%"
                 height="100%" />
            </g>
          </g>
        </g>
        <g
           id="text_15"
           style="stroke-linecap:butt;stroke-linejoin:round">
          <!-- u -->
          <defs
             id="defs5574">
            <path
               d="m 8.5,21.578125 0,33.109375 8.984375,0 0,-32.765625 q 0,-7.765625 3.015625,-11.65625 3.03125,-3.875 9.09375,-3.875 7.265625,0 11.484375,4.640625 4.234375,4.640625 4.234375,12.65625 l 0,31 8.984375,0 0,-54.6875 -8.984375,0 0,8.40625 Q 42.046875,3.421875 37.71875,1 33.40625,-1.421875 27.6875,-1.421875 18.265625,-1.421875 13.375,4.4375 8.5,10.296875 8.5,21.578125 Z M 31.109375,56 Z"
               id="DejaVuSans-75"
               inkscape:connector-curvature="0"
               style="stroke-linecap:butt;stroke-linejoin:round" />
          </defs>
          <g
             style="fill:#1f77b4;stroke-linecap:butt;stroke-linejoin:round"
             transform="matrix(0,-0.16,-0.16,0,195.0925,365.07)"
             id="g5577">
            <use
               xlink:href="#DejaVuSans-75"
               id="use5579"
               style="stroke-linecap:butt;stroke-linejoin:round"
               x="0"
               y="0"
               width="100%"
               height="100%" />
          </g>
        </g>
      </g>
      <g
         id="line2d_14"
         style="stroke-linecap:butt;stroke-linejoin:round">
        <path
           clip-path="url(#pc29964554d)"
           d="m 219.6,486.38654 333.49891,0 0.50545,2.78375 0.40437,1.20823 0.30327,0.43266 0.30327,0.0957 0.30327,-0.19028 0.40437,-0.62636 0.50545,-1.27102 0.70764,-2.48396 0.90982,-4.08367 1.21309,-6.55222 1.51636,-9.48286 1.81964,-12.87484 2.02182,-15.96525 2.32509,-20.2588 3.03272,-28.6272 4.448,-42.01326 2.02182,-16.95007 1.71855,-12.65209 1.61745,-10.3047 1.51637,-8.2883 1.51636,-7.08067 1.51637,-6.03019 1.51636,-5.14461 1.61745,-4.68382 1.61746,-4.01014 1.71854,-3.66743 1.81964,-3.34887 1.92073,-3.05714 2.02181,-2.79146 2.12291,-2.54925 2.224,-2.32767 2.42619,-2.21009 2.52727,-2.00026 2.72945,-1.87368 2.93164,-1.73744 3.13382,-1.59626 3.43709,-1.49452 3.74036,-1.37597 4.04364,-1.24763 4.448,-1.13892 4.95345,-1.03724 5.56,-0.93467 6.36873,-0.83901 7.27854,-0.72942 8.59273,-0.63011 10.31127,-0.52429 12.83855,-0.41965 16.88218,-0.31551 24.26182,-0.21201 41.95273,-0.11279 117.97309,-0.0291 0.50545,-2.49713 0.40437,-1.08002 0.30327,-0.38205 0.30327,-0.0767 0.30328,0.18301 0.40436,0.58312 0.50545,1.17389 0.70764,2.28675 0.90982,3.75274 1.21309,6.01101 1.51636,8.67958 1.81964,11.75108 2.02182,14.53928 2.224,17.62107 2.72945,23.52948 6.87418,60.33056 1.92073,14.39985 1.71855,11.30152 1.61745,9.22633 1.61745,7.9325 1.51637,6.38403 1.61745,5.84249 1.61746,5.00433 1.61745,4.31356 1.71855,3.96524 1.81963,3.63526 1.92073,3.32904 2.02182,3.04762 2.12291,2.78961 2.224,2.55277 2.32509,2.33469 2.52727,2.21628 2.62837,2.00907 2.83054,1.88233 3.03273,1.74665 3.23491,1.60645 3.53818,1.50512 3.84145,1.38779 4.14473,1.26109 4.65018,1.17718 5.15564,1.06856 5.76218,0.96081 6.46982,0.84981 7.48073,0.75249 8.69377,0.64521 10.4124,0.54263 12.8386,0.43779 16.68,0.33446 23.453,0.23116 38.6168,0.13111 97.9571,0.0425 19.5105,6.7e-4 0,0"
           style="fill:none;stroke:#1f77b4;stroke-width:1.5;stroke-linecap:square;stroke-linejoin:round"
           id="path5582"
           inkscape:connector-curvature="0" />
      </g>
      <g
         id="patch_3"
         style="stroke-linecap:butt;stroke-linejoin:round">
        <path
           d="m 219.6,504 0,-288"
           style="fill:none;stroke:#000000;stroke-width:0.80000001;stroke-linecap:square;stroke-linejoin:miter"
           id="path5585"
           inkscape:connector-curvature="0" />
      </g>
      <g
         id="patch_4"
         style="stroke-linecap:butt;stroke-linejoin:round">
        <path
           d="m 1220.4,504 0,-288"
           style="fill:none;stroke:#000000;stroke-width:0.80000001;stroke-linecap:square;stroke-linejoin:miter"
           id="path5588"
           inkscape:connector-curvature="0" />
      </g>
      <g
         id="patch_5"
         style="stroke-linecap:butt;stroke-linejoin:round">
        <path
           d="m 219.6,504 1000.8,0"
           style="fill:none;stroke:#000000;stroke-width:0.80000001;stroke-linecap:square;stroke-linejoin:miter"
           id="path5591"
           inkscape:connector-curvature="0" />
      </g>
      <g
         id="patch_6"
         style="stroke-linecap:butt;stroke-linejoin:round">
        <path
           d="m 219.6,216 1000.8,0"
           style="fill:none;stroke:#000000;stroke-width:0.80000001;stroke-linecap:square;stroke-linejoin:miter"
           id="path5594"
           inkscape:connector-curvature="0" />
      </g>
    </g>
    <g
       id="axes_2"
       style="stroke-linecap:butt;stroke-linejoin:round">
      <g
         id="matplotlib.axis_3"
         style="stroke-linecap:butt;stroke-linejoin:round">
        <g
           id="ytick_8"
           style="stroke-linecap:butt;stroke-linejoin:round">
          <g
             id="line2d_15"
             style="stroke-linecap:butt;stroke-linejoin:round">
            <defs
               id="defs5600">
              <path
                 d="M 0,0 3.5,0"
                 id="m533d2e41a7"
                 style="stroke:#ff7f0e;stroke-width:0.80000001;stroke-linecap:butt;stroke-linejoin:round"
                 inkscape:connector-curvature="0" />
            </defs>
            <g
               id="g5603"
               style="stroke-linecap:butt;stroke-linejoin:round">
              <use
                 style="fill:#ff7f0e;stroke:#ff7f0e;stroke-width:0.80000001;stroke-linecap:butt;stroke-linejoin:round"
                 x="1220.4"
                 xlink:href="#m533d2e41a7"
                 y="494.70969"
                 id="use5605"
                 width="100%"
                 height="100%" />
            </g>
          </g>
          <g
             id="text_16"
             style="stroke-linecap:butt;stroke-linejoin:round">
            <!-- −10 -->
            <defs
               id="defs5608">
              <path
                 d="m 10.59375,35.5 62.59375,0 0,-8.296875 -62.59375,0 z"
                 id="DejaVuSans-2212"
                 inkscape:connector-curvature="0"
                 style="stroke-linecap:butt;stroke-linejoin:round" />
            </defs>
            <g
               style="fill:#ff7f0e;stroke-linecap:butt;stroke-linejoin:round"
               transform="matrix(0.16,0,0,-0.16,1227.4,500.78843)"
               id="g5611">
              <use
                 xlink:href="#DejaVuSans-2212"
                 id="use5613"
                 style="stroke-linecap:butt;stroke-linejoin:round"
                 x="0"
                 y="0"
                 width="100%"
                 height="100%" />
              <use
                 x="83.789062"
                 xlink:href="#DejaVuSans-31"
                 id="use5615"
                 style="stroke-linecap:butt;stroke-linejoin:round"
                 y="0"
                 width="100%"
                 height="100%" />
              <use
                 x="147.41211"
                 xlink:href="#DejaVuSans-30"
                 id="use5617"
                 style="stroke-linecap:butt;stroke-linejoin:round"
                 y="0"
                 width="100%"
                 height="100%" />
            </g>
          </g>
        </g>
        <g
           id="ytick_9"
           style="stroke-linecap:butt;stroke-linejoin:round">
          <g
             id="line2d_16"
             style="stroke-linecap:butt;stroke-linejoin:round">
            <g
               id="g5621"
               style="stroke-linecap:butt;stroke-linejoin:round">
              <use
                 style="fill:#ff7f0e;stroke:#ff7f0e;stroke-width:0.80000001;stroke-linecap:butt;stroke-linejoin:round"
                 x="1220.4"
                 xlink:href="#m533d2e41a7"
                 y="448.25806"
                 id="use5623"
                 width="100%"
                 height="100%" />
            </g>
          </g>
          <g
             id="text_17"
             style="stroke-linecap:butt;stroke-linejoin:round">
            <!-- 0 -->
            <g
               style="fill:#ff7f0e;stroke-linecap:butt;stroke-linejoin:round"
               transform="matrix(0.16,0,0,-0.16,1227.4,454.33681)"
               id="g5626">
              <use
                 xlink:href="#DejaVuSans-30"
                 id="use5628"
                 style="stroke-linecap:butt;stroke-linejoin:round"
                 x="0"
                 y="0"
                 width="100%"
                 height="100%" />
            </g>
          </g>
        </g>
        <g
           id="ytick_10"
           style="stroke-linecap:butt;stroke-linejoin:round">
          <g
             id="line2d_17"
             style="stroke-linecap:butt;stroke-linejoin:round">
            <g
               id="g5632"
               style="stroke-linecap:butt;stroke-linejoin:round">
              <use
                 style="fill:#ff7f0e;stroke:#ff7f0e;stroke-width:0.80000001;stroke-linecap:butt;stroke-linejoin:round"
                 x="1220.4"
                 xlink:href="#m533d2e41a7"
                 y="401.80646"
                 id="use5634"
                 width="100%"
                 height="100%" />
            </g>
          </g>
          <g
             id="text_18"
             style="stroke-linecap:butt;stroke-linejoin:round">
            <!-- 10 -->
            <g
               style="fill:#ff7f0e;stroke-linecap:butt;stroke-linejoin:round"
               transform="matrix(0.16,0,0,-0.16,1227.4,407.8852)"
               id="g5637">
              <use
                 xlink:href="#DejaVuSans-31"
                 id="use5639"
                 style="stroke-linecap:butt;stroke-linejoin:round"
                 x="0"
                 y="0"
                 width="100%"
                 height="100%" />
              <use
                 x="63.623047"
                 xlink:href="#DejaVuSans-30"
                 id="use5641"
                 style="stroke-linecap:butt;stroke-linejoin:round"
                 y="0"
                 width="100%"
                 height="100%" />
            </g>
          </g>
        </g>
        <g
           id="ytick_11"
           style="stroke-linecap:butt;stroke-linejoin:round">
          <g
             id="line2d_18"
             style="stroke-linecap:butt;stroke-linejoin:round">
            <g
               id="g5645"
               style="stroke-linecap:butt;stroke-linejoin:round">
              <use
                 style="fill:#ff7f0e;stroke:#ff7f0e;stroke-width:0.80000001;stroke-linecap:butt;stroke-linejoin:round"
                 x="1220.4"
                 xlink:href="#m533d2e41a7"
                 y="355.35483"
                 id="use5647"
                 width="100%"
                 height="100%" />
            </g>
          </g>
          <g
             id="text_19"
             style="stroke-linecap:butt;stroke-linejoin:round">
            <!-- 20 -->
            <g
               style="fill:#ff7f0e;stroke-linecap:butt;stroke-linejoin:round"
               transform="matrix(0.16,0,0,-0.16,1227.4,361.43359)"
               id="g5650">
              <use
                 xlink:href="#DejaVuSans-32"
                 id="use5652"
                 style="stroke-linecap:butt;stroke-linejoin:round"
                 x="0"
                 y="0"
                 width="100%"
                 height="100%" />
              <use
                 x="63.623047"
                 xlink:href="#DejaVuSans-30"
                 id="use5654"
                 style="stroke-linecap:butt;stroke-linejoin:round"
                 y="0"
                 width="100%"
                 height="100%" />
            </g>
          </g>
        </g>
        <g
           id="ytick_12"
           style="stroke-linecap:butt;stroke-linejoin:round">
          <g
             id="line2d_19"
             style="stroke-linecap:butt;stroke-linejoin:round">
            <g
               id="g5658"
               style="stroke-linecap:butt;stroke-linejoin:round">
              <use
                 style="fill:#ff7f0e;stroke:#ff7f0e;stroke-width:0.80000001;stroke-linecap:butt;stroke-linejoin:round"
                 x="1220.4"
                 xlink:href="#m533d2e41a7"
                 y="308.90323"
                 id="use5660"
                 width="100%"
                 height="100%" />
            </g>
          </g>
          <g
             id="text_20"
             style="stroke-linecap:butt;stroke-linejoin:round">
            <!-- 30 -->
            <g
               style="fill:#ff7f0e;stroke-linecap:butt;stroke-linejoin:round"
               transform="matrix(0.16,0,0,-0.16,1227.4,314.98198)"
               id="g5663">
              <use
                 xlink:href="#DejaVuSans-33"
                 id="use5665"
                 style="stroke-linecap:butt;stroke-linejoin:round"
                 x="0"
                 y="0"
                 width="100%"
                 height="100%" />
              <use
                 x="63.623047"
                 xlink:href="#DejaVuSans-30"
                 id="use5667"
                 style="stroke-linecap:butt;stroke-linejoin:round"
                 y="0"
                 width="100%"
                 height="100%" />
            </g>
          </g>
        </g>
        <g
           id="ytick_13"
           style="stroke-linecap:butt;stroke-linejoin:round">
          <g
             id="line2d_20"
             style="stroke-linecap:butt;stroke-linejoin:round">
            <g
               id="g5671"
               style="stroke-linecap:butt;stroke-linejoin:round">
              <use
                 style="fill:#ff7f0e;stroke:#ff7f0e;stroke-width:0.80000001;stroke-linecap:butt;stroke-linejoin:round"
                 x="1220.4"
                 xlink:href="#m533d2e41a7"
                 y="262.4516"
                 id="use5673"
                 width="100%"
                 height="100%" />
            </g>
          </g>
          <g
             id="text_21"
             style="stroke-linecap:butt;stroke-linejoin:round">
            <!-- 40 -->
            <g
               style="fill:#ff7f0e;stroke-linecap:butt;stroke-linejoin:round"
               transform="matrix(0.16,0,0,-0.16,1227.4,268.53036)"
               id="g5676">
              <use
                 xlink:href="#DejaVuSans-34"
                 id="use5678"
                 style="stroke-linecap:butt;stroke-linejoin:round"
                 x="0"
                 y="0"
                 width="100%"
                 height="100%" />
              <use
                 x="63.623047"
                 xlink:href="#DejaVuSans-30"
                 id="use5680"
                 style="stroke-linecap:butt;stroke-linejoin:round"
                 y="0"
                 width="100%"
                 height="100%" />
            </g>
          </g>
        </g>
        <g
           id="ytick_14"
           style="stroke-linecap:butt;stroke-linejoin:round">
          <g
             id="line2d_21"
             style="stroke-linecap:butt;stroke-linejoin:round">
            <g
               id="g5684"
               style="stroke-linecap:butt;stroke-linejoin:round">
              <use
                 style="fill:#ff7f0e;stroke:#ff7f0e;stroke-width:0.80000001;stroke-linecap:butt;stroke-linejoin:round"
                 x="1220.4"
                 xlink:href="#m533d2e41a7"
                 y="216"
                 id="use5686"
                 width="100%"
                 height="100%" />
            </g>
          </g>
          <g
             id="text_22"
             style="stroke-linecap:butt;stroke-linejoin:round">
            <!-- 50 -->
            <g
               style="fill:#ff7f0e;stroke-linecap:butt;stroke-linejoin:round"
               transform="matrix(0.16,0,0,-0.16,1227.4,222.07875)"
               id="g5689">
              <use
                 xlink:href="#DejaVuSans-35"
                 id="use5691"
                 style="stroke-linecap:butt;stroke-linejoin:round"
                 x="0"
                 y="0"
                 width="100%"
                 height="100%" />
              <use
                 x="63.623047"
                 xlink:href="#DejaVuSans-30"
                 id="use5693"
                 style="stroke-linecap:butt;stroke-linejoin:round"
                 y="0"
                 width="100%"
                 height="100%" />
            </g>
          </g>
        </g>
        <g
           id="text_23"
           style="stroke-linecap:butt;stroke-linejoin:round">
          <!-- I -->
          <defs
             id="defs5696">
            <path
               d="m 9.8125,72.90625 9.859375,0 L 19.671875,0 9.8125,0 Z"
               id="DejaVuSans-49"
               inkscape:connector-curvature="0"
               style="stroke-linecap:butt;stroke-linejoin:round" />
          </defs>
          <g
             style="fill:#ff7f0e;stroke-linecap:butt;stroke-linejoin:round"
             transform="matrix(0,-0.16,-0.16,0,1277.325,362.36)"
             id="g5699">
            <use
               xlink:href="#DejaVuSans-49"
               id="use5701"
               style="stroke-linecap:butt;stroke-linejoin:round"
               x="0"
               y="0"
               width="100%"
               height="100%" />
          </g>
        </g>
      </g>
      <g
         id="line2d_22"
         style="stroke-linecap:butt;stroke-linejoin:round">
        <path
           clip-path="url(#pc29964554d)"
           d="m 219.6,494.70968 330.06182,0 0.20218,-92.90323 330.06182,0 0.20218,92.90323 340.1709,0 0,0"
           style="fill:none;stroke:#ff7f0e;stroke-width:1.5;stroke-linecap:square;stroke-linejoin:round"
           id="path5704"
           inkscape:connector-curvature="0" />
      </g>
      <g
         id="patch_7"
         style="stroke-linecap:butt;stroke-linejoin:round">
        <path
           d="m 219.6,504 0,-288"
           style="fill:none;stroke:#000000;stroke-width:0.80000001;stroke-linecap:square;stroke-linejoin:miter"
           id="path5707"
           inkscape:connector-curvature="0" />
      </g>
      <g
         id="patch_8"
         style="stroke-linecap:butt;stroke-linejoin:round">
        <path
           d="m 1220.4,504 0,-288"
           style="fill:none;stroke:#000000;stroke-width:0.80000001;stroke-linecap:square;stroke-linejoin:miter"
           id="path5710"
           inkscape:connector-curvature="0" />
      </g>
      <g
         id="patch_9"
         style="stroke-linecap:butt;stroke-linejoin:round">
        <path
           d="m 219.6,504 1000.8,0"
           style="fill:none;stroke:#000000;stroke-width:0.80000001;stroke-linecap:square;stroke-linejoin:miter"
           id="path5713"
           inkscape:connector-curvature="0" />
      </g>
      <g
         id="patch_10"
         style="stroke-linecap:butt;stroke-linejoin:round">
        <path
           d="m 219.6,216 1000.8,0"
           style="fill:none;stroke:#000000;stroke-width:0.80000001;stroke-linecap:square;stroke-linejoin:miter"
           id="path5716"
           inkscape:connector-curvature="0" />
      </g>
    </g>
  </g>
  <defs
     id="defs5718">
    <clipPath
       id="pc29964554d">
      <rect
         height="288"
         width="1000.8"
         x="219.6"
         y="216"
         id="rect5721" />
    </clipPath>
  </defs>
</svg>
