<?xml version="1.0" encoding="utf-8" standalone="no"?>
<!DOCTYPE svg PUBLIC "-//W3C//DTD SVG 1.1//EN"
  "http://www.w3.org/Graphics/SVG/1.1/DTD/svg11.dtd">
<!-- Created with matplotlib (http://matplotlib.org/) -->
<svg height="720pt" version="1.1" viewBox="0 0 720 720" width="720pt" xmlns="http://www.w3.org/2000/svg" xmlns:xlink="http://www.w3.org/1999/xlink">
 <defs>
  <style type="text/css">
*{stroke-linecap:butt;stroke-linejoin:round;}
  </style>
 </defs>
 <g id="figure_1">
  <g id="patch_1">
   <path d="M 0 720 
L 720 720 
L 720 0 
L 0 0 
z
" style="fill:#ffffff;"/>
  </g>
  <g id="axes_1">
   <g id="patch_2">
    <path d="M 127.584 528.12 
L 592.416 528.12 
L 592.416 191.88 
L 127.584 191.88 
z
" style="fill:#ffffff;"/>
   </g>
   <g id="matplotlib.axis_1">
    <g id="xtick_1">
     <g id="line2d_1">
      <defs>
       <path d="M 0 0 
L 0 3.5 
" id="mc30e75fa2f" style="stroke:#000000;stroke-width:0.8;"/>
      </defs>
      <g>
       <use style="stroke:#000000;stroke-width:0.8;" x="127.584" xlink:href="#mc30e75fa2f" y="528.12"/>
      </g>
     </g>
     <g id="text_1">
      <!-- −1 -->
      <defs>
       <path d="M 10.59375 35.5 
L 73.1875 35.5 
L 73.1875 27.203125 
L 10.59375 27.203125 
z
" id="DejaVuSans-2212"/>
       <path d="M 12.40625 8.296875 
L 28.515625 8.296875 
L 28.515625 63.921875 
L 10.984375 60.40625 
L 10.984375 69.390625 
L 28.421875 72.90625 
L 38.28125 72.90625 
L 38.28125 8.296875 
L 54.390625 8.296875 
L 54.390625 0 
L 12.40625 0 
z
" id="DejaVuSans-31"/>
      </defs>
      <g transform="translate(115.79025 547.2775)scale(0.16 -0.16)">
       <use xlink:href="#DejaVuSans-2212"/>
       <use x="83.789062" xlink:href="#DejaVuSans-31"/>
      </g>
     </g>
    </g>
    <g id="xtick_2">
     <g id="line2d_2">
      <g>
       <use style="stroke:#000000;stroke-width:0.8;" x="220.5504" xlink:href="#mc30e75fa2f" y="528.12"/>
      </g>
     </g>
     <g id="text_2">
      <!-- 0 -->
      <defs>
       <path d="M 31.78125 66.40625 
Q 24.171875 66.40625 20.328125 58.90625 
Q 16.5 51.421875 16.5 36.375 
Q 16.5 21.390625 20.328125 13.890625 
Q 24.171875 6.390625 31.78125 6.390625 
Q 39.453125 6.390625 43.28125 13.890625 
Q 47.125 21.390625 47.125 36.375 
Q 47.125 51.421875 43.28125 58.90625 
Q 39.453125 66.40625 31.78125 66.40625 
z
M 31.78125 74.21875 
Q 44.046875 74.21875 50.515625 64.515625 
Q 56.984375 54.828125 56.984375 36.375 
Q 56.984375 17.96875 50.515625 8.265625 
Q 44.046875 -1.421875 31.78125 -1.421875 
Q 19.53125 -1.421875 13.0625 8.265625 
Q 6.59375 17.96875 6.59375 36.375 
Q 6.59375 54.828125 13.0625 64.515625 
Q 19.53125 74.21875 31.78125 74.21875 
z
" id="DejaVuSans-30"/>
      </defs>
      <g transform="translate(215.4604 547.2775)scale(0.16 -0.16)">
       <use xlink:href="#DejaVuSans-30"/>
      </g>
     </g>
    </g>
    <g id="xtick_3">
     <g id="line2d_3">
      <g>
       <use style="stroke:#000000;stroke-width:0.8;" x="313.5168" xlink:href="#mc30e75fa2f" y="528.12"/>
      </g>
     </g>
     <g id="text_3">
      <!-- 1 -->
      <g transform="translate(308.4268 547.2775)scale(0.16 -0.16)">
       <use xlink:href="#DejaVuSans-31"/>
      </g>
     </g>
    </g>
    <g id="xtick_4">
     <g id="line2d_4">
      <g>
       <use style="stroke:#000000;stroke-width:0.8;" x="406.4832" xlink:href="#mc30e75fa2f" y="528.12"/>
      </g>
     </g>
     <g id="text_4">
      <!-- 2 -->
      <defs>
       <path d="M 19.1875 8.296875 
L 53.609375 8.296875 
L 53.609375 0 
L 7.328125 0 
L 7.328125 8.296875 
Q 12.9375 14.109375 22.625 23.890625 
Q 32.328125 33.6875 34.8125 36.53125 
Q 39.546875 41.84375 41.421875 45.53125 
Q 43.3125 49.21875 43.3125 52.78125 
Q 43.3125 58.59375 39.234375 62.25 
Q 35.15625 65.921875 28.609375 65.921875 
Q 23.96875 65.921875 18.8125 64.3125 
Q 13.671875 62.703125 7.8125 59.421875 
L 7.8125 69.390625 
Q 13.765625 71.78125 18.9375 73 
Q 24.125 74.21875 28.421875 74.21875 
Q 39.75 74.21875 46.484375 68.546875 
Q 53.21875 62.890625 53.21875 53.421875 
Q 53.21875 48.921875 51.53125 44.890625 
Q 49.859375 40.875 45.40625 35.40625 
Q 44.1875 33.984375 37.640625 27.21875 
Q 31.109375 20.453125 19.1875 8.296875 
z
" id="DejaVuSans-32"/>
      </defs>
      <g transform="translate(401.3932 547.2775)scale(0.16 -0.16)">
       <use xlink:href="#DejaVuSans-32"/>
      </g>
     </g>
    </g>
    <g id="xtick_5">
     <g id="line2d_5">
      <g>
       <use style="stroke:#000000;stroke-width:0.8;" x="499.4496" xlink:href="#mc30e75fa2f" y="528.12"/>
      </g>
     </g>
     <g id="text_5">
      <!-- 3 -->
      <defs>
       <path d="M 40.578125 39.3125 
Q 47.65625 37.796875 51.625 33 
Q 55.609375 28.21875 55.609375 21.1875 
Q 55.609375 10.40625 48.1875 4.484375 
Q 40.765625 -1.421875 27.09375 -1.421875 
Q 22.515625 -1.421875 17.65625 -0.515625 
Q 12.796875 0.390625 7.625 2.203125 
L 7.625 11.71875 
Q 11.71875 9.328125 16.59375 8.109375 
Q 21.484375 6.890625 26.8125 6.890625 
Q 36.078125 6.890625 40.9375 10.546875 
Q 45.796875 14.203125 45.796875 21.1875 
Q 45.796875 27.640625 41.28125 31.265625 
Q 36.765625 34.90625 28.71875 34.90625 
L 20.21875 34.90625 
L 20.21875 43.015625 
L 29.109375 43.015625 
Q 36.375 43.015625 40.234375 45.921875 
Q 44.09375 48.828125 44.09375 54.296875 
Q 44.09375 59.90625 40.109375 62.90625 
Q 36.140625 65.921875 28.71875 65.921875 
Q 24.65625 65.921875 20.015625 65.03125 
Q 15.375 64.15625 9.8125 62.3125 
L 9.8125 71.09375 
Q 15.4375 72.65625 20.34375 73.4375 
Q 25.25 74.21875 29.59375 74.21875 
Q 40.828125 74.21875 47.359375 69.109375 
Q 53.90625 64.015625 53.90625 55.328125 
Q 53.90625 49.265625 50.4375 45.09375 
Q 46.96875 40.921875 40.578125 39.3125 
z
" id="DejaVuSans-33"/>
      </defs>
      <g transform="translate(494.3596 547.2775)scale(0.16 -0.16)">
       <use xlink:href="#DejaVuSans-33"/>
      </g>
     </g>
    </g>
    <g id="xtick_6">
     <g id="line2d_6">
      <g>
       <use style="stroke:#000000;stroke-width:0.8;" x="592.416" xlink:href="#mc30e75fa2f" y="528.12"/>
      </g>
     </g>
     <g id="text_6">
      <!-- 4 -->
      <defs>
       <path d="M 37.796875 64.3125 
L 12.890625 25.390625 
L 37.796875 25.390625 
z
M 35.203125 72.90625 
L 47.609375 72.90625 
L 47.609375 25.390625 
L 58.015625 25.390625 
L 58.015625 17.1875 
L 47.609375 17.1875 
L 47.609375 0 
L 37.796875 0 
L 37.796875 17.1875 
L 4.890625 17.1875 
L 4.890625 26.703125 
z
" id="DejaVuSans-34"/>
      </defs>
      <g transform="translate(587.326 547.2775)scale(0.16 -0.16)">
       <use xlink:href="#DejaVuSans-34"/>
      </g>
     </g>
    </g>
    <g id="text_7">
     <!-- x -->
     <defs>
      <path d="M 54.890625 54.6875 
L 35.109375 28.078125 
L 55.90625 0 
L 45.3125 0 
L 29.390625 21.484375 
L 13.484375 0 
L 2.875 0 
L 24.125 28.609375 
L 4.6875 54.6875 
L 15.28125 54.6875 
L 29.78125 35.203125 
L 44.28125 54.6875 
z
" id="DejaVuSans-78"/>
     </defs>
     <g transform="translate(355.265 566.7625)scale(0.16 -0.16)">
      <use xlink:href="#DejaVuSans-78"/>
     </g>
    </g>
   </g>
   <g id="matplotlib.axis_2">
    <g id="ytick_1">
     <g id="line2d_7">
      <defs>
       <path d="M 0 0 
L -3.5 0 
" id="m2b6d4be6ca" style="stroke:#000000;stroke-width:0.8;"/>
      </defs>
      <g>
       <use style="stroke:#000000;stroke-width:0.8;" x="127.584" xlink:href="#m2b6d4be6ca" y="508.341176"/>
      </g>
     </g>
     <g id="text_8">
      <!-- 0.5 -->
      <defs>
       <path d="M 10.6875 12.40625 
L 21 12.40625 
L 21 0 
L 10.6875 0 
z
" id="DejaVuSans-2e"/>
       <path d="M 10.796875 72.90625 
L 49.515625 72.90625 
L 49.515625 64.59375 
L 19.828125 64.59375 
L 19.828125 46.734375 
Q 21.96875 47.46875 24.109375 47.828125 
Q 26.265625 48.1875 28.421875 48.1875 
Q 40.625 48.1875 47.75 41.5 
Q 54.890625 34.8125 54.890625 23.390625 
Q 54.890625 11.625 47.5625 5.09375 
Q 40.234375 -1.421875 26.90625 -1.421875 
Q 22.3125 -1.421875 17.546875 -0.640625 
Q 12.796875 0.140625 7.71875 1.703125 
L 7.71875 11.625 
Q 12.109375 9.234375 16.796875 8.0625 
Q 21.484375 6.890625 26.703125 6.890625 
Q 35.15625 6.890625 40.078125 11.328125 
Q 45.015625 15.765625 45.015625 23.390625 
Q 45.015625 31 40.078125 35.4375 
Q 35.15625 39.890625 26.703125 39.890625 
Q 22.75 39.890625 18.8125 39.015625 
Q 14.890625 38.140625 10.796875 36.28125 
z
" id="DejaVuSans-35"/>
      </defs>
      <g transform="translate(95.139 514.419926)scale(0.16 -0.16)">
       <use xlink:href="#DejaVuSans-30"/>
       <use x="63.623047" xlink:href="#DejaVuSans-2e"/>
       <use x="95.410156" xlink:href="#DejaVuSans-35"/>
      </g>
     </g>
    </g>
    <g id="ytick_2">
     <g id="line2d_8">
      <g>
       <use style="stroke:#000000;stroke-width:0.8;" x="127.584" xlink:href="#m2b6d4be6ca" y="468.783529"/>
      </g>
     </g>
     <g id="text_9">
      <!-- 1.0 -->
      <g transform="translate(95.139 474.862279)scale(0.16 -0.16)">
       <use xlink:href="#DejaVuSans-31"/>
       <use x="63.623047" xlink:href="#DejaVuSans-2e"/>
       <use x="95.410156" xlink:href="#DejaVuSans-30"/>
      </g>
     </g>
    </g>
    <g id="ytick_3">
     <g id="line2d_9">
      <g>
       <use style="stroke:#000000;stroke-width:0.8;" x="127.584" xlink:href="#m2b6d4be6ca" y="429.225882"/>
      </g>
     </g>
     <g id="text_10">
      <!-- 1.5 -->
      <g transform="translate(95.139 435.304632)scale(0.16 -0.16)">
       <use xlink:href="#DejaVuSans-31"/>
       <use x="63.623047" xlink:href="#DejaVuSans-2e"/>
       <use x="95.410156" xlink:href="#DejaVuSans-35"/>
      </g>
     </g>
    </g>
    <g id="ytick_4">
     <g id="line2d_10">
      <g>
       <use style="stroke:#000000;stroke-width:0.8;" x="127.584" xlink:href="#m2b6d4be6ca" y="389.668235"/>
      </g>
     </g>
     <g id="text_11">
      <!-- 2.0 -->
      <g transform="translate(95.139 395.746985)scale(0.16 -0.16)">
       <use xlink:href="#DejaVuSans-32"/>
       <use x="63.623047" xlink:href="#DejaVuSans-2e"/>
       <use x="95.410156" xlink:href="#DejaVuSans-30"/>
      </g>
     </g>
    </g>
    <g id="ytick_5">
     <g id="line2d_11">
      <g>
       <use style="stroke:#000000;stroke-width:0.8;" x="127.584" xlink:href="#m2b6d4be6ca" y="350.110588"/>
      </g>
     </g>
     <g id="text_12">
      <!-- 2.5 -->
      <g transform="translate(95.139 356.189338)scale(0.16 -0.16)">
       <use xlink:href="#DejaVuSans-32"/>
       <use x="63.623047" xlink:href="#DejaVuSans-2e"/>
       <use x="95.410156" xlink:href="#DejaVuSans-35"/>
      </g>
     </g>
    </g>
    <g id="ytick_6">
     <g id="line2d_12">
      <g>
       <use style="stroke:#000000;stroke-width:0.8;" x="127.584" xlink:href="#m2b6d4be6ca" y="310.552941"/>
      </g>
     </g>
     <g id="text_13">
      <!-- 3.0 -->
      <g transform="translate(95.139 316.631691)scale(0.16 -0.16)">
       <use xlink:href="#DejaVuSans-33"/>
       <use x="63.623047" xlink:href="#DejaVuSans-2e"/>
       <use x="95.410156" xlink:href="#DejaVuSans-30"/>
      </g>
     </g>
    </g>
    <g id="ytick_7">
     <g id="line2d_13">
      <g>
       <use style="stroke:#000000;stroke-width:0.8;" x="127.584" xlink:href="#m2b6d4be6ca" y="270.995294"/>
      </g>
     </g>
     <g id="text_14">
      <!-- 3.5 -->
      <g transform="translate(95.139 277.074044)scale(0.16 -0.16)">
       <use xlink:href="#DejaVuSans-33"/>
       <use x="63.623047" xlink:href="#DejaVuSans-2e"/>
       <use x="95.410156" xlink:href="#DejaVuSans-35"/>
      </g>
     </g>
    </g>
    <g id="ytick_8">
     <g id="line2d_14">
      <g>
       <use style="stroke:#000000;stroke-width:0.8;" x="127.584" xlink:href="#m2b6d4be6ca" y="231.437647"/>
      </g>
     </g>
     <g id="text_15">
      <!-- 4.0 -->
      <g transform="translate(95.139 237.516397)scale(0.16 -0.16)">
       <use xlink:href="#DejaVuSans-34"/>
       <use x="63.623047" xlink:href="#DejaVuSans-2e"/>
       <use x="95.410156" xlink:href="#DejaVuSans-30"/>
      </g>
     </g>
    </g>
    <g id="ytick_9">
     <g id="line2d_15">
      <g>
       <use style="stroke:#000000;stroke-width:0.8;" x="127.584" xlink:href="#m2b6d4be6ca" y="191.88"/>
      </g>
     </g>
     <g id="text_16">
      <!-- 4.5 -->
      <g transform="translate(95.139 197.95875)scale(0.16 -0.16)">
       <use xlink:href="#DejaVuSans-34"/>
       <use x="63.623047" xlink:href="#DejaVuSans-2e"/>
       <use x="95.410156" xlink:href="#DejaVuSans-35"/>
      </g>
     </g>
    </g>
    <g id="text_17">
     <!-- y -->
     <defs>
      <path d="M 32.171875 -5.078125 
Q 28.375 -14.84375 24.75 -17.8125 
Q 21.140625 -20.796875 15.09375 -20.796875 
L 7.90625 -20.796875 
L 7.90625 -13.28125 
L 13.1875 -13.28125 
Q 16.890625 -13.28125 18.9375 -11.515625 
Q 21 -9.765625 23.484375 -3.21875 
L 25.09375 0.875 
L 2.984375 54.6875 
L 12.5 54.6875 
L 29.59375 11.921875 
L 46.6875 54.6875 
L 56.203125 54.6875 
z
" id="DejaVuSans-79"/>
     </defs>
     <g transform="translate(87.8115 364.735)rotate(-90)scale(0.16 -0.16)">
      <use xlink:href="#DejaVuSans-79"/>
     </g>
    </g>
   </g>
   <g id="line2d_16">
    <path clip-path="url(#p47b34118da)" d="M 127.193463 439.599952 
L 138.258678 446.215862 
L 149.323892 452.568557 
L 159.738212 458.286553 
L 169.501637 463.398722 
L 179.265061 468.252114 
L 188.377591 472.531716 
L 196.839226 476.274741 
L 205.30086 479.781426 
L 213.762495 483.037516 
L 221.573235 485.807896 
L 229.383975 488.340023 
L 236.543819 490.441186 
L 243.703664 492.32178 
L 250.863509 493.97168 
L 258.023354 495.380546 
L 264.532304 496.443316 
L 271.041253 497.290165 
L 277.550203 497.912987 
L 284.059153 498.303623 
L 290.568103 498.453887 
L 296.426158 498.376845 
L 302.284212 498.092543 
L 308.142267 497.595098 
L 314.000322 496.878709 
L 319.858377 495.937677 
L 325.716432 494.766442 
L 331.574486 493.359607 
L 337.432541 491.711981 
L 343.290596 489.818604 
L 349.148651 487.674793 
L 355.006706 485.276175 
L 360.86476 482.61873 
L 366.722815 479.698832 
L 372.58087 476.513291 
L 378.438925 473.059397 
L 384.29698 469.334962 
L 390.155035 465.338365 
L 396.013089 461.068596 
L 401.871144 456.525297 
L 407.729199 451.708802 
L 413.587254 446.62018 
L 419.445309 441.26127 
L 425.954258 434.993165 
L 432.463208 428.399494 
L 438.972158 421.486414 
L 445.481108 414.261439 
L 452.640953 405.964386 
L 459.800797 397.314529 
L 466.960642 388.327721 
L 474.771382 378.160713 
L 482.582122 367.639969 
L 491.043756 355.876626 
L 500.156286 342.827606 
L 510.570606 327.4989 
L 522.286715 309.828582 
L 536.606405 287.806296 
L 580.867263 219.432509 
L 592.583373 201.928704 
L 592.583373 201.928704 
" style="fill:none;stroke:#8fbbda;stroke-linecap:square;stroke-width:1.5;"/>
   </g>
   <g id="line2d_17">
    <path clip-path="url(#p47b34118da)" d="M 127.193463 500.429647 
L 370.628185 500.32253 
L 388.20235 500.096661 
L 399.267564 499.749595 
L 407.078304 499.303929 
L 413.587254 498.716415 
L 418.794414 498.032439 
L 423.350678 497.213479 
L 427.256048 496.292332 
L 430.510523 495.326358 
L 433.764998 494.135148 
L 436.368578 492.98521 
L 438.972158 491.625581 
L 441.575738 490.018178 
L 444.179318 488.118066 
L 446.782898 485.872246 
L 448.735583 483.923829 
L 450.688268 481.71566 
L 452.640953 479.213404 
L 454.593637 476.378272 
L 456.546322 473.166467 
L 458.499007 469.528565 
L 460.451692 465.408837 
L 462.404377 460.744489 
L 464.357062 455.464835 
L 466.309747 449.490384 
L 468.262432 442.731853 
L 470.215117 435.089088 
L 472.167802 426.449919 
L 474.120487 416.688932 
L 476.073172 405.666185 
L 478.025857 393.225874 
L 479.978542 379.19499 
L 481.931227 363.381979 
L 483.883912 345.575476 
L 485.836596 325.543159 
L 487.789281 303.030809 
L 489.741966 277.761681 
L 491.694651 249.436295 
L 493.647336 217.732811 
L 495.600021 182.308147 
L 497.552706 142.800041 
L 499.505391 98.830275 
L 501.458076 50.009275 
L 503.303929 -1 
L 503.303929 -1 
" style="fill:none;stroke:#ffb280;stroke-linecap:square;stroke-width:1.5;"/>
   </g>
   <g id="line2d_18">
    <path clip-path="url(#p47b34118da)" d="M 403.869472 500.18365 
L 419.632422 499.876415 
L 430.084059 499.477203 
L 438.632705 498.938063 
L 445.244301 498.313289 
L 451.369077 497.495796 
L 455.703356 496.727005 
L 460.247085 495.696628 
L 463.794888 494.689712 
L 467.462688 493.414743 
L 471.24796 491.789483 
L 473.834014 490.458847 
L 476.466943 488.884196 
L 479.142803 487.016851 
L 481.856271 484.798728 
L 484.600354 482.161051 
L 487.366052 479.02327 
L 490.141987 475.292417 
L 492.914011 470.863293 
L 494.293281 468.350998 
L 495.664816 465.619988 
L 497.025901 462.65466 
L 498.373586 459.43931 
L 499.704678 455.958375 
L 501.015745 452.196748 
L 502.303112 448.140122 
L 503.562875 443.775392 
L 504.790906 439.09109 
L 505.982877 434.077858 
L 507.134278 428.728931 
L 508.240454 423.040627 
L 509.296635 417.012814 
L 511.239627 403.95842 
L 512.924595 389.650451 
L 514.3143 374.250052 
L 515.37484 357.995166 
L 516.077538 341.192883 
L 516.400641 324.204154 
L 516.330641 307.422318 
L 515.863077 291.247587 
L 515.48135 283.508166 
L 515.002734 276.06001 
L 514.429204 268.943223 
L 513.763223 262.193615 
L 513.007701 255.842153 
L 512.165947 249.914537 
L 511.241604 244.43092 
L 510.238597 239.405763 
L 509.161067 234.847857 
L 508.013311 230.760475 
L 506.799718 227.141672 
L 505.524714 223.984694 
L 504.19271 221.278491 
L 502.80805 219.008284 
L 501.374973 217.156189 
L 499.897575 215.701846 
L 498.379781 214.623036 
L 496.825328 213.896268 
L 495.237741 213.497322 
L 493.620329 213.401726 
L 491.97618 213.585166 
L 490.308157 214.023835 
L 488.618906 214.694708 
L 486.910859 215.575751 
L 485.186243 216.646077 
L 483.447091 217.886049 
L 479.932407 220.802947 
L 476.379629 224.195709 
L 472.799234 227.954144 
L 467.395032 234.082359 
L 461.969696 240.591628 
L 452.922558 251.839235 
L 433.190223 276.475884 
L 422.606349 289.262988 
L 413.913132 299.447614 
L 405.351669 309.184258 
L 395.272519 320.278598 
L 385.428781 330.747228 
L 375.843879 340.616726 
L 365.017783 351.413816 
L 354.605067 361.484559 
L 343.244959 372.165106 
L 331.19017 383.2036 
L 316.358974 396.458869 
L 296.816514 413.585661 
L 272.638876 434.79427 
L 261.921488 444.498848 
L 254.170834 451.805736 
L 248.18592 457.733207 
L 243.237687 462.938094 
L 239.204657 467.508483 
L 236.195968 471.231191 
L 233.788277 474.532938 
L 231.906613 477.461325 
L 230.483157 480.058571 
L 229.457019 482.362122 
L 228.773873 484.405189 
L 228.385503 486.217226 
L 228.249312 487.824359 
L 228.342987 489.361 
L 228.647134 490.710318 
L 229.168958 491.980066 
L 229.909224 493.157024 
L 230.861708 494.232325 
L 232.014148 495.201182 
L 233.503417 496.148939 
L 235.251383 496.994295 
L 237.398147 497.780809 
L 239.992983 498.486859 
L 243.132178 499.101041 
L 246.926758 499.607515 
L 251.586225 499.996123 
L 257.558712 500.260262 
L 266.190497 500.398924 
L 286.461549 500.429202 
L 388.265723 500.318555 
L 410.620992 500.081957 
L 423.896335 499.739593 
L 433.363914 499.29888 
L 441.375522 498.705642 
L 447.211998 498.079792 
L 452.406676 497.328086 
L 456.791449 496.503366 
L 461.386995 495.394615 
L 464.973915 494.308237 
L 468.680312 492.929588 
L 471.216036 491.804708 
L 473.801486 490.476842 
L 476.433853 488.905513 
L 479.109207 487.042153 
L 481.822245 484.828801 
L 484.565998 482.196825 
L 487.331491 479.065823 
L 490.107379 475.342985 
L 492.879552 470.923258 
L 494.258982 468.416218 
L 495.630742 465.690848 
L 496.992122 462.731553 
L 498.340179 459.522625 
L 499.671725 456.048497 
L 500.983335 452.294045 
L 502.27134 448.244938 
L 503.53184 443.888035 
L 504.760714 439.211823 
L 505.953637 434.206885 
L 507.106106 428.866384 
L 508.213467 423.186557 
L 509.270953 417.167178 
L 511.216919 404.129097 
L 512.905336 389.835923 
L 514.298939 374.44783 
L 515.363771 358.201836 
L 516.071078 341.404246 
L 516.399014 324.415462 
L 516.333961 307.62857 
L 515.871341 291.443864 
L 515.015828 276.241807 
L 514.444636 269.116305 
L 513.780925 262.357147 
L 513.027597 255.995425 
L 512.187949 250.056976 
L 511.265618 244.562091 
L 510.264523 239.525376 
L 509.188799 234.95576 
L 508.04274 230.856651 
L 506.830734 227.22623 
L 505.557208 224.057858 
L 504.226572 221.340583 
L 502.843173 219.059714 
L 501.411252 217.197435 
L 499.93491 215.733441 
L 498.418077 214.64555 
L 496.864494 213.910299 
L 495.277692 213.503479 
L 493.660985 213.400617 
L 492.017466 213.577394 
L 490.350006 214.009985 
L 488.661254 214.675341 
L 486.953647 215.551404 
L 485.229418 216.617256 
L 483.490605 217.853227 
L 479.976472 220.763413 
L 476.4241 224.150963 
L 472.843993 227.90544 
L 467.44005 234.029587 
L 462.014816 240.536485 
L 452.967607 251.782653 
L 433.234504 276.421565 
L 422.649994 289.211107 
L 413.956158 299.397944 
L 405.394002 309.136831 
L 395.313924 320.233816 
L 385.469158 330.704994 
L 375.883135 340.576921 
L 365.05562 351.376684 
L 354.641382 361.449928 
L 343.279429 372.133133 
L 331.22247 383.174376 
L 316.38829 396.432949 
L 296.841351 413.564011 
L 272.657236 434.777906 
L 261.936589 444.484904 
L 254.183387 451.793614 
L 248.196365 457.722563 
L 243.246261 462.928747 
L 239.211589 467.500275 
L 236.201568 471.223912 
L 233.792708 474.526482 
L 231.910024 477.455599 
L 230.485682 480.053493 
L 229.458778 482.357618 
L 228.774971 484.401194 
L 228.386035 486.213683 
L 228.249361 487.821217 
L 228.342594 489.358241 
L 228.646373 490.707894 
L 229.167873 491.97796 
L 229.90786 493.155211 
L 230.860114 494.23078 
L 232.012372 495.199879 
L 233.501491 496.147872 
L 235.249357 496.993439 
L 237.396066 497.780149 
L 239.9909 498.486375 
L 243.130151 499.10071 
L 246.92485 499.60731 
L 251.584506 499.996015 
L 257.557258 500.26022 
L 266.189408 500.398917 
L 286.460951 500.429202 
L 305.913256 500.428259 
L 305.913256 500.428259 
" style="fill:none;stroke:#000000;stroke-linecap:square;stroke-width:1.5;"/>
   </g>
   <g id="patch_3">
    <path d="M 127.584 528.12 
L 127.584 191.88 
" style="fill:none;stroke:#000000;stroke-linecap:square;stroke-linejoin:miter;stroke-width:0.8;"/>
   </g>
   <g id="patch_4">
    <path d="M 592.416 528.12 
L 592.416 191.88 
" style="fill:none;stroke:#000000;stroke-linecap:square;stroke-linejoin:miter;stroke-width:0.8;"/>
   </g>
   <g id="patch_5">
    <path d="M 127.584 528.12 
L 592.416 528.12 
" style="fill:none;stroke:#000000;stroke-linecap:square;stroke-linejoin:miter;stroke-width:0.8;"/>
   </g>
   <g id="patch_6">
    <path d="M 127.584 191.88 
L 592.416 191.88 
" style="fill:none;stroke:#000000;stroke-linecap:square;stroke-linejoin:miter;stroke-width:0.8;"/>
   </g>
  </g>
 </g>
 <defs>
  <clipPath id="p47b34118da">
   <rect height="336.24" width="464.832" x="127.584" y="191.88"/>
  </clipPath>
 </defs>
</svg>
