<?xml version="1.0" encoding="utf-8" standalone="no"?>
<!DOCTYPE svg PUBLIC "-//W3C//DTD SVG 1.1//EN"
  "http://www.w3.org/Graphics/SVG/1.1/DTD/svg11.dtd">
<!-- Created with matplotlib (http://matplotlib.org/) -->
<svg height="720pt" version="1.1" viewBox="0 0 720 720" width="720pt" xmlns="http://www.w3.org/2000/svg" xmlns:xlink="http://www.w3.org/1999/xlink">
 <defs>
  <style type="text/css">
*{stroke-linecap:butt;stroke-linejoin:round;}
  </style>
 </defs>
 <g id="figure_1">
  <g id="patch_1">
   <path d="M 0 720 
L 720 720 
L 720 0 
L 0 0 
z
" style="fill:#ffffff;"/>
  </g>
  <g id="axes_1">
   <g id="patch_2">
    <path d="M 127.584 528.12 
L 592.416 528.12 
L 592.416 191.88 
L 127.584 191.88 
z
" style="fill:#ffffff;"/>
   </g>
   <g id="matplotlib.axis_1">
    <g id="xtick_1">
     <g id="line2d_1">
      <defs>
       <path d="M 0 0 
L 0 3.5 
" id="m957e96f8e7" style="stroke:#000000;stroke-width:0.8;"/>
      </defs>
      <g>
       <use style="stroke:#000000;stroke-width:0.8;" x="127.584" xlink:href="#m957e96f8e7" y="528.12"/>
      </g>
     </g>
     <g id="text_1">
      <!-- −1 -->
      <defs>
       <path d="M 10.59375 35.5 
L 73.1875 35.5 
L 73.1875 27.203125 
L 10.59375 27.203125 
z
" id="DejaVuSans-2212"/>
       <path d="M 12.40625 8.296875 
L 28.515625 8.296875 
L 28.515625 63.921875 
L 10.984375 60.40625 
L 10.984375 69.390625 
L 28.421875 72.90625 
L 38.28125 72.90625 
L 38.28125 8.296875 
L 54.390625 8.296875 
L 54.390625 0 
L 12.40625 0 
z
" id="DejaVuSans-31"/>
      </defs>
      <g transform="translate(115.79025 547.2775)scale(0.16 -0.16)">
       <use xlink:href="#DejaVuSans-2212"/>
       <use x="83.789062" xlink:href="#DejaVuSans-31"/>
      </g>
     </g>
    </g>
    <g id="xtick_2">
     <g id="line2d_2">
      <g>
       <use style="stroke:#000000;stroke-width:0.8;" x="220.5504" xlink:href="#m957e96f8e7" y="528.12"/>
      </g>
     </g>
     <g id="text_2">
      <!-- 0 -->
      <defs>
       <path d="M 31.78125 66.40625 
Q 24.171875 66.40625 20.328125 58.90625 
Q 16.5 51.421875 16.5 36.375 
Q 16.5 21.390625 20.328125 13.890625 
Q 24.171875 6.390625 31.78125 6.390625 
Q 39.453125 6.390625 43.28125 13.890625 
Q 47.125 21.390625 47.125 36.375 
Q 47.125 51.421875 43.28125 58.90625 
Q 39.453125 66.40625 31.78125 66.40625 
z
M 31.78125 74.21875 
Q 44.046875 74.21875 50.515625 64.515625 
Q 56.984375 54.828125 56.984375 36.375 
Q 56.984375 17.96875 50.515625 8.265625 
Q 44.046875 -1.421875 31.78125 -1.421875 
Q 19.53125 -1.421875 13.0625 8.265625 
Q 6.59375 17.96875 6.59375 36.375 
Q 6.59375 54.828125 13.0625 64.515625 
Q 19.53125 74.21875 31.78125 74.21875 
z
" id="DejaVuSans-30"/>
      </defs>
      <g transform="translate(215.4604 547.2775)scale(0.16 -0.16)">
       <use xlink:href="#DejaVuSans-30"/>
      </g>
     </g>
    </g>
    <g id="xtick_3">
     <g id="line2d_3">
      <g>
       <use style="stroke:#000000;stroke-width:0.8;" x="313.5168" xlink:href="#m957e96f8e7" y="528.12"/>
      </g>
     </g>
     <g id="text_3">
      <!-- 1 -->
      <g transform="translate(308.4268 547.2775)scale(0.16 -0.16)">
       <use xlink:href="#DejaVuSans-31"/>
      </g>
     </g>
    </g>
    <g id="xtick_4">
     <g id="line2d_4">
      <g>
       <use style="stroke:#000000;stroke-width:0.8;" x="406.4832" xlink:href="#m957e96f8e7" y="528.12"/>
      </g>
     </g>
     <g id="text_4">
      <!-- 2 -->
      <defs>
       <path d="M 19.1875 8.296875 
L 53.609375 8.296875 
L 53.609375 0 
L 7.328125 0 
L 7.328125 8.296875 
Q 12.9375 14.109375 22.625 23.890625 
Q 32.328125 33.6875 34.8125 36.53125 
Q 39.546875 41.84375 41.421875 45.53125 
Q 43.3125 49.21875 43.3125 52.78125 
Q 43.3125 58.59375 39.234375 62.25 
Q 35.15625 65.921875 28.609375 65.921875 
Q 23.96875 65.921875 18.8125 64.3125 
Q 13.671875 62.703125 7.8125 59.421875 
L 7.8125 69.390625 
Q 13.765625 71.78125 18.9375 73 
Q 24.125 74.21875 28.421875 74.21875 
Q 39.75 74.21875 46.484375 68.546875 
Q 53.21875 62.890625 53.21875 53.421875 
Q 53.21875 48.921875 51.53125 44.890625 
Q 49.859375 40.875 45.40625 35.40625 
Q 44.1875 33.984375 37.640625 27.21875 
Q 31.109375 20.453125 19.1875 8.296875 
z
" id="DejaVuSans-32"/>
      </defs>
      <g transform="translate(401.3932 547.2775)scale(0.16 -0.16)">
       <use xlink:href="#DejaVuSans-32"/>
      </g>
     </g>
    </g>
    <g id="xtick_5">
     <g id="line2d_5">
      <g>
       <use style="stroke:#000000;stroke-width:0.8;" x="499.4496" xlink:href="#m957e96f8e7" y="528.12"/>
      </g>
     </g>
     <g id="text_5">
      <!-- 3 -->
      <defs>
       <path d="M 40.578125 39.3125 
Q 47.65625 37.796875 51.625 33 
Q 55.609375 28.21875 55.609375 21.1875 
Q 55.609375 10.40625 48.1875 4.484375 
Q 40.765625 -1.421875 27.09375 -1.421875 
Q 22.515625 -1.421875 17.65625 -0.515625 
Q 12.796875 0.390625 7.625 2.203125 
L 7.625 11.71875 
Q 11.71875 9.328125 16.59375 8.109375 
Q 21.484375 6.890625 26.8125 6.890625 
Q 36.078125 6.890625 40.9375 10.546875 
Q 45.796875 14.203125 45.796875 21.1875 
Q 45.796875 27.640625 41.28125 31.265625 
Q 36.765625 34.90625 28.71875 34.90625 
L 20.21875 34.90625 
L 20.21875 43.015625 
L 29.109375 43.015625 
Q 36.375 43.015625 40.234375 45.921875 
Q 44.09375 48.828125 44.09375 54.296875 
Q 44.09375 59.90625 40.109375 62.90625 
Q 36.140625 65.921875 28.71875 65.921875 
Q 24.65625 65.921875 20.015625 65.03125 
Q 15.375 64.15625 9.8125 62.3125 
L 9.8125 71.09375 
Q 15.4375 72.65625 20.34375 73.4375 
Q 25.25 74.21875 29.59375 74.21875 
Q 40.828125 74.21875 47.359375 69.109375 
Q 53.90625 64.015625 53.90625 55.328125 
Q 53.90625 49.265625 50.4375 45.09375 
Q 46.96875 40.921875 40.578125 39.3125 
z
" id="DejaVuSans-33"/>
      </defs>
      <g transform="translate(494.3596 547.2775)scale(0.16 -0.16)">
       <use xlink:href="#DejaVuSans-33"/>
      </g>
     </g>
    </g>
    <g id="xtick_6">
     <g id="line2d_6">
      <g>
       <use style="stroke:#000000;stroke-width:0.8;" x="592.416" xlink:href="#m957e96f8e7" y="528.12"/>
      </g>
     </g>
     <g id="text_6">
      <!-- 4 -->
      <defs>
       <path d="M 37.796875 64.3125 
L 12.890625 25.390625 
L 37.796875 25.390625 
z
M 35.203125 72.90625 
L 47.609375 72.90625 
L 47.609375 25.390625 
L 58.015625 25.390625 
L 58.015625 17.1875 
L 47.609375 17.1875 
L 47.609375 0 
L 37.796875 0 
L 37.796875 17.1875 
L 4.890625 17.1875 
L 4.890625 26.703125 
z
" id="DejaVuSans-34"/>
      </defs>
      <g transform="translate(587.326 547.2775)scale(0.16 -0.16)">
       <use xlink:href="#DejaVuSans-34"/>
      </g>
     </g>
    </g>
    <g id="text_7">
     <!-- x -->
     <defs>
      <path d="M 54.890625 54.6875 
L 35.109375 28.078125 
L 55.90625 0 
L 45.3125 0 
L 29.390625 21.484375 
L 13.484375 0 
L 2.875 0 
L 24.125 28.609375 
L 4.6875 54.6875 
L 15.28125 54.6875 
L 29.78125 35.203125 
L 44.28125 54.6875 
z
" id="DejaVuSans-78"/>
     </defs>
     <g transform="translate(355.265 566.7625)scale(0.16 -0.16)">
      <use xlink:href="#DejaVuSans-78"/>
     </g>
    </g>
   </g>
   <g id="matplotlib.axis_2">
    <g id="ytick_1">
     <g id="line2d_7">
      <defs>
       <path d="M 0 0 
L -3.5 0 
" id="mbe4fb135c7" style="stroke:#000000;stroke-width:0.8;"/>
      </defs>
      <g>
       <use style="stroke:#000000;stroke-width:0.8;" x="127.584" xlink:href="#mbe4fb135c7" y="508.341176"/>
      </g>
     </g>
     <g id="text_8">
      <!-- 0.5 -->
      <defs>
       <path d="M 10.6875 12.40625 
L 21 12.40625 
L 21 0 
L 10.6875 0 
z
" id="DejaVuSans-2e"/>
       <path d="M 10.796875 72.90625 
L 49.515625 72.90625 
L 49.515625 64.59375 
L 19.828125 64.59375 
L 19.828125 46.734375 
Q 21.96875 47.46875 24.109375 47.828125 
Q 26.265625 48.1875 28.421875 48.1875 
Q 40.625 48.1875 47.75 41.5 
Q 54.890625 34.8125 54.890625 23.390625 
Q 54.890625 11.625 47.5625 5.09375 
Q 40.234375 -1.421875 26.90625 -1.421875 
Q 22.3125 -1.421875 17.546875 -0.640625 
Q 12.796875 0.140625 7.71875 1.703125 
L 7.71875 11.625 
Q 12.109375 9.234375 16.796875 8.0625 
Q 21.484375 6.890625 26.703125 6.890625 
Q 35.15625 6.890625 40.078125 11.328125 
Q 45.015625 15.765625 45.015625 23.390625 
Q 45.015625 31 40.078125 35.4375 
Q 35.15625 39.890625 26.703125 39.890625 
Q 22.75 39.890625 18.8125 39.015625 
Q 14.890625 38.140625 10.796875 36.28125 
z
" id="DejaVuSans-35"/>
      </defs>
      <g transform="translate(95.139 514.419926)scale(0.16 -0.16)">
       <use xlink:href="#DejaVuSans-30"/>
       <use x="63.623047" xlink:href="#DejaVuSans-2e"/>
       <use x="95.410156" xlink:href="#DejaVuSans-35"/>
      </g>
     </g>
    </g>
    <g id="ytick_2">
     <g id="line2d_8">
      <g>
       <use style="stroke:#000000;stroke-width:0.8;" x="127.584" xlink:href="#mbe4fb135c7" y="468.783529"/>
      </g>
     </g>
     <g id="text_9">
      <!-- 1.0 -->
      <g transform="translate(95.139 474.862279)scale(0.16 -0.16)">
       <use xlink:href="#DejaVuSans-31"/>
       <use x="63.623047" xlink:href="#DejaVuSans-2e"/>
       <use x="95.410156" xlink:href="#DejaVuSans-30"/>
      </g>
     </g>
    </g>
    <g id="ytick_3">
     <g id="line2d_9">
      <g>
       <use style="stroke:#000000;stroke-width:0.8;" x="127.584" xlink:href="#mbe4fb135c7" y="429.225882"/>
      </g>
     </g>
     <g id="text_10">
      <!-- 1.5 -->
      <g transform="translate(95.139 435.304632)scale(0.16 -0.16)">
       <use xlink:href="#DejaVuSans-31"/>
       <use x="63.623047" xlink:href="#DejaVuSans-2e"/>
       <use x="95.410156" xlink:href="#DejaVuSans-35"/>
      </g>
     </g>
    </g>
    <g id="ytick_4">
     <g id="line2d_10">
      <g>
       <use style="stroke:#000000;stroke-width:0.8;" x="127.584" xlink:href="#mbe4fb135c7" y="389.668235"/>
      </g>
     </g>
     <g id="text_11">
      <!-- 2.0 -->
      <g transform="translate(95.139 395.746985)scale(0.16 -0.16)">
       <use xlink:href="#DejaVuSans-32"/>
       <use x="63.623047" xlink:href="#DejaVuSans-2e"/>
       <use x="95.410156" xlink:href="#DejaVuSans-30"/>
      </g>
     </g>
    </g>
    <g id="ytick_5">
     <g id="line2d_11">
      <g>
       <use style="stroke:#000000;stroke-width:0.8;" x="127.584" xlink:href="#mbe4fb135c7" y="350.110588"/>
      </g>
     </g>
     <g id="text_12">
      <!-- 2.5 -->
      <g transform="translate(95.139 356.189338)scale(0.16 -0.16)">
       <use xlink:href="#DejaVuSans-32"/>
       <use x="63.623047" xlink:href="#DejaVuSans-2e"/>
       <use x="95.410156" xlink:href="#DejaVuSans-35"/>
      </g>
     </g>
    </g>
    <g id="ytick_6">
     <g id="line2d_12">
      <g>
       <use style="stroke:#000000;stroke-width:0.8;" x="127.584" xlink:href="#mbe4fb135c7" y="310.552941"/>
      </g>
     </g>
     <g id="text_13">
      <!-- 3.0 -->
      <g transform="translate(95.139 316.631691)scale(0.16 -0.16)">
       <use xlink:href="#DejaVuSans-33"/>
       <use x="63.623047" xlink:href="#DejaVuSans-2e"/>
       <use x="95.410156" xlink:href="#DejaVuSans-30"/>
      </g>
     </g>
    </g>
    <g id="ytick_7">
     <g id="line2d_13">
      <g>
       <use style="stroke:#000000;stroke-width:0.8;" x="127.584" xlink:href="#mbe4fb135c7" y="270.995294"/>
      </g>
     </g>
     <g id="text_14">
      <!-- 3.5 -->
      <g transform="translate(95.139 277.074044)scale(0.16 -0.16)">
       <use xlink:href="#DejaVuSans-33"/>
       <use x="63.623047" xlink:href="#DejaVuSans-2e"/>
       <use x="95.410156" xlink:href="#DejaVuSans-35"/>
      </g>
     </g>
    </g>
    <g id="ytick_8">
     <g id="line2d_14">
      <g>
       <use style="stroke:#000000;stroke-width:0.8;" x="127.584" xlink:href="#mbe4fb135c7" y="231.437647"/>
      </g>
     </g>
     <g id="text_15">
      <!-- 4.0 -->
      <g transform="translate(95.139 237.516397)scale(0.16 -0.16)">
       <use xlink:href="#DejaVuSans-34"/>
       <use x="63.623047" xlink:href="#DejaVuSans-2e"/>
       <use x="95.410156" xlink:href="#DejaVuSans-30"/>
      </g>
     </g>
    </g>
    <g id="ytick_9">
     <g id="line2d_15">
      <g>
       <use style="stroke:#000000;stroke-width:0.8;" x="127.584" xlink:href="#mbe4fb135c7" y="191.88"/>
      </g>
     </g>
     <g id="text_16">
      <!-- 4.5 -->
      <g transform="translate(95.139 197.95875)scale(0.16 -0.16)">
       <use xlink:href="#DejaVuSans-34"/>
       <use x="63.623047" xlink:href="#DejaVuSans-2e"/>
       <use x="95.410156" xlink:href="#DejaVuSans-35"/>
      </g>
     </g>
    </g>
    <g id="text_17">
     <!-- y -->
     <defs>
      <path d="M 32.171875 -5.078125 
Q 28.375 -14.84375 24.75 -17.8125 
Q 21.140625 -20.796875 15.09375 -20.796875 
L 7.90625 -20.796875 
L 7.90625 -13.28125 
L 13.1875 -13.28125 
Q 16.890625 -13.28125 18.9375 -11.515625 
Q 21 -9.765625 23.484375 -3.21875 
L 25.09375 0.875 
L 2.984375 54.6875 
L 12.5 54.6875 
L 29.59375 11.921875 
L 46.6875 54.6875 
L 56.203125 54.6875 
z
" id="DejaVuSans-79"/>
     </defs>
     <g transform="translate(87.8115 364.735)rotate(-90)scale(0.16 -0.16)">
      <use xlink:href="#DejaVuSans-79"/>
     </g>
    </g>
   </g>
   <g id="line2d_16">
    <path clip-path="url(#p61dadb86a5)" d="M 127.193463 439.599952 
L 138.258678 446.215862 
L 149.323892 452.568557 
L 159.738212 458.286553 
L 169.501637 463.398722 
L 179.265061 468.252114 
L 188.377591 472.531716 
L 196.839226 476.274741 
L 205.30086 479.781426 
L 213.762495 483.037516 
L 221.573235 485.807896 
L 229.383975 488.340023 
L 236.543819 490.441186 
L 243.703664 492.32178 
L 250.863509 493.97168 
L 258.023354 495.380546 
L 264.532304 496.443316 
L 271.041253 497.290165 
L 277.550203 497.912987 
L 284.059153 498.303623 
L 290.568103 498.453887 
L 296.426158 498.376845 
L 302.284212 498.092543 
L 308.142267 497.595098 
L 314.000322 496.878709 
L 319.858377 495.937677 
L 325.716432 494.766442 
L 331.574486 493.359607 
L 337.432541 491.711981 
L 343.290596 489.818604 
L 349.148651 487.674793 
L 355.006706 485.276175 
L 360.86476 482.61873 
L 366.722815 479.698832 
L 372.58087 476.513291 
L 378.438925 473.059397 
L 384.29698 469.334962 
L 390.155035 465.338365 
L 396.013089 461.068596 
L 401.871144 456.525297 
L 407.729199 451.708802 
L 413.587254 446.62018 
L 419.445309 441.26127 
L 425.954258 434.993165 
L 432.463208 428.399494 
L 438.972158 421.486414 
L 445.481108 414.261439 
L 452.640953 405.964386 
L 459.800797 397.314529 
L 466.960642 388.327721 
L 474.771382 378.160713 
L 482.582122 367.639969 
L 491.043756 355.876626 
L 500.156286 342.827606 
L 510.570606 327.4989 
L 522.286715 309.828582 
L 536.606405 287.806296 
L 580.867263 219.432509 
L 592.583373 201.928704 
L 592.583373 201.928704 
" style="fill:none;stroke:#8fbbda;stroke-linecap:square;stroke-width:1.5;"/>
   </g>
   <g id="line2d_17">
    <path clip-path="url(#p61dadb86a5)" d="M 127.193463 492.518118 
L 377.78803 492.411312 
L 395.362194 492.186099 
L 406.427409 491.84004 
L 414.238149 491.395667 
L 420.747099 490.809858 
L 425.954258 490.127867 
L 430.510523 489.311281 
L 434.415893 488.392805 
L 437.670368 487.429629 
L 440.924843 486.24187 
L 444.179318 484.777316 
L 446.782898 483.363663 
L 449.386478 481.692434 
L 451.990058 479.716932 
L 454.593637 477.382086 
L 456.546322 475.356504 
L 458.499007 473.060963 
L 460.451692 470.459801 
L 462.404377 467.512739 
L 464.357062 464.174301 
L 466.309747 460.393184 
L 468.262432 456.111552 
L 470.215117 451.264254 
L 472.167802 445.777974 
L 474.120487 439.570292 
L 476.073172 432.548671 
L 478.025857 424.609357 
L 479.978542 415.636203 
L 481.931227 405.499428 
L 483.883912 394.054313 
L 485.836596 381.139861 
L 487.789281 366.577448 
L 489.741966 350.169507 
L 491.694651 331.698284 
L 493.647336 310.924752 
L 495.600021 287.587754 
L 497.552706 261.403488 
L 499.505391 232.065466 
L 501.458076 199.245098 
L 503.410761 162.59308 
L 505.363446 121.741796 
L 507.316131 76.308939 
L 509.268816 25.902597 
L 510.232327 -1 
L 510.232327 -1 
" style="fill:none;stroke:#ffb280;stroke-linecap:square;stroke-width:1.5;"/>
   </g>
   <g id="line2d_18">
    <path clip-path="url(#p61dadb86a5)" d="M 500.35077 228.802094 
L 499.00248 228.808548 
L 497.632925 229.112478 
L 496.245227 229.69096 
L 494.842296 230.521487 
L 493.426835 231.582208 
L 492.001342 232.852119 
L 490.56812 234.311204 
L 487.686772 237.722284 
L 484.797627 241.677782 
L 481.912997 246.058608 
L 479.042998 250.763522 
L 474.783037 258.246896 
L 470.595643 266.044542 
L 465.15116 276.645931 
L 457.326588 292.463788 
L 445.2842 317.450226 
L 393.786574 425.315873 
L 388.327359 437.452351 
L 384.658999 446.098045 
L 381.80723 453.387259 
L 379.828093 459.058782 
L 378.499832 463.497467 
L 377.576704 467.346346 
L 377.06234 470.370822 
L 376.824291 473.030694 
L 376.843354 475.369736 
L 377.063107 477.210789 
L 377.464003 478.85279 
L 378.03853 480.317102 
L 378.780882 481.622771 
L 379.686908 482.786775 
L 380.754067 483.824235 
L 382.146115 484.85682 
L 383.742026 485.763169 
L 385.758926 486.640099 
L 388.28438 487.466642 
L 391.149031 488.167613 
L 394.690817 488.808176 
L 399.068421 489.374628 
L 404.494798 489.85276 
L 411.264563 490.221786 
L 419.219152 490.43068 
L 427.946034 490.43162 
L 435.869872 490.218566 
L 443.176565 489.797261 
L 449.441641 489.205074 
L 454.258199 488.555186 
L 458.328774 487.834645 
L 462.599568 486.864546 
L 465.936331 485.917006 
L 469.387645 484.721 
L 472.951268 483.204138 
L 475.387009 481.968788 
L 477.867975 480.513995 
L 480.390721 478.797778 
L 482.950618 476.770221 
L 485.541601 474.372353 
L 488.155884 471.535128 
L 490.783642 468.178673 
L 493.412668 464.212094 
L 496.028015 459.534206 
L 498.611667 454.035677 
L 501.14226 447.603132 
L 503.594927 440.125758 
L 505.941323 431.504753 
L 508.149914 421.665567 
L 510.186594 410.572227 
L 512.015687 398.242219 
L 513.601321 384.759644 
L 514.909136 370.283916 
L 515.908176 355.051459 
L 516.572804 339.368708 
L 516.884416 323.596181 
L 516.83274 308.124943 
L 516.416565 293.348236 
L 515.643794 279.631915 
L 515.128504 273.271533 
L 514.530814 267.287667 
L 513.853894 261.707447 
L 513.101271 256.552534 
L 512.276761 251.838983 
L 511.384414 247.577266 
L 510.428447 243.772438 
L 509.413194 240.424434 
L 508.34304 237.528476 
L 507.222376 235.075556 
L 506.055547 233.052987 
L 504.846814 231.444981 
L 503.600318 230.233239 
L 502.320051 229.39752 
L 501.009833 228.916193 
L 499.673297 228.766732 
L 498.313874 228.92617 
L 496.934788 229.371482 
L 495.539053 230.07992 
L 494.129474 231.029282 
L 492.708651 232.198124 
L 491.278982 233.565927 
L 488.401753 236.821598 
L 485.5133 240.654052 
L 482.626529 244.939625 
L 479.75207 249.572774 
L 475.482002 256.984164 
L 471.281423 264.742928 
L 465.816091 275.329123 
L 459.236103 288.558455 
L 449.348171 308.971924 
L 398.824738 414.502201 
L 391.477488 430.376988 
L 386.847913 440.871775 
L 383.498227 448.981168 
L 381.114234 455.291526 
L 379.313987 460.686851 
L 378.132169 464.909237 
L 377.3422 468.570453 
L 376.937924 471.447384 
L 376.802099 473.977425 
L 376.916774 476.202224 
L 377.216917 477.953289 
L 377.694698 479.514963 
L 378.343361 480.907561 
L 379.157829 482.149195 
L 380.134662 483.256004 
L 381.425446 484.357838 
L 382.919233 485.325264 
L 384.82006 486.261724 
L 386.981597 487.070562 
L 389.6741 487.832019 
L 393.012499 488.5298 
L 397.145226 489.150299 
L 402.270021 489.680631 
L 408.658683 490.103911 
L 416.152189 490.374928 
L 424.353426 490.459405 
L 432.506488 490.336255 
L 438.620696 490.088747 
L 438.620696 490.088747 
" style="fill:none;stroke:#000000;stroke-linecap:square;stroke-width:1.5;"/>
   </g>
   <g id="patch_3">
    <path d="M 127.584 528.12 
L 127.584 191.88 
" style="fill:none;stroke:#000000;stroke-linecap:square;stroke-linejoin:miter;stroke-width:0.8;"/>
   </g>
   <g id="patch_4">
    <path d="M 592.416 528.12 
L 592.416 191.88 
" style="fill:none;stroke:#000000;stroke-linecap:square;stroke-linejoin:miter;stroke-width:0.8;"/>
   </g>
   <g id="patch_5">
    <path d="M 127.584 528.12 
L 592.416 528.12 
" style="fill:none;stroke:#000000;stroke-linecap:square;stroke-linejoin:miter;stroke-width:0.8;"/>
   </g>
   <g id="patch_6">
    <path d="M 127.584 191.88 
L 592.416 191.88 
" style="fill:none;stroke:#000000;stroke-linecap:square;stroke-linejoin:miter;stroke-width:0.8;"/>
   </g>
  </g>
 </g>
 <defs>
  <clipPath id="p61dadb86a5">
   <rect height="336.24" width="464.832" x="127.584" y="191.88"/>
  </clipPath>
 </defs>
</svg>
