<?xml version="1.0" encoding="utf-8" standalone="no"?>
<!DOCTYPE svg PUBLIC "-//W3C//DTD SVG 1.1//EN"
  "http://www.w3.org/Graphics/SVG/1.1/DTD/svg11.dtd">
<!-- Created with matplotlib (http://matplotlib.org/) -->
<svg height="720pt" version="1.1" viewBox="0 0 720 720" width="720pt" xmlns="http://www.w3.org/2000/svg" xmlns:xlink="http://www.w3.org/1999/xlink">
 <defs>
  <style type="text/css">
*{stroke-linecap:butt;stroke-linejoin:round;}
  </style>
 </defs>
 <g id="figure_1">
  <g id="patch_1">
   <path d="M 0 720 
L 720 720 
L 720 0 
L 0 0 
z
" style="fill:#ffffff;"/>
  </g>
  <g id="axes_1">
   <g id="patch_2">
    <path d="M 127.584 528.12 
L 592.416 528.12 
L 592.416 191.88 
L 127.584 191.88 
z
" style="fill:#ffffff;"/>
   </g>
   <g id="matplotlib.axis_1">
    <g id="xtick_1">
     <g id="line2d_1">
      <defs>
       <path d="M 0 0 
L 0 3.5 
" id="mda51e3cb94" style="stroke:#000000;stroke-width:0.8;"/>
      </defs>
      <g>
       <use style="stroke:#000000;stroke-width:0.8;" x="138.921366" xlink:href="#mda51e3cb94" y="528.12"/>
      </g>
     </g>
     <g id="text_1">
      <!-- −7.5 -->
      <defs>
       <path d="M 10.59375 35.5 
L 73.1875 35.5 
L 73.1875 27.203125 
L 10.59375 27.203125 
z
" id="DejaVuSans-2212"/>
       <path d="M 8.203125 72.90625 
L 55.078125 72.90625 
L 55.078125 68.703125 
L 28.609375 0 
L 18.3125 0 
L 43.21875 64.59375 
L 8.203125 64.59375 
z
" id="DejaVuSans-37"/>
       <path d="M 10.6875 12.40625 
L 21 12.40625 
L 21 0 
L 10.6875 0 
z
" id="DejaVuSans-2e"/>
       <path d="M 10.796875 72.90625 
L 49.515625 72.90625 
L 49.515625 64.59375 
L 19.828125 64.59375 
L 19.828125 46.734375 
Q 21.96875 47.46875 24.109375 47.828125 
Q 26.265625 48.1875 28.421875 48.1875 
Q 40.625 48.1875 47.75 41.5 
Q 54.890625 34.8125 54.890625 23.390625 
Q 54.890625 11.625 47.5625 5.09375 
Q 40.234375 -1.421875 26.90625 -1.421875 
Q 22.3125 -1.421875 17.546875 -0.640625 
Q 12.796875 0.140625 7.71875 1.703125 
L 7.71875 11.625 
Q 12.109375 9.234375 16.796875 8.0625 
Q 21.484375 6.890625 26.703125 6.890625 
Q 35.15625 6.890625 40.078125 11.328125 
Q 45.015625 15.765625 45.015625 23.390625 
Q 45.015625 31 40.078125 35.4375 
Q 35.15625 39.890625 26.703125 39.890625 
Q 22.75 39.890625 18.8125 39.015625 
Q 14.890625 38.140625 10.796875 36.28125 
z
" id="DejaVuSans-35"/>
      </defs>
      <g transform="translate(119.495116 547.2775)scale(0.16 -0.16)">
       <use xlink:href="#DejaVuSans-2212"/>
       <use x="83.789062" xlink:href="#DejaVuSans-37"/>
       <use x="147.412109" xlink:href="#DejaVuSans-2e"/>
       <use x="179.199219" xlink:href="#DejaVuSans-35"/>
      </g>
     </g>
    </g>
    <g id="xtick_2">
     <g id="line2d_2">
      <g>
       <use style="stroke:#000000;stroke-width:0.8;" x="195.608195" xlink:href="#mda51e3cb94" y="528.12"/>
      </g>
     </g>
     <g id="text_2">
      <!-- −5.0 -->
      <defs>
       <path d="M 31.78125 66.40625 
Q 24.171875 66.40625 20.328125 58.90625 
Q 16.5 51.421875 16.5 36.375 
Q 16.5 21.390625 20.328125 13.890625 
Q 24.171875 6.390625 31.78125 6.390625 
Q 39.453125 6.390625 43.28125 13.890625 
Q 47.125 21.390625 47.125 36.375 
Q 47.125 51.421875 43.28125 58.90625 
Q 39.453125 66.40625 31.78125 66.40625 
z
M 31.78125 74.21875 
Q 44.046875 74.21875 50.515625 64.515625 
Q 56.984375 54.828125 56.984375 36.375 
Q 56.984375 17.96875 50.515625 8.265625 
Q 44.046875 -1.421875 31.78125 -1.421875 
Q 19.53125 -1.421875 13.0625 8.265625 
Q 6.59375 17.96875 6.59375 36.375 
Q 6.59375 54.828125 13.0625 64.515625 
Q 19.53125 74.21875 31.78125 74.21875 
z
" id="DejaVuSans-30"/>
      </defs>
      <g transform="translate(176.181945 547.2775)scale(0.16 -0.16)">
       <use xlink:href="#DejaVuSans-2212"/>
       <use x="83.789062" xlink:href="#DejaVuSans-35"/>
       <use x="147.412109" xlink:href="#DejaVuSans-2e"/>
       <use x="179.199219" xlink:href="#DejaVuSans-30"/>
      </g>
     </g>
    </g>
    <g id="xtick_3">
     <g id="line2d_3">
      <g>
       <use style="stroke:#000000;stroke-width:0.8;" x="252.295024" xlink:href="#mda51e3cb94" y="528.12"/>
      </g>
     </g>
     <g id="text_3">
      <!-- −2.5 -->
      <defs>
       <path d="M 19.1875 8.296875 
L 53.609375 8.296875 
L 53.609375 0 
L 7.328125 0 
L 7.328125 8.296875 
Q 12.9375 14.109375 22.625 23.890625 
Q 32.328125 33.6875 34.8125 36.53125 
Q 39.546875 41.84375 41.421875 45.53125 
Q 43.3125 49.21875 43.3125 52.78125 
Q 43.3125 58.59375 39.234375 62.25 
Q 35.15625 65.921875 28.609375 65.921875 
Q 23.96875 65.921875 18.8125 64.3125 
Q 13.671875 62.703125 7.8125 59.421875 
L 7.8125 69.390625 
Q 13.765625 71.78125 18.9375 73 
Q 24.125 74.21875 28.421875 74.21875 
Q 39.75 74.21875 46.484375 68.546875 
Q 53.21875 62.890625 53.21875 53.421875 
Q 53.21875 48.921875 51.53125 44.890625 
Q 49.859375 40.875 45.40625 35.40625 
Q 44.1875 33.984375 37.640625 27.21875 
Q 31.109375 20.453125 19.1875 8.296875 
z
" id="DejaVuSans-32"/>
      </defs>
      <g transform="translate(232.868774 547.2775)scale(0.16 -0.16)">
       <use xlink:href="#DejaVuSans-2212"/>
       <use x="83.789062" xlink:href="#DejaVuSans-32"/>
       <use x="147.412109" xlink:href="#DejaVuSans-2e"/>
       <use x="179.199219" xlink:href="#DejaVuSans-35"/>
      </g>
     </g>
    </g>
    <g id="xtick_4">
     <g id="line2d_4">
      <g>
       <use style="stroke:#000000;stroke-width:0.8;" x="308.981854" xlink:href="#mda51e3cb94" y="528.12"/>
      </g>
     </g>
     <g id="text_4">
      <!-- 0.0 -->
      <g transform="translate(296.259354 547.2775)scale(0.16 -0.16)">
       <use xlink:href="#DejaVuSans-30"/>
       <use x="63.623047" xlink:href="#DejaVuSans-2e"/>
       <use x="95.410156" xlink:href="#DejaVuSans-30"/>
      </g>
     </g>
    </g>
    <g id="xtick_5">
     <g id="line2d_5">
      <g>
       <use style="stroke:#000000;stroke-width:0.8;" x="365.668683" xlink:href="#mda51e3cb94" y="528.12"/>
      </g>
     </g>
     <g id="text_5">
      <!-- 2.5 -->
      <g transform="translate(352.946183 547.2775)scale(0.16 -0.16)">
       <use xlink:href="#DejaVuSans-32"/>
       <use x="63.623047" xlink:href="#DejaVuSans-2e"/>
       <use x="95.410156" xlink:href="#DejaVuSans-35"/>
      </g>
     </g>
    </g>
    <g id="xtick_6">
     <g id="line2d_6">
      <g>
       <use style="stroke:#000000;stroke-width:0.8;" x="422.355512" xlink:href="#mda51e3cb94" y="528.12"/>
      </g>
     </g>
     <g id="text_6">
      <!-- 5.0 -->
      <g transform="translate(409.633012 547.2775)scale(0.16 -0.16)">
       <use xlink:href="#DejaVuSans-35"/>
       <use x="63.623047" xlink:href="#DejaVuSans-2e"/>
       <use x="95.410156" xlink:href="#DejaVuSans-30"/>
      </g>
     </g>
    </g>
    <g id="xtick_7">
     <g id="line2d_7">
      <g>
       <use style="stroke:#000000;stroke-width:0.8;" x="479.042341" xlink:href="#mda51e3cb94" y="528.12"/>
      </g>
     </g>
     <g id="text_7">
      <!-- 7.5 -->
      <g transform="translate(466.319841 547.2775)scale(0.16 -0.16)">
       <use xlink:href="#DejaVuSans-37"/>
       <use x="63.623047" xlink:href="#DejaVuSans-2e"/>
       <use x="95.410156" xlink:href="#DejaVuSans-35"/>
      </g>
     </g>
    </g>
    <g id="xtick_8">
     <g id="line2d_8">
      <g>
       <use style="stroke:#000000;stroke-width:0.8;" x="535.729171" xlink:href="#mda51e3cb94" y="528.12"/>
      </g>
     </g>
     <g id="text_8">
      <!-- 10.0 -->
      <defs>
       <path d="M 12.40625 8.296875 
L 28.515625 8.296875 
L 28.515625 63.921875 
L 10.984375 60.40625 
L 10.984375 69.390625 
L 28.421875 72.90625 
L 38.28125 72.90625 
L 38.28125 8.296875 
L 54.390625 8.296875 
L 54.390625 0 
L 12.40625 0 
z
" id="DejaVuSans-31"/>
      </defs>
      <g transform="translate(517.916671 547.2775)scale(0.16 -0.16)">
       <use xlink:href="#DejaVuSans-31"/>
       <use x="63.623047" xlink:href="#DejaVuSans-30"/>
       <use x="127.246094" xlink:href="#DejaVuSans-2e"/>
       <use x="159.033203" xlink:href="#DejaVuSans-30"/>
      </g>
     </g>
    </g>
    <g id="xtick_9">
     <g id="line2d_9">
      <g>
       <use style="stroke:#000000;stroke-width:0.8;" x="592.416" xlink:href="#mda51e3cb94" y="528.12"/>
      </g>
     </g>
     <g id="text_9">
      <!-- 12.5 -->
      <g transform="translate(574.6035 547.2775)scale(0.16 -0.16)">
       <use xlink:href="#DejaVuSans-31"/>
       <use x="63.623047" xlink:href="#DejaVuSans-32"/>
       <use x="127.246094" xlink:href="#DejaVuSans-2e"/>
       <use x="159.033203" xlink:href="#DejaVuSans-35"/>
      </g>
     </g>
    </g>
    <g id="text_10">
     <!-- x -->
     <defs>
      <path d="M 54.890625 54.6875 
L 35.109375 28.078125 
L 55.90625 0 
L 45.3125 0 
L 29.390625 21.484375 
L 13.484375 0 
L 2.875 0 
L 24.125 28.609375 
L 4.6875 54.6875 
L 15.28125 54.6875 
L 29.78125 35.203125 
L 44.28125 54.6875 
z
" id="DejaVuSans-78"/>
     </defs>
     <g transform="translate(355.265 566.7625)scale(0.16 -0.16)">
      <use xlink:href="#DejaVuSans-78"/>
     </g>
    </g>
   </g>
   <g id="matplotlib.axis_2">
    <g id="ytick_1">
     <g id="line2d_10">
      <defs>
       <path d="M 0 0 
L -3.5 0 
" id="m408e640c13" style="stroke:#000000;stroke-width:0.8;"/>
      </defs>
      <g>
       <use style="stroke:#000000;stroke-width:0.8;" x="127.584" xlink:href="#m408e640c13" y="528.12"/>
      </g>
     </g>
     <g id="text_11">
      <!-- 0 -->
      <g transform="translate(110.404 534.19875)scale(0.16 -0.16)">
       <use xlink:href="#DejaVuSans-30"/>
      </g>
     </g>
    </g>
    <g id="ytick_2">
     <g id="line2d_11">
      <g>
       <use style="stroke:#000000;stroke-width:0.8;" x="127.584" xlink:href="#m408e640c13" y="490.76"/>
      </g>
     </g>
     <g id="text_12">
      <!-- 1 -->
      <g transform="translate(110.404 496.83875)scale(0.16 -0.16)">
       <use xlink:href="#DejaVuSans-31"/>
      </g>
     </g>
    </g>
    <g id="ytick_3">
     <g id="line2d_12">
      <g>
       <use style="stroke:#000000;stroke-width:0.8;" x="127.584" xlink:href="#m408e640c13" y="453.4"/>
      </g>
     </g>
     <g id="text_13">
      <!-- 2 -->
      <g transform="translate(110.404 459.47875)scale(0.16 -0.16)">
       <use xlink:href="#DejaVuSans-32"/>
      </g>
     </g>
    </g>
    <g id="ytick_4">
     <g id="line2d_13">
      <g>
       <use style="stroke:#000000;stroke-width:0.8;" x="127.584" xlink:href="#m408e640c13" y="416.04"/>
      </g>
     </g>
     <g id="text_14">
      <!-- 3 -->
      <defs>
       <path d="M 40.578125 39.3125 
Q 47.65625 37.796875 51.625 33 
Q 55.609375 28.21875 55.609375 21.1875 
Q 55.609375 10.40625 48.1875 4.484375 
Q 40.765625 -1.421875 27.09375 -1.421875 
Q 22.515625 -1.421875 17.65625 -0.515625 
Q 12.796875 0.390625 7.625 2.203125 
L 7.625 11.71875 
Q 11.71875 9.328125 16.59375 8.109375 
Q 21.484375 6.890625 26.8125 6.890625 
Q 36.078125 6.890625 40.9375 10.546875 
Q 45.796875 14.203125 45.796875 21.1875 
Q 45.796875 27.640625 41.28125 31.265625 
Q 36.765625 34.90625 28.71875 34.90625 
L 20.21875 34.90625 
L 20.21875 43.015625 
L 29.109375 43.015625 
Q 36.375 43.015625 40.234375 45.921875 
Q 44.09375 48.828125 44.09375 54.296875 
Q 44.09375 59.90625 40.109375 62.90625 
Q 36.140625 65.921875 28.71875 65.921875 
Q 24.65625 65.921875 20.015625 65.03125 
Q 15.375 64.15625 9.8125 62.3125 
L 9.8125 71.09375 
Q 15.4375 72.65625 20.34375 73.4375 
Q 25.25 74.21875 29.59375 74.21875 
Q 40.828125 74.21875 47.359375 69.109375 
Q 53.90625 64.015625 53.90625 55.328125 
Q 53.90625 49.265625 50.4375 45.09375 
Q 46.96875 40.921875 40.578125 39.3125 
z
" id="DejaVuSans-33"/>
      </defs>
      <g transform="translate(110.404 422.11875)scale(0.16 -0.16)">
       <use xlink:href="#DejaVuSans-33"/>
      </g>
     </g>
    </g>
    <g id="ytick_5">
     <g id="line2d_14">
      <g>
       <use style="stroke:#000000;stroke-width:0.8;" x="127.584" xlink:href="#m408e640c13" y="378.68"/>
      </g>
     </g>
     <g id="text_15">
      <!-- 4 -->
      <defs>
       <path d="M 37.796875 64.3125 
L 12.890625 25.390625 
L 37.796875 25.390625 
z
M 35.203125 72.90625 
L 47.609375 72.90625 
L 47.609375 25.390625 
L 58.015625 25.390625 
L 58.015625 17.1875 
L 47.609375 17.1875 
L 47.609375 0 
L 37.796875 0 
L 37.796875 17.1875 
L 4.890625 17.1875 
L 4.890625 26.703125 
z
" id="DejaVuSans-34"/>
      </defs>
      <g transform="translate(110.404 384.75875)scale(0.16 -0.16)">
       <use xlink:href="#DejaVuSans-34"/>
      </g>
     </g>
    </g>
    <g id="ytick_6">
     <g id="line2d_15">
      <g>
       <use style="stroke:#000000;stroke-width:0.8;" x="127.584" xlink:href="#m408e640c13" y="341.32"/>
      </g>
     </g>
     <g id="text_16">
      <!-- 5 -->
      <g transform="translate(110.404 347.39875)scale(0.16 -0.16)">
       <use xlink:href="#DejaVuSans-35"/>
      </g>
     </g>
    </g>
    <g id="ytick_7">
     <g id="line2d_16">
      <g>
       <use style="stroke:#000000;stroke-width:0.8;" x="127.584" xlink:href="#m408e640c13" y="303.96"/>
      </g>
     </g>
     <g id="text_17">
      <!-- 6 -->
      <defs>
       <path d="M 33.015625 40.375 
Q 26.375 40.375 22.484375 35.828125 
Q 18.609375 31.296875 18.609375 23.390625 
Q 18.609375 15.53125 22.484375 10.953125 
Q 26.375 6.390625 33.015625 6.390625 
Q 39.65625 6.390625 43.53125 10.953125 
Q 47.40625 15.53125 47.40625 23.390625 
Q 47.40625 31.296875 43.53125 35.828125 
Q 39.65625 40.375 33.015625 40.375 
z
M 52.59375 71.296875 
L 52.59375 62.3125 
Q 48.875 64.0625 45.09375 64.984375 
Q 41.3125 65.921875 37.59375 65.921875 
Q 27.828125 65.921875 22.671875 59.328125 
Q 17.53125 52.734375 16.796875 39.40625 
Q 19.671875 43.65625 24.015625 45.921875 
Q 28.375 48.1875 33.59375 48.1875 
Q 44.578125 48.1875 50.953125 41.515625 
Q 57.328125 34.859375 57.328125 23.390625 
Q 57.328125 12.15625 50.6875 5.359375 
Q 44.046875 -1.421875 33.015625 -1.421875 
Q 20.359375 -1.421875 13.671875 8.265625 
Q 6.984375 17.96875 6.984375 36.375 
Q 6.984375 53.65625 15.1875 63.9375 
Q 23.390625 74.21875 37.203125 74.21875 
Q 40.921875 74.21875 44.703125 73.484375 
Q 48.484375 72.75 52.59375 71.296875 
z
" id="DejaVuSans-36"/>
      </defs>
      <g transform="translate(110.404 310.03875)scale(0.16 -0.16)">
       <use xlink:href="#DejaVuSans-36"/>
      </g>
     </g>
    </g>
    <g id="ytick_8">
     <g id="line2d_17">
      <g>
       <use style="stroke:#000000;stroke-width:0.8;" x="127.584" xlink:href="#m408e640c13" y="266.6"/>
      </g>
     </g>
     <g id="text_18">
      <!-- 7 -->
      <g transform="translate(110.404 272.67875)scale(0.16 -0.16)">
       <use xlink:href="#DejaVuSans-37"/>
      </g>
     </g>
    </g>
    <g id="ytick_9">
     <g id="line2d_18">
      <g>
       <use style="stroke:#000000;stroke-width:0.8;" x="127.584" xlink:href="#m408e640c13" y="229.24"/>
      </g>
     </g>
     <g id="text_19">
      <!-- 8 -->
      <defs>
       <path d="M 31.78125 34.625 
Q 24.75 34.625 20.71875 30.859375 
Q 16.703125 27.09375 16.703125 20.515625 
Q 16.703125 13.921875 20.71875 10.15625 
Q 24.75 6.390625 31.78125 6.390625 
Q 38.8125 6.390625 42.859375 10.171875 
Q 46.921875 13.96875 46.921875 20.515625 
Q 46.921875 27.09375 42.890625 30.859375 
Q 38.875 34.625 31.78125 34.625 
z
M 21.921875 38.8125 
Q 15.578125 40.375 12.03125 44.71875 
Q 8.5 49.078125 8.5 55.328125 
Q 8.5 64.0625 14.71875 69.140625 
Q 20.953125 74.21875 31.78125 74.21875 
Q 42.671875 74.21875 48.875 69.140625 
Q 55.078125 64.0625 55.078125 55.328125 
Q 55.078125 49.078125 51.53125 44.71875 
Q 48 40.375 41.703125 38.8125 
Q 48.828125 37.15625 52.796875 32.3125 
Q 56.78125 27.484375 56.78125 20.515625 
Q 56.78125 9.90625 50.3125 4.234375 
Q 43.84375 -1.421875 31.78125 -1.421875 
Q 19.734375 -1.421875 13.25 4.234375 
Q 6.78125 9.90625 6.78125 20.515625 
Q 6.78125 27.484375 10.78125 32.3125 
Q 14.796875 37.15625 21.921875 38.8125 
z
M 18.3125 54.390625 
Q 18.3125 48.734375 21.84375 45.5625 
Q 25.390625 42.390625 31.78125 42.390625 
Q 38.140625 42.390625 41.71875 45.5625 
Q 45.3125 48.734375 45.3125 54.390625 
Q 45.3125 60.0625 41.71875 63.234375 
Q 38.140625 66.40625 31.78125 66.40625 
Q 25.390625 66.40625 21.84375 63.234375 
Q 18.3125 60.0625 18.3125 54.390625 
z
" id="DejaVuSans-38"/>
      </defs>
      <g transform="translate(110.404 235.31875)scale(0.16 -0.16)">
       <use xlink:href="#DejaVuSans-38"/>
      </g>
     </g>
    </g>
    <g id="ytick_10">
     <g id="line2d_19">
      <g>
       <use style="stroke:#000000;stroke-width:0.8;" x="127.584" xlink:href="#m408e640c13" y="191.88"/>
      </g>
     </g>
     <g id="text_20">
      <!-- 9 -->
      <defs>
       <path d="M 10.984375 1.515625 
L 10.984375 10.5 
Q 14.703125 8.734375 18.5 7.8125 
Q 22.3125 6.890625 25.984375 6.890625 
Q 35.75 6.890625 40.890625 13.453125 
Q 46.046875 20.015625 46.78125 33.40625 
Q 43.953125 29.203125 39.59375 26.953125 
Q 35.25 24.703125 29.984375 24.703125 
Q 19.046875 24.703125 12.671875 31.3125 
Q 6.296875 37.9375 6.296875 49.421875 
Q 6.296875 60.640625 12.9375 67.421875 
Q 19.578125 74.21875 30.609375 74.21875 
Q 43.265625 74.21875 49.921875 64.515625 
Q 56.59375 54.828125 56.59375 36.375 
Q 56.59375 19.140625 48.40625 8.859375 
Q 40.234375 -1.421875 26.421875 -1.421875 
Q 22.703125 -1.421875 18.890625 -0.6875 
Q 15.09375 0.046875 10.984375 1.515625 
z
M 30.609375 32.421875 
Q 37.25 32.421875 41.125 36.953125 
Q 45.015625 41.5 45.015625 49.421875 
Q 45.015625 57.28125 41.125 61.84375 
Q 37.25 66.40625 30.609375 66.40625 
Q 23.96875 66.40625 20.09375 61.84375 
Q 16.21875 57.28125 16.21875 49.421875 
Q 16.21875 41.5 20.09375 36.953125 
Q 23.96875 32.421875 30.609375 32.421875 
z
" id="DejaVuSans-39"/>
      </defs>
      <g transform="translate(110.404 197.95875)scale(0.16 -0.16)">
       <use xlink:href="#DejaVuSans-39"/>
      </g>
     </g>
    </g>
    <g id="text_21">
     <!-- y -->
     <defs>
      <path d="M 32.171875 -5.078125 
Q 28.375 -14.84375 24.75 -17.8125 
Q 21.140625 -20.796875 15.09375 -20.796875 
L 7.90625 -20.796875 
L 7.90625 -13.28125 
L 13.1875 -13.28125 
Q 16.890625 -13.28125 18.9375 -11.515625 
Q 21 -9.765625 23.484375 -3.21875 
L 25.09375 0.875 
L 2.984375 54.6875 
L 12.5 54.6875 
L 29.59375 11.921875 
L 46.6875 54.6875 
L 56.203125 54.6875 
z
" id="DejaVuSans-79"/>
     </defs>
     <g transform="translate(103.0765 364.735)rotate(-90)scale(0.16 -0.16)">
      <use xlink:href="#DejaVuSans-79"/>
     </g>
    </g>
   </g>
   <g id="line2d_20">
    <path clip-path="url(#p9c49ac871c)" d="M 127.456996 228.979091 
L 183.021202 320.21444 
L 208.898246 362.304781 
L 226.202527 390.050781 
L 239.379182 410.773216 
L 249.857003 426.853271 
L 258.588521 439.86456 
L 266.208755 450.829126 
L 272.87646 460.036867 
L 278.75039 467.775449 
L 283.989301 474.319844 
L 288.751947 479.922609 
L 293.038329 484.637109 
L 297.0072 488.685606 
L 300.658562 492.106921 
L 304.15117 495.076063 
L 307.326267 497.491049 
L 310.34261 499.510838 
L 313.200197 501.156578 
L 315.89903 502.452998 
L 318.439108 503.42805 
L 320.820431 504.11243 
L 323.201754 504.561366 
L 325.424323 504.756488 
L 327.646891 504.724589 
L 329.710704 504.482467 
L 331.774518 504.027168 
L 333.838331 503.350551 
L 335.902144 502.444757 
L 337.965958 501.302299 
L 340.029771 499.91617 
L 342.252339 498.143561 
L 344.474907 496.073822 
L 346.697476 493.700986 
L 349.078799 490.817059 
L 351.460122 487.576061 
L 354.0002 483.723706 
L 356.540278 479.46457 
L 359.239111 474.498947 
L 362.096698 468.758394 
L 365.113041 462.180778 
L 368.288138 454.715174 
L 371.780746 445.915391 
L 375.590862 435.700278 
L 380.035999 423.12462 
L 385.909929 405.7745 
L 399.404093 365.652916 
L 404.007985 352.812102 
L 407.976857 342.402058 
L 411.469464 333.851999 
L 414.644561 326.637045 
L 417.660904 320.313823 
L 420.518492 314.82509 
L 423.217324 310.103847 
L 425.757402 306.078065 
L 428.29748 302.460189 
L 430.678803 299.438346 
L 433.060126 296.771491 
L 435.282695 294.598278 
L 437.505263 292.724379 
L 439.727831 291.143068 
L 441.950399 289.846605 
L 444.014213 288.890317 
L 446.078026 288.164858 
L 448.141839 287.66244 
L 450.205653 287.374978 
L 452.428221 287.296278 
L 454.650789 287.446721 
L 456.873357 287.815707 
L 459.254681 288.441545 
L 461.636004 289.293225 
L 464.176082 290.436341 
L 466.874914 291.899888 
L 469.732502 293.710179 
L 472.748845 295.890412 
L 475.923942 298.460346 
L 479.416549 301.584431 
L 483.067911 305.151605 
L 487.036783 309.341492 
L 491.323165 314.190507 
L 496.085811 319.922973 
L 501.324722 326.588983 
L 507.039897 334.224524 
L 513.548847 343.302389 
L 520.851571 353.877321 
L 529.265579 366.460241 
L 539.267136 381.832772 
L 551.332507 400.802224 
L 566.572975 425.197669 
L 587.211108 458.681169 
L 592.450019 467.2309 
L 592.450019 467.2309 
" style="fill:none;stroke:#8fbbda;stroke-linecap:square;stroke-width:1.5;"/>
   </g>
   <g id="line2d_21">
    <path clip-path="url(#p9c49ac871c)" d="M 127.456996 505.704 
L 328.123155 505.595401 
L 332.409537 505.366424 
L 335.10837 505.014632 
L 337.013428 504.562984 
L 338.600977 503.967732 
L 339.871016 503.274961 
L 340.9823 502.44577 
L 342.093584 501.334074 
L 343.046114 500.084527 
L 343.998643 498.478836 
L 344.951172 496.416246 
L 345.903701 493.767987 
L 346.85623 490.369804 
L 347.80876 486.012704 
L 348.761289 480.43162 
L 349.713818 473.29177 
L 350.666347 464.172596 
L 351.618877 452.549477 
L 352.571406 437.77391 
L 353.523935 419.053745 
L 354.476464 395.436385 
L 355.428994 365.799799 
L 356.381523 328.858721 
L 357.334052 283.196192 
L 358.286581 227.3329 
L 359.397865 147.380415 
L 360.50915 49.797015 
L 361.017139 -1 
L 361.017139 -1 
" style="fill:none;stroke:#ffb280;stroke-linecap:square;stroke-width:1.5;"/>
   </g>
   <g id="line2d_22">
    <path clip-path="url(#p9c49ac871c)" d="M 522.037411 335.506892 
L 513.410993 322.602814 
L 505.868391 311.685058 
L 498.131563 300.897532 
L 491.470688 292.006288 
L 485.945517 284.957033 
L 480.18135 277.963948 
L 475.650409 272.755727 
L 470.885323 267.578664 
L 465.814221 262.432574 
L 462.21404 259.018966 
L 458.390142 255.618991 
L 454.285188 252.2326 
L 449.819801 248.859749 
L 444.880411 245.500405 
L 439.298053 242.154565 
L 436.188839 240.486726 
L 432.809413 238.822308 
L 429.099895 237.161364 
L 424.981447 235.504012 
L 420.34877 233.850498 
L 415.059572 232.201408 
L 408.920599 230.558248 
L 401.672044 228.925484 
L 392.97975 227.318616 
L 382.464083 225.80084 
L 369.824144 224.628992 
L 355.091671 224.32325 
L 338.819109 224.728119 
L 289.26873 226.514638 
L 260.757273 227.718604 
L 236.927362 228.917808 
L 217.32938 230.112227 
L 201.326279 231.301877 
L 188.314038 232.486778 
L 177.769966 233.666949 
L 169.255351 234.842409 
L 162.40644 236.013176 
L 156.923301 237.17927 
L 152.559316 238.340708 
L 149.112004 239.49751 
L 146.415269 240.649694 
L 144.332936 241.797279 
L 142.753396 242.940282 
L 141.585199 244.078722 
L 140.753422 245.212618 
L 140.196691 246.341988 
L 139.864734 247.466848 
L 139.716375 248.587219 
L 139.76602 250.259394 
L 140.065093 251.921566 
L 140.740135 254.122339 
L 141.878879 256.848661 
L 143.501717 260.084463 
L 146.190503 264.865941 
L 150.870957 272.646274 
L 163.613653 293.229471 
L 198.060177 348.450407 
L 218.984721 381.606207 
L 234.002578 405.004912 
L 245.670122 422.787744 
L 255.193632 436.914051 
L 263.269896 448.511443 
L 270.289765 458.21579 
L 276.545888 466.490718 
L 282.086474 473.458299 
L 287.124957 479.442335 
L 291.67388 484.507935 
L 295.900734 488.885721 
L 299.798839 492.605615 
L 303.435644 495.7706 
L 306.793001 498.405434 
L 310.001644 500.645509 
L 313.027941 502.493545 
L 316.001059 504.047572 
L 318.873023 505.296847 
L 321.666699 506.275254 
L 324.526064 507.043169 
L 327.504372 507.609934 
L 330.648437 507.979417 
L 333.967057 508.15265 
L 337.756578 508.124647 
L 341.547129 507.89186 
L 345.41183 507.460727 
L 349.781552 506.733533 
L 353.203182 505.971878 
L 357.542109 504.741499 
L 361.157798 503.485421 
L 365.585479 501.692782 
L 374.487817 497.635261 
L 382.766899 494.000718 
L 387.948983 491.987365 
L 394.030522 489.898754 
L 401.171026 487.769617 
L 409.48816 485.623352 
L 418.992582 483.47281 
L 429.52786 481.323708 
L 484.914051 470.637513 
L 494.451161 468.513003 
L 503.188946 466.392738 
L 511.129462 464.27671 
L 518.300239 462.164909 
L 524.742677 460.057327 
L 530.504806 457.953957 
L 535.636922 455.854789 
L 540.189006 453.759815 
L 544.209263 451.669027 
L 547.743322 449.582416 
L 550.833851 447.499974 
L 553.520429 445.421693 
L 555.839554 443.347565 
L 557.824747 441.27758 
L 559.506701 439.211732 
L 560.913456 437.15001 
L 562.070587 435.092409 
L 563.001386 433.038918 
L 563.727046 430.98953 
L 564.266834 428.944237 
L 564.638254 426.903031 
L 564.857198 424.865902 
L 564.938091 422.832844 
L 564.894019 420.803848 
L 564.47734 416.75801 
L 563.689407 412.728323 
L 562.597764 408.714722 
L 561.257836 404.717144 
L 559.715066 400.735524 
L 557.100142 394.792876 
L 554.209425 388.885778 
L 551.115622 383.014016 
L 546.765015 375.239603 
L 541.082933 365.608642 
L 534.041684 354.1779 
L 525.636345 341.01425 
L 517.076074 328.033607 
L 508.347762 315.233427 
L 500.682413 304.403575 
L 494.107136 295.477445 
L 487.287879 286.640131 
L 481.587673 279.633635 
L 477.119884 274.415425 
L 472.43623 269.228433 
L 467.472294 264.072473 
L 462.136139 258.947362 
L 458.306986 255.547673 
L 454.195367 252.161568 
L 449.721334 248.789001 
L 444.770415 245.429941 
L 439.172145 242.084384 
L 436.052583 240.416689 
L 432.660598 238.752415 
L 428.935633 237.09162 
L 424.797906 235.434422 
L 420.140799 233.78108 
L 414.820184 232.132197 
L 408.640314 230.489351 
L 401.338297 228.857226 
L 392.577057 227.252221 
L 381.976845 225.74153 
L 369.244922 224.595532 
L 354.433012 224.330875 
L 338.114303 224.751151 
L 288.621679 226.540039 
L 260.209007 227.743907 
L 236.474082 228.943011 
L 216.958282 230.137328 
L 201.024008 231.326878 
L 188.06872 232.51168 
L 177.571539 233.691751 
L 169.095435 234.867112 
L 162.278113 236.037781 
L 156.820867 237.203776 
L 152.478093 238.365117 
L 149.048151 239.521821 
L 146.365637 240.673908 
L 144.294942 241.821396 
L 142.724926 242.964303 
L 141.564519 244.102648 
L 140.739112 245.236448 
L 140.187587 246.365722 
L 139.859884 247.490488 
L 139.714999 248.610764 
L 139.768693 250.282799 
L 140.070745 251.944831 
L 140.748563 254.145418 
L 141.889479 256.871511 
L 143.51376 260.107041 
L 146.203463 264.888115 
L 150.884135 272.667793 
L 163.625949 293.249256 
L 198.069668 348.465541 
L 218.992572 381.618548 
L 234.009305 405.015282 
L 245.676021 422.796617 
L 255.198894 436.921733 
L 263.274653 448.518148 
L 270.294117 458.221678 
L 276.549911 466.495909 
L 282.090238 473.462902 
L 287.128518 479.446432 
L 291.677293 484.511603 
L 295.904047 488.889017 
L 299.802101 492.608591 
L 303.438909 495.773299 
L 306.796324 498.407898 
L 310.005092 500.647764 
L 313.031593 502.495615 
L 316.005023 504.049468 
L 318.877438 505.298577 
L 321.67175 506.276815 
L 324.532044 507.044537 
L 327.511726 507.61106 
L 330.65784 507.980204 
L 333.979466 508.152928 
L 337.773705 508.124036 
L 341.570551 507.88983 
L 345.443436 507.456398 
L 349.824651 506.725027 
L 353.25694 505.958478 
L 357.611433 504.719367 
L 361.241788 503.453854 
L 365.68948 501.647902 
L 374.638859 497.565667 
L 382.969155 493.917981 
L 388.185823 491.900638 
L 394.308854 489.809693 
L 401.497046 487.679444 
L 409.864977 485.532803 
L 419.417271 483.382243 
L 429.989805 481.233263 
L 475.066526 472.676531 
L 485.331507 470.547948 
L 494.835403 468.423617 
L 503.539339 466.303531 
L 511.44675 464.18768 
L 518.58595 462.076057 
L 524.998738 459.968653 
L 530.733313 457.86546 
L 535.839999 455.766469 
L 540.368729 453.671671 
L 544.367608 451.581059 
L 547.882146 449.494624 
L 550.954885 447.412358 
L 553.625272 445.334252 
L 555.929677 443.260298 
L 557.901499 441.190488 
L 559.571314 439.124814 
L 560.967057 437.063266 
L 562.1142 435.005838 
L 563.035946 432.95252 
L 563.753402 430.903305 
L 564.285757 428.858184 
L 564.650445 426.817149 
L 564.863294 424.780193 
L 564.938669 422.747306 
L 564.889601 420.718481 
L 564.464313 416.672983 
L 563.669335 412.643635 
L 562.571931 408.630373 
L 561.227294 404.633131 
L 559.680679 400.651846 
L 557.061271 394.7097 
L 554.167252 388.803099 
L 551.071017 382.931832 
L 546.718132 375.158074 
L 541.034223 365.527924 
L 533.991642 354.098145 
L 525.585287 340.935603 
L 517.024102 327.956054 
L 508.294627 315.156952 
L 500.627832 304.328012 
L 494.050831 295.402634 
L 487.229133 286.566065 
L 481.526213 279.560158 
L 477.05575 274.342388 
L 472.368657 269.155833 
L 467.400212 264.000307 
L 462.057991 258.875629 
L 458.223547 255.476226 
L 454.105215 252.090406 
L 449.62247 248.718124 
L 444.659925 245.359348 
L 439.045598 242.014076 
L 435.915586 240.346525 
L 432.510912 238.682396 
L 428.770331 237.021749 
L 424.613101 235.364707 
L 419.931265 233.711536 
L 414.578826 232.062866 
L 408.357518 230.420339 
L 401.001336 228.788881 
L 392.170327 227.185841 
L 381.48485 225.68268 
L 368.660824 224.563724 
L 353.770375 224.33974 
L 337.407091 224.774437 
L 287.975342 226.565478 
L 259.661793 227.769249 
L 236.021807 228.968251 
L 216.588059 230.162468 
L 200.722473 231.351917 
L 187.824017 232.536619 
L 177.373621 233.716591 
L 168.935943 234.891852 
L 162.150139 236.062422 
L 156.718725 237.228319 
L 152.397113 238.389562 
L 148.984501 239.546169 
L 146.316175 240.698159 
L 144.257093 241.84555 
L 142.696578 242.98836 
L 141.543942 244.126609 
L 140.72489 245.260314 
L 140.17856 246.389492 
L 139.855101 247.514164 
L 139.713681 248.634345 
L 139.771415 250.306238 
L 140.076439 251.96813 
L 140.757026 254.168532 
L 141.900109 256.894395 
L 143.525829 260.129651 
L 146.216446 264.910323 
L 150.897335 272.689344 
L 163.638263 293.269071 
L 198.079174 348.480697 
L 219.000435 381.630908 
L 234.016043 405.025668 
L 245.681928 422.805502 
L 255.204163 436.929427 
L 263.279418 448.524863 
L 270.298475 458.227575 
L 276.55394 466.501107 
L 282.094007 473.467512 
L 287.132085 479.450535 
L 291.680711 484.515277 
L 295.907365 488.892317 
L 299.805369 492.611572 
L 303.442179 495.776003 
L 306.799652 498.410365 
L 310.008546 500.650022 
L 313.03525 502.497687 
L 316.008994 504.051366 
L 318.881861 505.300309 
L 321.67681 506.278378 
L 324.538036 507.045908 
L 327.519096 507.612187 
L 330.667264 507.980991 
L 333.991908 508.153204 
L 337.790885 508.123418 
L 341.594054 507.887786 
L 345.475167 507.452039 
L 349.867943 506.716455 
L 353.310963 505.944968 
L 357.681135 504.697037 
L 361.32627 503.421998 
L 365.794144 501.602629 
L 374.791017 497.495629 
L 378.675143 495.74258 
L 383.173057 493.834908 
L 388.42465 491.813644 
L 394.589528 489.720422 
L 401.825697 487.589101 
L 410.244523 485.442105 
L 419.844474 483.291536 
L 430.453716 481.14268 
L 475.513819 472.586652 
L 485.748262 470.458249 
L 495.218826 468.334097 
L 503.888867 466.21419 
L 511.763173 464.098518 
L 518.870821 461.987073 
L 525.253999 459.879847 
L 530.961066 457.776831 
L 536.042372 455.678016 
L 540.547794 453.583396 
L 544.525342 451.49296 
L 548.020405 449.406701 
L 551.075397 447.32461 
L 553.729632 445.24668 
L 556.019352 443.172901 
L 557.977835 441.103266 
L 559.635543 439.037765 
L 561.0203 436.976392 
L 562.157482 434.919137 
L 563.070197 432.865992 
L 563.77947 430.81695 
L 564.304412 428.772002 
L 564.662386 426.731139 
L 564.869155 424.694355 
L 564.939026 422.661639 
L 564.884977 420.632985 
L 564.451102 416.587829 
L 563.649097 412.558821 
L 562.545947 408.545897 
L 561.196615 404.548993 
L 559.646165 400.568044 
L 557.022284 394.626398 
L 554.124971 388.720296 
L 549.958301 380.900415 
L 545.552019 373.142843 
L 539.825204 363.532745 
L 532.751093 352.126765 
L 524.320149 338.991631 
L 515.736145 326.039107 
L 508.241399 315.080362 
L 500.573153 304.252336 
L 493.99442 295.32771 
L 487.17027 286.491887 
L 481.464622 279.486572 
L 476.991472 274.269242 
L 472.300922 269.083124 
L 467.327943 263.928033 
L 461.97962 258.803787 
L 458.139851 255.404672 
L 454.01476 252.019138 
L 449.523239 248.647141 
L 444.548974 245.288649 
L 438.918448 241.943663 
L 435.777886 240.276255 
L 432.360395 238.612272 
L 428.604029 236.951774 
L 424.427075 235.294888 
L 419.720213 233.641891 
L 414.335551 231.993435 
L 408.072267 230.351237 
L 400.661227 228.720473 
L 391.759645 227.119506 
L 380.988219 225.624346 
L 368.072039 224.53363 
L 353.104018 224.349782 
L 336.697765 224.797949 
L 287.329945 226.590945 
L 259.115814 227.794617 
L 235.570686 228.993518 
L 216.218827 230.187634 
L 200.421771 231.376983 
L 187.580005 232.561584 
L 177.176277 233.741457 
L 168.776924 234.916619 
L 162.022555 236.08709 
L 156.616906 237.252889 
L 152.316401 238.414033 
L 148.921075 239.570543 
L 146.266899 240.722435 
L 144.219398 241.869729 
L 142.668359 243.012443 
L 141.523475 244.150596 
L 140.710761 245.284205 
L 140.169611 246.413288 
L 139.850384 247.537864 
L 139.712421 248.657951 
L 139.774183 250.329703 
L 140.082171 251.991455 
L 140.76552 254.191671 
L 141.910764 256.917303 
L 143.537918 260.152287 
L 146.229445 264.932554 
L 150.910549 272.710918 
L 163.65059 293.288907 
L 198.08869 348.49587 
L 219.008307 381.643281 
L 234.022787 405.036065 
L 245.687842 422.814397 
L 255.209439 436.937129 
L 263.284187 448.531586 
L 270.302838 458.233478 
L 276.557974 466.50631 
L 282.097781 473.472126 
L 287.135656 479.454643 
L 291.684133 484.518955 
L 295.910686 488.895621 
L 299.80864 492.614555 
L 299.963538 492.755551 
L 299.963538 492.755551 
" style="fill:none;stroke:#000000;stroke-linecap:square;stroke-width:1.5;"/>
   </g>
   <g id="patch_3">
    <path d="M 127.584 528.12 
L 127.584 191.88 
" style="fill:none;stroke:#000000;stroke-linecap:square;stroke-linejoin:miter;stroke-width:0.8;"/>
   </g>
   <g id="patch_4">
    <path d="M 592.416 528.12 
L 592.416 191.88 
" style="fill:none;stroke:#000000;stroke-linecap:square;stroke-linejoin:miter;stroke-width:0.8;"/>
   </g>
   <g id="patch_5">
    <path d="M 127.584 528.12 
L 592.416 528.12 
" style="fill:none;stroke:#000000;stroke-linecap:square;stroke-linejoin:miter;stroke-width:0.8;"/>
   </g>
   <g id="patch_6">
    <path d="M 127.584 191.88 
L 592.416 191.88 
" style="fill:none;stroke:#000000;stroke-linecap:square;stroke-linejoin:miter;stroke-width:0.8;"/>
   </g>
  </g>
 </g>
 <defs>
  <clipPath id="p9c49ac871c">
   <rect height="336.24" width="464.832" x="127.584" y="191.88"/>
  </clipPath>
 </defs>
</svg>
