<?xml version="1.0" encoding="utf-8" standalone="no"?>
<!DOCTYPE svg PUBLIC "-//W3C//DTD SVG 1.1//EN"
  "http://www.w3.org/Graphics/SVG/1.1/DTD/svg11.dtd">
<!-- Created with matplotlib (http://matplotlib.org/) -->
<svg height="720pt" version="1.1" viewBox="0 0 720 720" width="720pt" xmlns="http://www.w3.org/2000/svg" xmlns:xlink="http://www.w3.org/1999/xlink">
 <defs>
  <style type="text/css">
*{stroke-linecap:butt;stroke-linejoin:round;}
  </style>
 </defs>
 <g id="figure_1">
  <g id="patch_1">
   <path d="M 0 720 
L 720 720 
L 720 0 
L 0 0 
z
" style="fill:#ffffff;"/>
  </g>
  <g id="axes_1">
   <g id="patch_2">
    <path d="M 127.584 528.12 
L 592.416 528.12 
L 592.416 191.88 
L 127.584 191.88 
z
" style="fill:#ffffff;"/>
   </g>
   <g id="matplotlib.axis_1">
    <g id="xtick_1">
     <g id="line2d_1">
      <defs>
       <path d="M 0 0 
L 0 3.5 
" id="m1f0fac54fd" style="stroke:#000000;stroke-width:0.8;"/>
      </defs>
      <g>
       <use style="stroke:#000000;stroke-width:0.8;" x="148.712727" xlink:href="#m1f0fac54fd" y="528.12"/>
      </g>
     </g>
     <g id="text_1">
      <!-- 0 -->
      <defs>
       <path d="M 31.78125 66.40625 
Q 24.171875 66.40625 20.328125 58.90625 
Q 16.5 51.421875 16.5 36.375 
Q 16.5 21.390625 20.328125 13.890625 
Q 24.171875 6.390625 31.78125 6.390625 
Q 39.453125 6.390625 43.28125 13.890625 
Q 47.125 21.390625 47.125 36.375 
Q 47.125 51.421875 43.28125 58.90625 
Q 39.453125 66.40625 31.78125 66.40625 
z
M 31.78125 74.21875 
Q 44.046875 74.21875 50.515625 64.515625 
Q 56.984375 54.828125 56.984375 36.375 
Q 56.984375 17.96875 50.515625 8.265625 
Q 44.046875 -1.421875 31.78125 -1.421875 
Q 19.53125 -1.421875 13.0625 8.265625 
Q 6.59375 17.96875 6.59375 36.375 
Q 6.59375 54.828125 13.0625 64.515625 
Q 19.53125 74.21875 31.78125 74.21875 
z
" id="DejaVuSans-30"/>
      </defs>
      <g transform="translate(143.622727 547.2775)scale(0.16 -0.16)">
       <use xlink:href="#DejaVuSans-30"/>
      </g>
     </g>
    </g>
    <g id="xtick_2">
     <g id="line2d_2">
      <g>
       <use style="stroke:#000000;stroke-width:0.8;" x="233.228482" xlink:href="#m1f0fac54fd" y="528.12"/>
      </g>
     </g>
     <g id="text_2">
      <!-- 200 -->
      <defs>
       <path d="M 19.1875 8.296875 
L 53.609375 8.296875 
L 53.609375 0 
L 7.328125 0 
L 7.328125 8.296875 
Q 12.9375 14.109375 22.625 23.890625 
Q 32.328125 33.6875 34.8125 36.53125 
Q 39.546875 41.84375 41.421875 45.53125 
Q 43.3125 49.21875 43.3125 52.78125 
Q 43.3125 58.59375 39.234375 62.25 
Q 35.15625 65.921875 28.609375 65.921875 
Q 23.96875 65.921875 18.8125 64.3125 
Q 13.671875 62.703125 7.8125 59.421875 
L 7.8125 69.390625 
Q 13.765625 71.78125 18.9375 73 
Q 24.125 74.21875 28.421875 74.21875 
Q 39.75 74.21875 46.484375 68.546875 
Q 53.21875 62.890625 53.21875 53.421875 
Q 53.21875 48.921875 51.53125 44.890625 
Q 49.859375 40.875 45.40625 35.40625 
Q 44.1875 33.984375 37.640625 27.21875 
Q 31.109375 20.453125 19.1875 8.296875 
z
" id="DejaVuSans-32"/>
      </defs>
      <g transform="translate(217.958482 547.2775)scale(0.16 -0.16)">
       <use xlink:href="#DejaVuSans-32"/>
       <use x="63.623047" xlink:href="#DejaVuSans-30"/>
       <use x="127.246094" xlink:href="#DejaVuSans-30"/>
      </g>
     </g>
    </g>
    <g id="xtick_3">
     <g id="line2d_3">
      <g>
       <use style="stroke:#000000;stroke-width:0.8;" x="317.744236" xlink:href="#m1f0fac54fd" y="528.12"/>
      </g>
     </g>
     <g id="text_3">
      <!-- 400 -->
      <defs>
       <path d="M 37.796875 64.3125 
L 12.890625 25.390625 
L 37.796875 25.390625 
z
M 35.203125 72.90625 
L 47.609375 72.90625 
L 47.609375 25.390625 
L 58.015625 25.390625 
L 58.015625 17.1875 
L 47.609375 17.1875 
L 47.609375 0 
L 37.796875 0 
L 37.796875 17.1875 
L 4.890625 17.1875 
L 4.890625 26.703125 
z
" id="DejaVuSans-34"/>
      </defs>
      <g transform="translate(302.474236 547.2775)scale(0.16 -0.16)">
       <use xlink:href="#DejaVuSans-34"/>
       <use x="63.623047" xlink:href="#DejaVuSans-30"/>
       <use x="127.246094" xlink:href="#DejaVuSans-30"/>
      </g>
     </g>
    </g>
    <g id="xtick_4">
     <g id="line2d_4">
      <g>
       <use style="stroke:#000000;stroke-width:0.8;" x="402.25999" xlink:href="#m1f0fac54fd" y="528.12"/>
      </g>
     </g>
     <g id="text_4">
      <!-- 600 -->
      <defs>
       <path d="M 33.015625 40.375 
Q 26.375 40.375 22.484375 35.828125 
Q 18.609375 31.296875 18.609375 23.390625 
Q 18.609375 15.53125 22.484375 10.953125 
Q 26.375 6.390625 33.015625 6.390625 
Q 39.65625 6.390625 43.53125 10.953125 
Q 47.40625 15.53125 47.40625 23.390625 
Q 47.40625 31.296875 43.53125 35.828125 
Q 39.65625 40.375 33.015625 40.375 
z
M 52.59375 71.296875 
L 52.59375 62.3125 
Q 48.875 64.0625 45.09375 64.984375 
Q 41.3125 65.921875 37.59375 65.921875 
Q 27.828125 65.921875 22.671875 59.328125 
Q 17.53125 52.734375 16.796875 39.40625 
Q 19.671875 43.65625 24.015625 45.921875 
Q 28.375 48.1875 33.59375 48.1875 
Q 44.578125 48.1875 50.953125 41.515625 
Q 57.328125 34.859375 57.328125 23.390625 
Q 57.328125 12.15625 50.6875 5.359375 
Q 44.046875 -1.421875 33.015625 -1.421875 
Q 20.359375 -1.421875 13.671875 8.265625 
Q 6.984375 17.96875 6.984375 36.375 
Q 6.984375 53.65625 15.1875 63.9375 
Q 23.390625 74.21875 37.203125 74.21875 
Q 40.921875 74.21875 44.703125 73.484375 
Q 48.484375 72.75 52.59375 71.296875 
z
" id="DejaVuSans-36"/>
      </defs>
      <g transform="translate(386.98999 547.2775)scale(0.16 -0.16)">
       <use xlink:href="#DejaVuSans-36"/>
       <use x="63.623047" xlink:href="#DejaVuSans-30"/>
       <use x="127.246094" xlink:href="#DejaVuSans-30"/>
      </g>
     </g>
    </g>
    <g id="xtick_5">
     <g id="line2d_5">
      <g>
       <use style="stroke:#000000;stroke-width:0.8;" x="486.775744" xlink:href="#m1f0fac54fd" y="528.12"/>
      </g>
     </g>
     <g id="text_5">
      <!-- 800 -->
      <defs>
       <path d="M 31.78125 34.625 
Q 24.75 34.625 20.71875 30.859375 
Q 16.703125 27.09375 16.703125 20.515625 
Q 16.703125 13.921875 20.71875 10.15625 
Q 24.75 6.390625 31.78125 6.390625 
Q 38.8125 6.390625 42.859375 10.171875 
Q 46.921875 13.96875 46.921875 20.515625 
Q 46.921875 27.09375 42.890625 30.859375 
Q 38.875 34.625 31.78125 34.625 
z
M 21.921875 38.8125 
Q 15.578125 40.375 12.03125 44.71875 
Q 8.5 49.078125 8.5 55.328125 
Q 8.5 64.0625 14.71875 69.140625 
Q 20.953125 74.21875 31.78125 74.21875 
Q 42.671875 74.21875 48.875 69.140625 
Q 55.078125 64.0625 55.078125 55.328125 
Q 55.078125 49.078125 51.53125 44.71875 
Q 48 40.375 41.703125 38.8125 
Q 48.828125 37.15625 52.796875 32.3125 
Q 56.78125 27.484375 56.78125 20.515625 
Q 56.78125 9.90625 50.3125 4.234375 
Q 43.84375 -1.421875 31.78125 -1.421875 
Q 19.734375 -1.421875 13.25 4.234375 
Q 6.78125 9.90625 6.78125 20.515625 
Q 6.78125 27.484375 10.78125 32.3125 
Q 14.796875 37.15625 21.921875 38.8125 
z
M 18.3125 54.390625 
Q 18.3125 48.734375 21.84375 45.5625 
Q 25.390625 42.390625 31.78125 42.390625 
Q 38.140625 42.390625 41.71875 45.5625 
Q 45.3125 48.734375 45.3125 54.390625 
Q 45.3125 60.0625 41.71875 63.234375 
Q 38.140625 66.40625 31.78125 66.40625 
Q 25.390625 66.40625 21.84375 63.234375 
Q 18.3125 60.0625 18.3125 54.390625 
z
" id="DejaVuSans-38"/>
      </defs>
      <g transform="translate(471.505744 547.2775)scale(0.16 -0.16)">
       <use xlink:href="#DejaVuSans-38"/>
       <use x="63.623047" xlink:href="#DejaVuSans-30"/>
       <use x="127.246094" xlink:href="#DejaVuSans-30"/>
      </g>
     </g>
    </g>
    <g id="xtick_6">
     <g id="line2d_6">
      <g>
       <use style="stroke:#000000;stroke-width:0.8;" x="571.291499" xlink:href="#m1f0fac54fd" y="528.12"/>
      </g>
     </g>
     <g id="text_6">
      <!-- 1000 -->
      <defs>
       <path d="M 12.40625 8.296875 
L 28.515625 8.296875 
L 28.515625 63.921875 
L 10.984375 60.40625 
L 10.984375 69.390625 
L 28.421875 72.90625 
L 38.28125 72.90625 
L 38.28125 8.296875 
L 54.390625 8.296875 
L 54.390625 0 
L 12.40625 0 
z
" id="DejaVuSans-31"/>
      </defs>
      <g transform="translate(550.931499 547.2775)scale(0.16 -0.16)">
       <use xlink:href="#DejaVuSans-31"/>
       <use x="63.623047" xlink:href="#DejaVuSans-30"/>
       <use x="127.246094" xlink:href="#DejaVuSans-30"/>
       <use x="190.869141" xlink:href="#DejaVuSans-30"/>
      </g>
     </g>
    </g>
    <g id="text_7">
     <!-- t -->
     <defs>
      <path d="M 18.3125 70.21875 
L 18.3125 54.6875 
L 36.8125 54.6875 
L 36.8125 47.703125 
L 18.3125 47.703125 
L 18.3125 18.015625 
Q 18.3125 11.328125 20.140625 9.421875 
Q 21.96875 7.515625 27.59375 7.515625 
L 36.8125 7.515625 
L 36.8125 0 
L 27.59375 0 
Q 17.1875 0 13.234375 3.875 
Q 9.28125 7.765625 9.28125 18.015625 
L 9.28125 47.703125 
L 2.6875 47.703125 
L 2.6875 54.6875 
L 9.28125 54.6875 
L 9.28125 70.21875 
z
" id="DejaVuSans-74"/>
     </defs>
     <g transform="translate(356.86375 566.7625)scale(0.16 -0.16)">
      <use xlink:href="#DejaVuSans-74"/>
     </g>
    </g>
   </g>
   <g id="matplotlib.axis_2">
    <g id="ytick_1">
     <g id="line2d_7">
      <defs>
       <path d="M 0 0 
L -3.5 0 
" id="mfce3bf6b4f" style="stroke:#000000;stroke-width:0.8;"/>
      </defs>
      <g>
       <use style="stroke:#000000;stroke-width:0.8;" x="127.584" xlink:href="#mfce3bf6b4f" y="510.949216"/>
      </g>
     </g>
     <g id="text_8">
      <!-- 0 -->
      <g transform="translate(110.404 517.027966)scale(0.16 -0.16)">
       <use xlink:href="#DejaVuSans-30"/>
      </g>
     </g>
    </g>
    <g id="ytick_2">
     <g id="line2d_8">
      <g>
       <use style="stroke:#000000;stroke-width:0.8;" x="127.584" xlink:href="#mfce3bf6b4f" y="460.866466"/>
      </g>
     </g>
     <g id="text_9">
      <!-- 2 -->
      <g transform="translate(110.404 466.945216)scale(0.16 -0.16)">
       <use xlink:href="#DejaVuSans-32"/>
      </g>
     </g>
    </g>
    <g id="ytick_3">
     <g id="line2d_9">
      <g>
       <use style="stroke:#000000;stroke-width:0.8;" x="127.584" xlink:href="#mfce3bf6b4f" y="410.783717"/>
      </g>
     </g>
     <g id="text_10">
      <!-- 4 -->
      <g transform="translate(110.404 416.862467)scale(0.16 -0.16)">
       <use xlink:href="#DejaVuSans-34"/>
      </g>
     </g>
    </g>
    <g id="ytick_4">
     <g id="line2d_10">
      <g>
       <use style="stroke:#000000;stroke-width:0.8;" x="127.584" xlink:href="#mfce3bf6b4f" y="360.700968"/>
      </g>
     </g>
     <g id="text_11">
      <!-- 6 -->
      <g transform="translate(110.404 366.779718)scale(0.16 -0.16)">
       <use xlink:href="#DejaVuSans-36"/>
      </g>
     </g>
    </g>
    <g id="ytick_5">
     <g id="line2d_11">
      <g>
       <use style="stroke:#000000;stroke-width:0.8;" x="127.584" xlink:href="#mfce3bf6b4f" y="310.618219"/>
      </g>
     </g>
     <g id="text_12">
      <!-- 8 -->
      <g transform="translate(110.404 316.696969)scale(0.16 -0.16)">
       <use xlink:href="#DejaVuSans-38"/>
      </g>
     </g>
    </g>
    <g id="ytick_6">
     <g id="line2d_12">
      <g>
       <use style="stroke:#000000;stroke-width:0.8;" x="127.584" xlink:href="#mfce3bf6b4f" y="260.535469"/>
      </g>
     </g>
     <g id="text_13">
      <!-- 10 -->
      <g transform="translate(100.224 266.614219)scale(0.16 -0.16)">
       <use xlink:href="#DejaVuSans-31"/>
       <use x="63.623047" xlink:href="#DejaVuSans-30"/>
      </g>
     </g>
    </g>
    <g id="ytick_7">
     <g id="line2d_13">
      <g>
       <use style="stroke:#000000;stroke-width:0.8;" x="127.584" xlink:href="#mfce3bf6b4f" y="210.45272"/>
      </g>
     </g>
     <g id="text_14">
      <!-- 12 -->
      <g transform="translate(100.224 216.53147)scale(0.16 -0.16)">
       <use xlink:href="#DejaVuSans-31"/>
       <use x="63.623047" xlink:href="#DejaVuSans-32"/>
      </g>
     </g>
    </g>
    <g id="text_15">
     <!-- u -->
     <defs>
      <path d="M 8.5 21.578125 
L 8.5 54.6875 
L 17.484375 54.6875 
L 17.484375 21.921875 
Q 17.484375 14.15625 20.5 10.265625 
Q 23.53125 6.390625 29.59375 6.390625 
Q 36.859375 6.390625 41.078125 11.03125 
Q 45.3125 15.671875 45.3125 23.6875 
L 45.3125 54.6875 
L 54.296875 54.6875 
L 54.296875 0 
L 45.3125 0 
L 45.3125 8.40625 
Q 42.046875 3.421875 37.71875 1 
Q 33.40625 -1.421875 27.6875 -1.421875 
Q 18.265625 -1.421875 13.375 4.4375 
Q 8.5 10.296875 8.5 21.578125 
z
M 31.109375 56 
z
" id="DejaVuSans-75"/>
     </defs>
     <g transform="translate(92.8965 365.07)rotate(-90)scale(0.16 -0.16)">
      <use xlink:href="#DejaVuSans-75"/>
     </g>
    </g>
   </g>
   <g id="line2d_14">
    <path clip-path="url(#pbd8afebcea)" d="M 148.712727 293.601321 
L 148.911339 209.008729 
L 148.915565 208.901141 
L 148.94092 211.016822 
L 149.063468 255.292088 
L 149.50295 508.471963 
L 149.701562 512.229783 
L 149.900174 512.772299 
L 150.141044 512.822462 
L 151.531328 512.600826 
L 155.685277 512.063846 
L 160.866093 511.628826 
L 173.58994 510.669641 
L 177.955178 510.019332 
L 182.797931 509.064589 
L 189.330999 507.530583 
L 201.628041 504.377026 
L 206.546858 502.935866 
L 208.841461 502.050461 
L 210.121874 501.334551 
L 210.895193 500.658477 
L 211.398062 499.92572 
L 211.753028 498.997329 
L 212.010801 497.655191 
L 212.200962 495.342982 
L 212.327735 490.767309 
L 212.4038 477.924395 
L 212.467186 393.194673 
L 212.67425 219.492689 
L 212.75454 207.163636 
L 212.796798 214.14156 
L 212.919346 280.203922 
L 213.134861 482.448881 
L 213.337699 508.483174 
L 213.536311 512.241411 
L 213.734923 512.783806 
L 213.975793 512.833725 
L 215.366077 512.610701 
L 219.507349 512.071859 
L 224.66281 511.635584 
L 237.597946 510.655969 
L 241.967411 509.999355 
L 246.831292 509.035038 
L 253.440424 507.47821 
L 265.796627 504.303816 
L 270.546413 502.901625 
L 272.790306 502.026633 
L 274.049591 501.313457 
L 274.810233 500.638856 
L 275.308876 499.900251 
L 275.659616 498.965004 
L 275.917389 497.586458 
L 276.103324 495.250015 
L 276.230097 490.441367 
L 276.301936 477.741709 
L 276.365322 392.477217 
L 276.572386 219.384793 
L 276.652676 207.166883 
L 276.694934 214.264914 
L 276.817482 280.954673 
L 277.032997 482.566362 
L 277.235835 508.500332 
L 277.434447 512.243964 
L 277.633059 512.784132 
L 277.873929 512.833693 
L 279.272664 512.609308 
L 283.418162 512.070469 
L 288.577849 511.634422 
L 301.479179 510.658023 
L 305.848643 510.002241 
L 310.712525 509.038639 
L 317.313205 507.484387 
L 329.665183 504.31172 
L 334.436097 502.904342 
L 336.684216 502.028422 
L 337.943501 501.316159 
L 338.704143 500.643209 
L 339.202786 499.907732 
L 339.553526 498.979018 
L 339.811299 497.616369 
L 339.997234 495.326851 
L 340.124007 490.711621 
L 340.200072 477.555664 
L 340.263458 391.759713 
L 340.470522 219.277344 
L 340.550812 207.171265 
L 340.59307 214.388923 
L 340.715618 281.711882 
L 340.931133 482.68339 
L 341.133971 508.517423 
L 341.332583 512.246508 
L 341.531195 512.784457 
L 341.772065 512.833661 
L 343.175026 512.60858 
L 347.320524 512.069978 
L 352.480211 511.634112 
L 365.368863 510.659024 
L 369.738328 510.003648 
L 374.597984 509.041316 
L 381.190212 507.489517 
L 393.537964 504.318475 
L 398.321556 502.908481 
L 400.578127 502.03021 
L 401.841637 501.315871 
L 402.602279 500.642745 
L 403.100922 499.906936 
L 403.451662 498.977529 
L 403.709435 497.613199 
L 403.89537 495.318752 
L 404.022143 490.683525 
L 404.098208 477.366171 
L 404.161594 391.042263 
L 404.368658 219.170341 
L 404.444722 207.173796 
L 404.491206 214.513574 
L 404.613754 282.475087 
L 404.825043 481.568253 
L 405.027881 508.354555 
L 405.226493 512.222259 
L 405.425105 512.781349 
L 405.665975 512.833956 
L 407.009775 512.618502 
L 411.142596 512.078035 
L 416.281154 511.640624 
L 429.37687 510.64524 
L 433.746334 509.984304 
L 438.631345 509.011664 
L 445.303864 507.436015 
L 457.693873 504.248395 
L 462.321111 502.873986 
L 464.526972 502.006144 
L 465.769354 501.294514 
L 466.521544 500.618003 
L 467.011735 499.881118 
L 467.35825 498.944798 
L 467.611797 497.576794 
L 467.797732 495.224996 
L 467.924505 490.351533 
L 467.996344 477.173134 
L 468.063956 382.914422 
L 468.266794 219.063782 
L 468.342858 207.16898 
L 468.389342 214.638851 
L 468.51189 283.243826 
L 468.723179 481.689125 
L 468.926017 508.37221 
L 469.124629 512.224889 
L 469.323241 512.781687 
L 469.564111 512.833925 
L 470.916363 512.617103 
L 475.049183 512.077089 
L 480.187741 511.640026 
L 493.266554 510.64625 
L 497.636019 509.98572 
L 502.516803 509.014352 
L 509.180871 507.441154 
L 521.566655 504.255184 
L 526.210795 502.876723 
L 528.420882 502.007952 
L 529.663264 501.29725 
L 530.415454 500.622423 
L 530.909871 499.880307 
L 531.256386 498.943277 
L 531.509933 497.573563 
L 531.695868 495.216609 
L 531.822641 490.32121 
L 531.89448 476.97646 
L 531.962092 382.205243 
L 532.16493 218.957668 
L 532.240994 207.165223 
L 532.287478 214.764742 
L 532.410026 284.017641 
L 532.621315 481.80953 
L 532.824153 508.389796 
L 533.022765 512.227508 
L 533.221377 512.782024 
L 533.462247 512.833894 
L 534.818725 512.616372 
L 538.951545 512.076594 
L 544.094329 511.639428 
L 557.152013 510.64779 
L 561.521477 509.987877 
L 566.402262 509.017038 
L 571.287273 507.881275 
L 571.287273 507.881275 
" style="fill:none;stroke:#1f77b4;stroke-linecap:square;stroke-width:1.5;"/>
   </g>
   <g id="patch_3">
    <path d="M 127.584 528.12 
L 127.584 191.88 
" style="fill:none;stroke:#000000;stroke-linecap:square;stroke-linejoin:miter;stroke-width:0.8;"/>
   </g>
   <g id="patch_4">
    <path d="M 592.416 528.12 
L 592.416 191.88 
" style="fill:none;stroke:#000000;stroke-linecap:square;stroke-linejoin:miter;stroke-width:0.8;"/>
   </g>
   <g id="patch_5">
    <path d="M 127.584 528.12 
L 592.416 528.12 
" style="fill:none;stroke:#000000;stroke-linecap:square;stroke-linejoin:miter;stroke-width:0.8;"/>
   </g>
   <g id="patch_6">
    <path d="M 127.584 191.88 
L 592.416 191.88 
" style="fill:none;stroke:#000000;stroke-linecap:square;stroke-linejoin:miter;stroke-width:0.8;"/>
   </g>
  </g>
 </g>
 <defs>
  <clipPath id="pbd8afebcea">
   <rect height="336.24" width="464.832" x="127.584" y="191.88"/>
  </clipPath>
 </defs>
</svg>
