<?xml version="1.0" encoding="utf-8" standalone="no"?>
<!DOCTYPE svg PUBLIC "-//W3C//DTD SVG 1.1//EN"
  "http://www.w3.org/Graphics/SVG/1.1/DTD/svg11.dtd">
<!-- Created with matplotlib (http://matplotlib.org/) -->
<svg height="720pt" version="1.1" viewBox="0 0 720 720" width="720pt" xmlns="http://www.w3.org/2000/svg" xmlns:xlink="http://www.w3.org/1999/xlink">
 <defs>
  <style type="text/css">
*{stroke-linecap:butt;stroke-linejoin:round;}
  </style>
 </defs>
 <g id="figure_1">
  <g id="patch_1">
   <path d="M 0 720 
L 720 720 
L 720 0 
L 0 0 
z
" style="fill:#ffffff;"/>
  </g>
  <g id="axes_1">
   <g id="patch_2">
    <path d="M 127.584 528.12 
L 592.416 528.12 
L 592.416 191.88 
L 127.584 191.88 
z
" style="fill:#ffffff;"/>
   </g>
   <g id="matplotlib.axis_1">
    <g id="xtick_1">
     <g id="line2d_1">
      <defs>
       <path d="M 0 0 
L 0 3.5 
" id="mf88a3c5982" style="stroke:#000000;stroke-width:0.8;"/>
      </defs>
      <g>
       <use style="stroke:#000000;stroke-width:0.8;" x="160.786286" xlink:href="#mf88a3c5982" y="528.12"/>
      </g>
     </g>
     <g id="text_1">
      <!-- −6 -->
      <defs>
       <path d="M 10.59375 35.5 
L 73.1875 35.5 
L 73.1875 27.203125 
L 10.59375 27.203125 
z
" id="DejaVuSans-2212"/>
       <path d="M 33.015625 40.375 
Q 26.375 40.375 22.484375 35.828125 
Q 18.609375 31.296875 18.609375 23.390625 
Q 18.609375 15.53125 22.484375 10.953125 
Q 26.375 6.390625 33.015625 6.390625 
Q 39.65625 6.390625 43.53125 10.953125 
Q 47.40625 15.53125 47.40625 23.390625 
Q 47.40625 31.296875 43.53125 35.828125 
Q 39.65625 40.375 33.015625 40.375 
z
M 52.59375 71.296875 
L 52.59375 62.3125 
Q 48.875 64.0625 45.09375 64.984375 
Q 41.3125 65.921875 37.59375 65.921875 
Q 27.828125 65.921875 22.671875 59.328125 
Q 17.53125 52.734375 16.796875 39.40625 
Q 19.671875 43.65625 24.015625 45.921875 
Q 28.375 48.1875 33.59375 48.1875 
Q 44.578125 48.1875 50.953125 41.515625 
Q 57.328125 34.859375 57.328125 23.390625 
Q 57.328125 12.15625 50.6875 5.359375 
Q 44.046875 -1.421875 33.015625 -1.421875 
Q 20.359375 -1.421875 13.671875 8.265625 
Q 6.984375 17.96875 6.984375 36.375 
Q 6.984375 53.65625 15.1875 63.9375 
Q 23.390625 74.21875 37.203125 74.21875 
Q 40.921875 74.21875 44.703125 73.484375 
Q 48.484375 72.75 52.59375 71.296875 
z
" id="DejaVuSans-36"/>
      </defs>
      <g transform="translate(148.992536 547.2775)scale(0.16 -0.16)">
       <use xlink:href="#DejaVuSans-2212"/>
       <use x="83.789062" xlink:href="#DejaVuSans-36"/>
      </g>
     </g>
    </g>
    <g id="xtick_2">
     <g id="line2d_2">
      <g>
       <use style="stroke:#000000;stroke-width:0.8;" x="227.190857" xlink:href="#mf88a3c5982" y="528.12"/>
      </g>
     </g>
     <g id="text_2">
      <!-- −4 -->
      <defs>
       <path d="M 37.796875 64.3125 
L 12.890625 25.390625 
L 37.796875 25.390625 
z
M 35.203125 72.90625 
L 47.609375 72.90625 
L 47.609375 25.390625 
L 58.015625 25.390625 
L 58.015625 17.1875 
L 47.609375 17.1875 
L 47.609375 0 
L 37.796875 0 
L 37.796875 17.1875 
L 4.890625 17.1875 
L 4.890625 26.703125 
z
" id="DejaVuSans-34"/>
      </defs>
      <g transform="translate(215.397107 547.2775)scale(0.16 -0.16)">
       <use xlink:href="#DejaVuSans-2212"/>
       <use x="83.789062" xlink:href="#DejaVuSans-34"/>
      </g>
     </g>
    </g>
    <g id="xtick_3">
     <g id="line2d_3">
      <g>
       <use style="stroke:#000000;stroke-width:0.8;" x="293.595429" xlink:href="#mf88a3c5982" y="528.12"/>
      </g>
     </g>
     <g id="text_3">
      <!-- −2 -->
      <defs>
       <path d="M 19.1875 8.296875 
L 53.609375 8.296875 
L 53.609375 0 
L 7.328125 0 
L 7.328125 8.296875 
Q 12.9375 14.109375 22.625 23.890625 
Q 32.328125 33.6875 34.8125 36.53125 
Q 39.546875 41.84375 41.421875 45.53125 
Q 43.3125 49.21875 43.3125 52.78125 
Q 43.3125 58.59375 39.234375 62.25 
Q 35.15625 65.921875 28.609375 65.921875 
Q 23.96875 65.921875 18.8125 64.3125 
Q 13.671875 62.703125 7.8125 59.421875 
L 7.8125 69.390625 
Q 13.765625 71.78125 18.9375 73 
Q 24.125 74.21875 28.421875 74.21875 
Q 39.75 74.21875 46.484375 68.546875 
Q 53.21875 62.890625 53.21875 53.421875 
Q 53.21875 48.921875 51.53125 44.890625 
Q 49.859375 40.875 45.40625 35.40625 
Q 44.1875 33.984375 37.640625 27.21875 
Q 31.109375 20.453125 19.1875 8.296875 
z
" id="DejaVuSans-32"/>
      </defs>
      <g transform="translate(281.801679 547.2775)scale(0.16 -0.16)">
       <use xlink:href="#DejaVuSans-2212"/>
       <use x="83.789062" xlink:href="#DejaVuSans-32"/>
      </g>
     </g>
    </g>
    <g id="xtick_4">
     <g id="line2d_4">
      <g>
       <use style="stroke:#000000;stroke-width:0.8;" x="360" xlink:href="#mf88a3c5982" y="528.12"/>
      </g>
     </g>
     <g id="text_4">
      <!-- 0 -->
      <defs>
       <path d="M 31.78125 66.40625 
Q 24.171875 66.40625 20.328125 58.90625 
Q 16.5 51.421875 16.5 36.375 
Q 16.5 21.390625 20.328125 13.890625 
Q 24.171875 6.390625 31.78125 6.390625 
Q 39.453125 6.390625 43.28125 13.890625 
Q 47.125 21.390625 47.125 36.375 
Q 47.125 51.421875 43.28125 58.90625 
Q 39.453125 66.40625 31.78125 66.40625 
z
M 31.78125 74.21875 
Q 44.046875 74.21875 50.515625 64.515625 
Q 56.984375 54.828125 56.984375 36.375 
Q 56.984375 17.96875 50.515625 8.265625 
Q 44.046875 -1.421875 31.78125 -1.421875 
Q 19.53125 -1.421875 13.0625 8.265625 
Q 6.59375 17.96875 6.59375 36.375 
Q 6.59375 54.828125 13.0625 64.515625 
Q 19.53125 74.21875 31.78125 74.21875 
z
" id="DejaVuSans-30"/>
      </defs>
      <g transform="translate(354.91 547.2775)scale(0.16 -0.16)">
       <use xlink:href="#DejaVuSans-30"/>
      </g>
     </g>
    </g>
    <g id="xtick_5">
     <g id="line2d_5">
      <g>
       <use style="stroke:#000000;stroke-width:0.8;" x="426.404571" xlink:href="#mf88a3c5982" y="528.12"/>
      </g>
     </g>
     <g id="text_5">
      <!-- 2 -->
      <g transform="translate(421.314571 547.2775)scale(0.16 -0.16)">
       <use xlink:href="#DejaVuSans-32"/>
      </g>
     </g>
    </g>
    <g id="xtick_6">
     <g id="line2d_6">
      <g>
       <use style="stroke:#000000;stroke-width:0.8;" x="492.809143" xlink:href="#mf88a3c5982" y="528.12"/>
      </g>
     </g>
     <g id="text_6">
      <!-- 4 -->
      <g transform="translate(487.719143 547.2775)scale(0.16 -0.16)">
       <use xlink:href="#DejaVuSans-34"/>
      </g>
     </g>
    </g>
    <g id="xtick_7">
     <g id="line2d_7">
      <g>
       <use style="stroke:#000000;stroke-width:0.8;" x="559.213714" xlink:href="#mf88a3c5982" y="528.12"/>
      </g>
     </g>
     <g id="text_7">
      <!-- 6 -->
      <g transform="translate(554.123714 547.2775)scale(0.16 -0.16)">
       <use xlink:href="#DejaVuSans-36"/>
      </g>
     </g>
    </g>
    <g id="text_8">
     <!-- x -->
     <defs>
      <path d="M 54.890625 54.6875 
L 35.109375 28.078125 
L 55.90625 0 
L 45.3125 0 
L 29.390625 21.484375 
L 13.484375 0 
L 2.875 0 
L 24.125 28.609375 
L 4.6875 54.6875 
L 15.28125 54.6875 
L 29.78125 35.203125 
L 44.28125 54.6875 
z
" id="DejaVuSans-78"/>
     </defs>
     <g transform="translate(355.265 566.7625)scale(0.16 -0.16)">
      <use xlink:href="#DejaVuSans-78"/>
     </g>
    </g>
   </g>
   <g id="matplotlib.axis_2">
    <g id="ytick_1">
     <g id="line2d_8">
      <defs>
       <path d="M 0 0 
L -3.5 0 
" id="mbff126053a" style="stroke:#000000;stroke-width:0.8;"/>
      </defs>
      <g>
       <use style="stroke:#000000;stroke-width:0.8;" x="127.584" xlink:href="#mbff126053a" y="507.105"/>
      </g>
     </g>
     <g id="text_9">
      <!-- −2 -->
      <g transform="translate(96.9965 513.18375)scale(0.16 -0.16)">
       <use xlink:href="#DejaVuSans-2212"/>
       <use x="83.789062" xlink:href="#DejaVuSans-32"/>
      </g>
     </g>
    </g>
    <g id="ytick_2">
     <g id="line2d_9">
      <g>
       <use style="stroke:#000000;stroke-width:0.8;" x="127.584" xlink:href="#mbff126053a" y="465.075"/>
      </g>
     </g>
     <g id="text_10">
      <!-- 0 -->
      <g transform="translate(110.404 471.15375)scale(0.16 -0.16)">
       <use xlink:href="#DejaVuSans-30"/>
      </g>
     </g>
    </g>
    <g id="ytick_3">
     <g id="line2d_10">
      <g>
       <use style="stroke:#000000;stroke-width:0.8;" x="127.584" xlink:href="#mbff126053a" y="423.045"/>
      </g>
     </g>
     <g id="text_11">
      <!-- 2 -->
      <g transform="translate(110.404 429.12375)scale(0.16 -0.16)">
       <use xlink:href="#DejaVuSans-32"/>
      </g>
     </g>
    </g>
    <g id="ytick_4">
     <g id="line2d_11">
      <g>
       <use style="stroke:#000000;stroke-width:0.8;" x="127.584" xlink:href="#mbff126053a" y="381.015"/>
      </g>
     </g>
     <g id="text_12">
      <!-- 4 -->
      <g transform="translate(110.404 387.09375)scale(0.16 -0.16)">
       <use xlink:href="#DejaVuSans-34"/>
      </g>
     </g>
    </g>
    <g id="ytick_5">
     <g id="line2d_12">
      <g>
       <use style="stroke:#000000;stroke-width:0.8;" x="127.584" xlink:href="#mbff126053a" y="338.985"/>
      </g>
     </g>
     <g id="text_13">
      <!-- 6 -->
      <g transform="translate(110.404 345.06375)scale(0.16 -0.16)">
       <use xlink:href="#DejaVuSans-36"/>
      </g>
     </g>
    </g>
    <g id="ytick_6">
     <g id="line2d_13">
      <g>
       <use style="stroke:#000000;stroke-width:0.8;" x="127.584" xlink:href="#mbff126053a" y="296.955"/>
      </g>
     </g>
     <g id="text_14">
      <!-- 8 -->
      <defs>
       <path d="M 31.78125 34.625 
Q 24.75 34.625 20.71875 30.859375 
Q 16.703125 27.09375 16.703125 20.515625 
Q 16.703125 13.921875 20.71875 10.15625 
Q 24.75 6.390625 31.78125 6.390625 
Q 38.8125 6.390625 42.859375 10.171875 
Q 46.921875 13.96875 46.921875 20.515625 
Q 46.921875 27.09375 42.890625 30.859375 
Q 38.875 34.625 31.78125 34.625 
z
M 21.921875 38.8125 
Q 15.578125 40.375 12.03125 44.71875 
Q 8.5 49.078125 8.5 55.328125 
Q 8.5 64.0625 14.71875 69.140625 
Q 20.953125 74.21875 31.78125 74.21875 
Q 42.671875 74.21875 48.875 69.140625 
Q 55.078125 64.0625 55.078125 55.328125 
Q 55.078125 49.078125 51.53125 44.71875 
Q 48 40.375 41.703125 38.8125 
Q 48.828125 37.15625 52.796875 32.3125 
Q 56.78125 27.484375 56.78125 20.515625 
Q 56.78125 9.90625 50.3125 4.234375 
Q 43.84375 -1.421875 31.78125 -1.421875 
Q 19.734375 -1.421875 13.25 4.234375 
Q 6.78125 9.90625 6.78125 20.515625 
Q 6.78125 27.484375 10.78125 32.3125 
Q 14.796875 37.15625 21.921875 38.8125 
z
M 18.3125 54.390625 
Q 18.3125 48.734375 21.84375 45.5625 
Q 25.390625 42.390625 31.78125 42.390625 
Q 38.140625 42.390625 41.71875 45.5625 
Q 45.3125 48.734375 45.3125 54.390625 
Q 45.3125 60.0625 41.71875 63.234375 
Q 38.140625 66.40625 31.78125 66.40625 
Q 25.390625 66.40625 21.84375 63.234375 
Q 18.3125 60.0625 18.3125 54.390625 
z
" id="DejaVuSans-38"/>
      </defs>
      <g transform="translate(110.404 303.03375)scale(0.16 -0.16)">
       <use xlink:href="#DejaVuSans-38"/>
      </g>
     </g>
    </g>
    <g id="ytick_7">
     <g id="line2d_14">
      <g>
       <use style="stroke:#000000;stroke-width:0.8;" x="127.584" xlink:href="#mbff126053a" y="254.925"/>
      </g>
     </g>
     <g id="text_15">
      <!-- 10 -->
      <defs>
       <path d="M 12.40625 8.296875 
L 28.515625 8.296875 
L 28.515625 63.921875 
L 10.984375 60.40625 
L 10.984375 69.390625 
L 28.421875 72.90625 
L 38.28125 72.90625 
L 38.28125 8.296875 
L 54.390625 8.296875 
L 54.390625 0 
L 12.40625 0 
z
" id="DejaVuSans-31"/>
      </defs>
      <g transform="translate(100.224 261.00375)scale(0.16 -0.16)">
       <use xlink:href="#DejaVuSans-31"/>
       <use x="63.623047" xlink:href="#DejaVuSans-30"/>
      </g>
     </g>
    </g>
    <g id="ytick_8">
     <g id="line2d_15">
      <g>
       <use style="stroke:#000000;stroke-width:0.8;" x="127.584" xlink:href="#mbff126053a" y="212.895"/>
      </g>
     </g>
     <g id="text_16">
      <!-- 12 -->
      <g transform="translate(100.224 218.97375)scale(0.16 -0.16)">
       <use xlink:href="#DejaVuSans-31"/>
       <use x="63.623047" xlink:href="#DejaVuSans-32"/>
      </g>
     </g>
    </g>
    <g id="text_17">
     <!-- y -->
     <defs>
      <path d="M 32.171875 -5.078125 
Q 28.375 -14.84375 24.75 -17.8125 
Q 21.140625 -20.796875 15.09375 -20.796875 
L 7.90625 -20.796875 
L 7.90625 -13.28125 
L 13.1875 -13.28125 
Q 16.890625 -13.28125 18.9375 -11.515625 
Q 21 -9.765625 23.484375 -3.21875 
L 25.09375 0.875 
L 2.984375 54.6875 
L 12.5 54.6875 
L 29.59375 11.921875 
L 46.6875 54.6875 
L 56.203125 54.6875 
z
" id="DejaVuSans-79"/>
     </defs>
     <g transform="translate(89.669 364.735)rotate(-90)scale(0.16 -0.16)">
      <use xlink:href="#DejaVuSans-79"/>
     </g>
    </g>
   </g>
   <g id="line2d_16">
    <path clip-path="url(#pa358dd27a7)" d="M 127.437881 317.812801 
L 190.202754 357.310416 
L 224.142278 378.421603 
L 247.853452 392.919788 
L 265.985526 403.757331 
L 280.863126 412.399378 
L 293.4161 419.441728 
L 304.341838 425.322084 
L 313.8728 430.208803 
L 322.473912 434.377489 
L 330.377637 437.963968 
L 337.583974 440.992333 
L 344.325386 443.582062 
L 350.601874 445.750448 
L 356.413436 447.521687 
L 361.760073 448.926511 
L 366.874248 450.047299 
L 371.75596 450.89424 
L 376.40521 451.480734 
L 380.821998 451.823268 
L 385.238785 451.941585 
L 389.42311 451.833349 
L 393.607435 451.497983 
L 397.559297 450.961711 
L 401.511159 450.202198 
L 405.463022 449.210346 
L 409.414884 447.97797 
L 413.134284 446.592064 
L 417.086146 444.874019 
L 421.038009 442.89912 
L 424.989871 440.665334 
L 428.941733 438.17286 
L 432.893596 435.424392 
L 437.077921 432.24128 
L 441.494708 428.587659 
L 446.143958 424.4337 
L 451.02567 419.758922 
L 456.372308 414.312822 
L 462.18387 408.070628 
L 469.390207 399.98709 
L 495.890931 369.9004 
L 501.702494 363.840533 
L 506.816668 358.820101 
L 511.698381 354.343404 
L 516.115168 350.585363 
L 520.531956 347.123851 
L 524.71628 344.130147 
L 528.668143 341.56489 
L 532.620005 339.257822 
L 536.571868 337.209824 
L 540.52373 335.419465 
L 544.475592 333.883276 
L 548.427455 332.596019 
L 552.379317 331.550969 
L 556.331179 330.740179 
L 560.283042 330.154734 
L 564.234904 329.784992 
L 568.419229 329.617307 
L 572.603554 329.667595 
L 577.020341 329.943174 
L 581.669591 330.464063 
L 586.318841 331.204867 
L 591.200553 332.201187 
L 592.595328 332.524398 
L 592.595328 332.524398 
" style="fill:none;stroke:#8fbbda;stroke-linecap:square;stroke-width:1.5;"/>
   </g>
   <g id="line2d_17">
    <path clip-path="url(#pa358dd27a7)" d="M 127.437881 452.466 
L 417.783534 452.357219 
L 424.060021 452.127886 
L 428.011884 451.775617 
L 430.801433 451.323483 
L 433.126058 450.72781 
L 434.985758 450.034858 
L 436.612996 449.205889 
L 438.007771 448.27445 
L 439.402546 447.078031 
L 440.797321 445.541992 
L 441.959633 443.934595 
L 443.121946 441.957169 
L 444.284258 439.526148 
L 445.44657 436.539919 
L 446.608883 432.875353 
L 447.771195 428.383887 
L 448.933508 422.887218 
L 450.09582 416.172767 
L 451.258133 407.989175 
L 452.420445 398.042311 
L 453.582758 385.992479 
L 454.74507 371.453864 
L 455.907383 353.997609 
L 457.069695 333.160271 
L 458.232008 308.459714 
L 459.39432 279.420434 
L 460.789095 238.242847 
L 462.18387 189.634103 
L 463.578645 133.358384 
L 465.205882 58.364389 
L 466.374878 -1 
L 466.374878 -1 
" style="fill:none;stroke:#ffb280;stroke-linecap:square;stroke-width:1.5;"/>
   </g>
   <g id="line2d_18">
    <path clip-path="url(#pa358dd27a7)" d="M 332.97555 472.196047 
L 350.320321 480.163019 
L 365.608691 486.950981 
L 376.960816 491.768864 
L 386.243262 495.463402 
L 392.932785 497.902867 
L 398.345248 499.671916 
L 403.49803 501.118879 
L 407.618022 502.055367 
L 411.599864 502.721551 
L 414.697994 503.040246 
L 417.728137 503.149311 
L 420.698924 503.028163 
L 423.618766 502.653232 
L 426.495905 501.997682 
L 428.630645 501.303717 
L 430.749394 500.420643 
L 432.855632 499.332925 
L 434.952913 498.023658 
L 437.044923 496.474501 
L 439.135552 494.665604 
L 441.22899 492.575545 
L 443.329875 490.18125 
L 445.443496 487.45791 
L 447.576111 484.378855 
L 449.735446 480.915352 
L 451.931489 477.036267 
L 454.177829 472.70743 
L 457.286173 466.168916 
L 460.596575 458.651986 
L 469.802529 437.246083 
L 472.581477 431.372813 
L 475.899457 424.940888 
L 479.989342 417.838517 
L 482.41537 413.996376 
L 485.148928 409.94 
L 488.226558 405.657988 
L 491.673752 401.145293 
L 495.495765 396.406178 
L 504.135483 386.322041 
L 518.331952 370.180007 
L 522.967174 364.675681 
L 527.396235 359.159796 
L 531.552597 353.653361 
L 535.389058 348.171945 
L 538.874788 342.726781 
L 541.991832 337.325833 
L 544.731868 331.974675 
L 547.093557 326.677173 
L 549.080475 321.43598 
L 550.699577 316.252898 
L 551.960071 311.12913 
L 552.872587 306.06546 
L 553.448585 301.062392 
L 553.699905 296.12024 
L 553.638433 291.239203 
L 553.275839 286.419431 
L 552.623363 281.661068 
L 551.691614 276.964306 
L 550.49039 272.329432 
L 549.028475 267.756883 
L 547.313411 263.247315 
L 545.351213 258.801682 
L 543.146009 254.42135 
L 540.69956 250.108239 
L 538.010598 245.865034 
L 535.073908 241.695477 
L 531.879016 237.604792 
L 528.408267 233.600337 
L 524.633955 229.692592 
L 520.513902 225.896762 
L 515.984496 222.23542 
L 510.949408 218.743094 
L 505.261009 215.474519 
L 498.690039 212.519999 
L 490.880456 210.033919 
L 481.307067 208.281123 
L 469.34485 207.668693 
L 454.698853 208.592627 
L 438.006982 210.99119 
L 420.523354 214.292479 
L 403.208255 217.96638 
L 386.512251 221.749543 
L 370.593344 225.541392 
L 355.488595 229.306507 
L 341.190171 233.032593 
L 327.674248 236.71547 
L 314.91168 240.353878 
L 302.871985 243.947646 
L 291.524872 247.497025 
L 280.840824 251.002432 
L 270.791311 254.464353 
L 261.348866 257.883299 
L 252.487084 261.259791 
L 244.180609 264.594348 
L 236.405098 267.887487 
L 229.13719 271.139721 
L 222.354467 274.351557 
L 216.035421 277.523496 
L 210.159415 280.656033 
L 204.706654 283.749658 
L 199.658147 286.804853 
L 194.995677 289.822096 
L 190.701772 292.801859 
L 186.759672 295.744606 
L 183.153305 298.650798 
L 179.867257 301.520889 
L 176.886744 304.355327 
L 174.197592 307.154556 
L 171.786209 309.919011 
L 169.639563 312.649126 
L 167.745159 315.345327 
L 166.091018 318.008036 
L 164.665659 320.637667 
L 163.458074 323.234633 
L 162.457713 325.799339 
L 161.654465 328.332185 
L 161.03864 330.833568 
L 160.600951 333.303879 
L 160.332502 335.743502 
L 160.224766 338.15282 
L 160.269577 340.532209 
L 160.459111 342.882041 
L 160.785873 345.202683 
L 161.242685 347.494497 
L 161.822675 349.757842 
L 162.519258 351.993071 
L 164.237265 356.380575 
L 166.349446 360.659751 
L 168.812501 364.833274 
L 171.586782 368.903752 
L 174.636 372.87373 
L 177.926964 376.745688 
L 181.429329 380.522047 
L 185.115376 384.205168 
L 188.9598 387.797352 
L 194.973459 393.020017 
L 201.222549 398.050459 
L 207.646754 402.895752 
L 214.193821 407.56271 
L 220.8186 412.057895 
L 229.706108 417.795167 
L 238.585995 423.252619 
L 249.581025 429.701656 
L 260.371717 435.759919 
L 272.951976 442.547191 
L 287.014938 449.848024 
L 302.177245 457.444912 
L 318.006683 465.127873 
L 335.577822 473.40673 
L 352.616313 481.198433 
L 367.631714 487.826893 
L 378.786269 492.516977 
L 386.939621 495.727735 
L 393.585999 498.127485 
L 398.966025 499.859938 
L 404.090421 501.266928 
L 408.189732 502.166731 
L 412.153487 502.792394 
L 415.238945 503.075365 
L 418.257963 503.14527 
L 421.219127 502.981015 
L 424.130815 502.558475 
L 426.287061 502.055693 
L 428.423541 501.379361 
L 430.543696 500.515362 
L 432.650998 499.44829 
L 434.748991 498.161378 
L 436.841348 496.636427 
L 438.931933 494.853737 
L 441.024902 492.792041 
L 443.124842 490.428432 
L 445.236966 487.738272 
L 447.367421 484.69508 
L 449.523759 481.270338 
L 451.715702 477.433164 
L 453.956407 473.149726 
L 457.053549 466.67803 
L 460.345412 459.236969 
L 470.736132 435.225138 
L 473.683765 429.16542 
L 477.244553 422.510118 
L 479.332897 418.922522 
L 481.676677 415.140243 
L 484.316338 411.147833 
L 487.290169 406.932595 
L 490.627781 402.487311 
L 494.34133 397.813251 
L 498.416262 392.922568 
L 507.427731 382.595271 
L 516.951069 371.781943 
L 521.630995 366.285849 
L 526.128071 360.770901 
L 530.369787 355.259873 
L 534.303545 349.769815 
L 537.894092 344.313111 
L 541.120067 338.898579 
L 543.970637 333.532412 
L 546.442662 328.218916 
L 548.538461 322.961056 
L 550.264138 317.760853 
L 551.628336 312.619661 
L 552.641344 307.538373 
L 553.314429 302.517563 
L 553.659358 297.557592 
L 553.688036 292.658687 
L 553.412219 287.821004 
L 552.843292 283.044686 
L 551.992069 278.329905 
L 550.868605 273.676915 
L 549.482002 269.086103 
L 547.84019 264.558054 
L 545.949663 260.093625 
L 543.815147 255.694047 
L 541.43915 251.361061 
L 538.821371 247.097103 
L 535.957864 242.905568 
L 532.839857 238.791193 
L 529.452039 234.760628 
L 525.770013 230.82331 
L 521.756409 226.992848 
L 517.354809 223.289299 
L 512.479961 219.743054 
L 507.001741 216.401763 
L 500.718753 213.343122 
L 493.31733 210.698778 
L 484.323278 208.695818 
L 473.117296 207.702162 
L 459.237086 208.154436 
L 443.021295 210.167611 
L 425.64489 213.271358 
L 408.214623 216.874441 
L 391.312726 220.640876 
L 375.159676 224.435586 
L 359.816712 228.210386 
L 345.284797 231.94852 
L 331.543183 235.644228 
L 318.563684 239.295674 
L 306.315985 242.902468 
L 294.769653 246.464774 
L 283.894911 249.982978 
L 273.66293 253.457549 
L 264.04593 256.888996 
L 255.017197 260.277835 
L 246.551072 263.624588 
L 238.622918 266.929772 
L 231.209092 270.193903 
L 224.286904 273.417487 
L 217.834583 276.601029 
L 211.831244 279.745025 
L 206.256846 282.849967 
L 201.092169 285.916338 
L 196.318772 288.944618 
L 191.918968 291.935281 
L 187.875794 294.888793 
L 184.172978 297.805617 
L 180.794916 300.686207 
L 177.726645 303.531013 
L 174.953814 306.340481 
L 172.462663 309.115049 
L 170.239999 311.855151 
L 168.273173 314.561215 
L 166.550057 317.233664 
L 165.059027 319.872915 
L 163.788939 322.479381 
L 162.72911 325.053468 
L 161.869303 327.59558 
L 161.199707 330.106113 
L 160.710919 332.58546 
L 160.393931 335.034008 
L 160.240109 337.45214 
L 160.241183 339.840233 
L 160.38923 342.198661 
L 160.676662 344.527792 
L 161.096209 346.827989 
L 161.64091 349.099614 
L 162.304099 351.34302 
L 163.960678 355.746573 
L 166.018078 360.041403 
L 168.432442 364.230193 
L 171.163607 368.315561 
L 174.17481 372.300061 
L 177.432422 376.186183 
L 180.9057 379.976357 
L 184.566552 383.672951 
L 188.389335 387.278275 
L 194.376516 392.520046 
L 200.60547 397.568889 
L 207.015042 402.431907 
L 213.552238 407.115936 
L 220.171253 411.627566 
L 229.056485 417.385825 
L 237.939209 422.863242 
L 248.943487 429.335872 
L 259.748287 435.416301 
L 272.350108 442.22841 
L 286.442463 449.555972 
L 301.64147 457.180706 
L 317.513581 464.891923 
L 335.135959 473.20153 
L 352.226544 481.023011 
L 367.288258 487.678639 
L 378.476261 492.390571 
L 386.65283 495.619129 
L 393.316941 498.035299 
L 398.710293 499.782895 
L 403.846346 501.206436 
L 407.954146 502.121437 
L 411.925321 502.763893 
L 415.015975 503.061674 
L 418.03955 503.147818 
L 421.004654 503.001442 
L 423.919675 502.598651 
L 426.078029 502.112059 
L 428.216284 501.453226 
L 430.337876 500.608156 
L 432.446275 499.561573 
L 434.545016 498.296843 
L 436.637755 496.79591 
L 438.728335 495.039225 
L 440.82088 493.005677 
L 442.919924 490.672519 
L 445.030609 488.015288 
L 447.158975 485.00769 
L 449.312408 481.621416 
L 451.500374 477.825834 
L 453.735619 473.587436 
L 456.821936 467.181989 
L 460.095971 459.816036 
L 470.344867 436.066432 
L 473.220229 430.085049 
L 476.677077 423.523697 
L 478.698234 419.989911 
L 480.963242 416.266163 
L 483.512317 412.336616 
L 486.384935 408.187517 
L 489.614065 403.809734 
L 493.217951 399.201762 
L 497.190703 394.372411 
L 506.058989 384.14132 
L 515.562365 373.379826 
L 520.279081 367.894449 
L 524.837985 362.382377 
L 529.160585 356.868205 
L 533.188656 351.370555 
L 536.882219 345.903057 
L 540.21622 340.475464 
L 543.17707 335.094652 
L 545.759639 329.765412 
L 547.964849 324.491056 
L 549.797843 319.273845 
L 551.266629 314.115305 
L 552.381092 309.016448 
L 553.15227 303.977926 
L 553.591827 299.000155 
L 553.711659 294.083393 
L 553.523591 289.227813 
L 553.039138 284.433554 
L 552.269301 279.700775 
L 551.224374 275.029702 
L 549.91376 270.420677 
L 548.345757 265.87422 
L 546.527309 261.391098 
L 544.463696 256.972422 
L 542.158131 252.619767 
L 539.611207 248.335342 
L 536.820145 244.12223 
L 533.777733 239.984727 
L 530.470788 235.92885 
L 526.877898 231.963106 
L 522.965991 228.099699 
L 518.685022 224.356492 
L 513.959479 220.760315 
L 508.67452 217.352791 
L 502.653105 214.20099 
L 495.619475 211.417385 
L 487.150223 209.195833 
L 476.655819 207.861039 
L 463.569251 207.85433 
L 447.937833 209.43755 
L 430.765807 212.290739 
L 413.268367 215.795152 
L 396.178033 219.534116 
L 379.795475 223.327902 
L 364.214158 227.111074 
L 349.4469 230.860804 
L 335.477158 234.5692 
L 322.27813 238.233656 
L 309.819826 241.853492 
L 298.071732 245.42876 
L 287.003836 248.9598 
L 276.587017 252.447066 
L 266.793183 255.891056 
L 257.595309 259.292288 
L 248.967431 262.651281 
L 240.884617 265.968555 
L 233.322938 269.244625 
L 226.259427 272.480001 
L 219.672051 275.675188 
L 213.539667 278.830685 
L 207.841994 281.946984 
L 202.559573 285.024573 
L 197.673739 288.063931 
L 193.16659 291.065533 
L 189.020953 294.02985 
L 185.220356 296.957343 
L 181.749005 299.84847 
L 178.591751 302.703684 
L 175.734067 305.523429 
L 173.162022 308.308147 
L 170.862262 311.058272 
L 168.821979 313.774235 
L 167.028896 316.45646 
L 165.471245 319.105365 
L 164.137741 321.721366 
L 163.01757 324.304869 
L 162.100368 326.856281 
L 161.376199 329.375998 
L 160.835544 331.864414 
L 160.469279 334.321919 
L 160.268665 336.748896 
L 160.225327 339.145725 
L 160.331241 341.51278 
L 160.578722 343.850431 
L 160.96041 346.159043 
L 161.469254 348.438978 
L 162.098504 350.69059 
L 163.692634 355.110252 
L 165.694318 359.420793 
L 168.059135 363.624905 
L 170.746399 367.725218 
L 173.71887 371.724294 
L 176.942476 375.624632 
L 180.386067 379.42867 
L 184.021179 383.138786 
L 187.821821 386.757299 
L 191.76428 390.286471 
L 197.897113 395.417523 
L 204.235844 400.359723 
L 210.724086 405.120021 
L 217.313052 409.705112 
L 226.183122 415.557133 
L 235.074272 421.12374 
L 243.918414 426.418848 
L 254.825022 432.676034 
L 265.490163 438.554054 
L 277.884667 445.13935 
L 291.699276 452.222807 
L 306.555315 459.593185 
L 323.670154 467.823317 
L 342.097464 476.41656 
L 358.364005 483.767489 
L 371.571354 489.51295 
L 381.315801 493.537784 
L 389.281574 496.60026 
L 395.785103 498.86238 
L 401.058079 500.467261 
L 405.265988 501.547995 
L 409.325056 502.372922 
L 413.253712 502.915705 
L 416.314656 503.125495 
L 419.312227 503.115083 
L 422.254931 502.862333 
L 425.151082 502.341978 
L 427.297573 501.758974 
L 429.425919 500.995913 
L 431.539572 500.038081 
L 433.642033 498.869436 
L 435.736899 497.472545 
L 437.827922 495.828509 
L 439.919092 493.916898 
L 442.014747 491.715679 
L 444.119739 489.201142 
L 446.239675 486.347796 
L 448.381294 483.12823 
L 450.553051 479.512861 
L 452.766089 475.469513 
L 455.808681 469.350524 
L 459.011546 462.308137 
L 463.412171 452.007345 
L 468.710373 439.666827 
L 471.308634 434.009327 
L 474.366043 427.834553 
L 478.08436 421.04109 
L 480.27405 417.374509 
L 482.735944 413.506636 
L 485.510216 409.422875 
L 488.632485 405.112447 
L 492.126259 400.571305 
L 495.993637 395.805032 
L 504.704181 385.676007 
L 518.913572 369.500814 
L 523.527601 363.993713 
L 527.926132 358.477979 
L 532.045126 352.973892 
L 535.839591 347.496426 
L 539.280477 342.056355 
L 542.351185 336.661302 
L 545.044389 331.316599 
L 547.359458 326.025936 
L 549.300459 320.791847 
L 550.87468 315.616045 
L 552.091544 310.499672 
L 552.961813 305.443474 
L 553.497015 300.447925 
L 553.709012 295.513321 
L 553.609676 290.639854 
L 553.210638 285.827667 
L 552.523065 281.07691 
L 551.55748 276.387783 
L 550.323565 271.760589 
L 548.829965 267.195787 
L 547.084047 262.694067 
L 545.091618 258.256426 
L 542.85654 253.884289 
L 540.380239 249.579659 
L 537.661017 245.345334 
L 534.693089 241.185211 
L 531.465212 237.104739 
L 527.95867 233.111598 
L 524.144242 229.21675 
L 519.977549 225.436139 
L 515.391655 221.793516 
L 510.285085 218.325358 
L 504.502053 215.089766 
L 497.800344 212.183079 
L 489.80468 209.7705 
L 479.969147 208.134079 
L 467.676529 207.694617 
L 452.72183 208.817961 
L 435.862938 211.363765 
L 418.359695 214.734276 
L 401.104969 218.431358 
L 384.500108 222.219071 
L 368.681235 226.008824 
L 353.677113 229.769531 
L 339.476916 233.490412 
L 326.055785 237.167826 
L 313.384266 240.800711 
L 301.431847 244.388971 
L 290.168311 247.932887 
L 279.564256 251.432889 
L 269.591282 254.889468 
L 260.222053 258.303136 
L 251.430295 261.674414 
L 243.190779 265.003821 
L 235.479286 268.291874 
L 228.272573 271.539085 
L 221.548337 274.74596 
L 215.285179 277.913 
L 209.46257 281.040698 
L 204.060813 284.129545 
L 199.061016 287.180021 
L 194.445056 290.192604 
L 190.19555 293.167764 
L 186.295825 296.105966 
L 182.729892 299.007669 
L 179.482416 301.873327 
L 176.538689 304.703387 
L 173.884612 307.498292 
L 171.506662 310.258477 
L 169.391875 312.984376 
L 167.527822 315.676412 
L 165.902585 318.335008 
L 164.504744 320.960577 
L 163.323347 323.553532 
L 162.347901 326.114276 
L 161.568347 328.643211 
L 160.975046 331.14073 
L 160.55876 333.607225 
L 160.31064 336.04308 
L 160.222204 338.448677 
L 160.285329 340.824391 
L 160.492232 343.170593 
L 160.835459 345.48765 
L 161.30787 347.775924 
L 161.902629 350.035773 
L 162.613187 352.26755 
L 164.356895 356.648277 
L 166.491988 360.920843 
L 168.975401 365.08792 
L 171.767701 369.152111 
L 174.832799 373.115956 
L 178.137686 376.981934 
L 181.652186 380.75246 
L 185.348737 384.429892 
L 189.202173 388.016528 
L 195.226843 393.231126 
L 201.484284 398.253798 
L 207.914535 403.091607 
L 214.465652 407.751356 
L 221.092759 412.239598 
L 229.981107 417.968007 
L 238.859692 423.41703 
L 249.85071 429.856105 
L 260.635356 435.905009 
L 273.206425 442.681794 
L 287.2569 449.97134 
L 302.403647 457.556469 
L 318.215016 465.227498 
L 335.764481 473.493369 
L 352.780956 481.27249 
L 367.776798 487.889461 
L 378.917235 492.570297 
L 387.060793 495.773511 
L 393.699694 498.166296 
L 399.074104 499.892322 
L 404.193589 501.292281 
L 408.289326 502.185625 
L 412.249958 502.804147 
L 415.333231 503.080819 
L 418.350332 503.143816 
L 421.309843 502.971954 
L 424.220132 502.541009 
L 426.375496 502.031336 
L 428.511235 501.347556 
L 430.630791 500.4755 
L 432.737638 499.399707 
L 434.835326 498.103352 
L 436.927531 496.568176 
L 439.01813 494.774417 
L 441.111293 492.70074 
L 443.211627 490.324169 
L 445.324377 487.619993 
L 447.455738 484.561652 
L 449.613333 481.120537 
L 451.806997 477.265659 
L 454.050066 472.963046 
L 457.151902 466.463133 
L 460.451525 458.990048 
L 469.58742 437.718203 
L 472.329352 431.887647 
L 475.593969 425.506764 
L 479.60808 418.465671 
L 481.986254 414.65821 
L 484.665268 410.638849 
L 487.682745 406.39541 
L 491.066645 401.921563 
L 494.826303 397.219819 
L 498.94332 392.303767 
L 508.010705 381.937583 
L 517.536754 371.104227 
L 522.198693 365.604354 
L 526.667701 360.088782 
L 530.873801 354.579529 
L 534.766711 349.093007 
L 538.313088 343.641102 
L 541.493045 338.23226 
L 544.296843 332.872404 
L 546.722127 327.56565 
L 548.771763 322.314827 
L 550.452229 317.121858 
L 551.772416 311.988034 
L 552.742762 306.914199 
L 553.374623 301.900897 
L 553.6798 296.948466 
L 553.670191 292.057124 
L 553.35752 287.227023 
L 552.753112 282.458304 
L 551.867695 277.751148 
L 550.711219 273.105823 
L 549.292652 268.522736 
L 547.619764 264.002502 
L 545.698849 259.546016 
L 543.534385 255.154567 
L 541.12857 250.829968 
L 538.480702 246.574759 
L 535.586312 242.392477 
L 532.435925 238.28806 
L 529.013266 234.268446 
L 525.292578 230.3435 
L 521.234524 226.527481 
L 516.779745 222.84147 
L 511.838476 219.317533 
L 506.273473 216.006178 
L 499.871995 212.990175 
L 492.302976 210.410332 
L 483.070464 208.509191 
L 471.54912 207.672095 
L 457.339633 208.323424 
L 440.908486 210.505867 
L 423.475634 213.699371 
L 406.088971 217.335438 
L 389.272431 221.110087 
L 373.218061 224.903982 
L 357.976006 228.67482 
L 343.543179 232.4079 
L 329.897411 236.098191 
L 317.010065 239.74412 
L 304.85074 243.345397 
L 293.389054 246.902227 
L 282.595339 250.415008 
L 272.440893 253.884218 
L 262.898065 257.310368 
L 253.940276 260.693974 
L 245.541992 264.035558 
L 237.678703 267.335638 
L 230.326884 270.594727 
L 223.463963 273.813333 
L 217.068279 276.991958 
L 211.119052 280.131098 
L 205.596348 283.231243 
L 200.481041 286.292878 
L 195.754787 289.316481 
L 191.39999 292.302525 
L 187.399773 295.251475 
L 183.73795 298.163793 
L 180.398996 301.039934 
L 177.368025 303.880346 
L 174.630761 306.685475 
L 172.173515 309.455757 
L 169.983164 312.191627 
L 168.047122 314.893511 
L 166.353327 317.561832 
L 164.890214 320.197006 
L 163.646696 322.799446 
L 162.612148 325.369558 
L 161.776387 327.907743 
L 161.129651 330.414399 
L 160.662589 332.889916 
L 160.366238 335.334682 
L 160.232012 337.749078 
L 160.251684 340.133483 
L 160.417373 342.488268 
L 160.72153 344.813801 
L 161.156925 347.110446 
L 161.716634 349.378562 
L 162.394026 351.618502 
L 164.076734 356.015254 
L 166.157438 360.30345 
L 168.592519 364.48577 
L 171.342032 368.564828 
L 174.369415 372.543174 
L 177.641226 376.423294 
L 181.12689 380.207613 
L 184.798475 383.898497 
L 188.630479 387.498253 
L 194.628951 392.731927 
L 200.866499 397.772972 
L 207.282327 402.628478 
L 213.823754 407.305273 
L 220.445255 411.809933 
L 229.3315 417.559298 
L 238.213065 423.028255 
L 249.213468 429.490886 
L 260.012325 435.561922 
L 272.605043 442.363505 
L 286.684973 449.67974 
L 301.868453 457.292673 
L 317.7225 464.991916 
L 335.323179 473.288494 
L 352.391696 481.097358 
L 367.433785 487.741479 
L 378.607611 492.444162 
L 386.774337 495.665187 
L 393.430928 498.074412 
L 398.818629 499.815604 
L 403.949737 501.232148 
L 408.053936 502.140725 
L 412.021962 502.776085 
L 415.110411 503.067608 
L 418.132051 503.146891 
L 421.095482 502.992962 
L 424.009086 502.581828 
L 426.166544 502.088397 
L 428.304043 501.422172 
L 430.425023 500.569107 
L 432.532953 499.513869 
L 434.631374 498.239769 
L 436.723947 496.728691 
L 438.814524 494.961022 
L 440.907243 492.915584 
L 443.00666 490.569563 
L 445.117948 487.898423 
L 447.247189 484.875789 
L 449.401841 481.473265 
L 451.591476 477.660115 
L 453.829012 473.402693 
L 456.919866 466.969269 
L 460.201364 459.571611 
L 470.509441 435.711557 
L 473.414926 429.697257 
L 476.915116 423.096441 
L 478.964318 419.540045 
L 481.26225 415.791683 
L 483.849262 411.835664 
L 486.764393 407.658654 
L 490.039278 403.2523 
L 493.689686 398.616242 
L 497.706134 393.760698 
L 506.63689 383.488145 
L 516.15105 372.703924 
L 520.853188 367.213697 
L 525.386706 361.70016 
L 529.67564 356.187134 
L 533.664174 350.692564 
L 537.314366 345.229539 
L 540.60276 339.807408 
L 543.516965 334.432749 
L 546.052719 329.110142 
L 548.211551 323.842747 
L 549.999026 318.632721 
L 551.42343 313.481516 
L 552.494826 308.39009 
L 553.224355 303.359063 
L 553.623729 298.388824 
L 553.704848 293.47962 
L 553.479513 288.631615 
L 552.959185 283.844949 
L 552.154788 279.119788 
L 551.076516 274.456366 
L 549.733648 269.855046 
L 548.134328 265.316373 
L 546.285314 260.841152 
L 544.191654 256.430544 
L 541.85627 252.086192 
L 539.279384 247.810399 
L 536.457734 243.606375 
L 533.383465 239.478598 
L 530.042518 235.433344 
L 526.412253 231.479502 
L 522.457839 227.629848 
L 518.126622 223.903138 
L 513.339121 220.327647 
L 507.974275 216.947431 
L 501.845133 213.833839 
L 501.845133 213.833839 
" style="fill:none;stroke:#000000;stroke-linecap:square;stroke-width:1.5;"/>
   </g>
   <g id="line2d_19">
    <path clip-path="url(#pa358dd27a7)" d="M 353.747648 481.216991 
L 340.226395 474.81642 
L 326.971238 468.303407 
L 314.348241 461.855404 
L 302.713286 455.655526 
L 292.375756 449.890523 
L 283.573079 444.744237 
L 274.678287 439.265741 
L 267.561683 434.629486 
L 260.51296 429.755452 
L 255.317561 425.936589 
L 250.243409 421.971782 
L 245.335889 417.855458 
L 240.647321 413.581831 
L 237.672613 410.642399 
L 234.841765 407.628552 
L 232.176669 404.538407 
L 229.701295 401.370033 
L 227.441865 398.121451 
L 225.427048 394.790629 
L 223.688173 391.375486 
L 222.259454 387.873888 
L 221.178242 384.283647 
L 220.485289 380.602517 
L 220.298145 378.727153 
L 220.225038 376.828199 
L 220.272152 374.90536 
L 220.445943 372.958334 
L 220.753149 370.986818 
L 221.200806 368.990503 
L 221.796252 366.969078 
L 222.54715 364.922226 
L 223.461491 362.849629 
L 224.547618 360.750961 
L 225.814231 358.625896 
L 227.27041 356.4741 
L 228.925623 354.295239 
L 230.78975 352.088972 
L 232.873095 349.854954 
L 235.186403 347.592836 
L 237.740883 345.302265 
L 240.548221 342.982883 
L 243.620604 340.634329 
L 246.970742 338.256235 
L 250.611882 335.848231 
L 254.557838 333.409941 
L 258.823011 330.940986 
L 263.42241 328.440982 
L 268.371681 325.909541 
L 273.687127 323.346273 
L 279.385735 320.750782 
L 285.4852 318.122674 
L 292.003945 315.461556 
L 298.961137 312.767039 
L 306.3767 310.03875 
L 314.271297 307.276345 
L 322.66629 304.47954 
L 331.583622 301.648166 
L 341.045558 298.782291 
L 351.074144 295.882463 
L 361.690045 292.950232 
L 372.910083 289.989303 
L 384.741915 287.008129 
L 397.172436 284.025848 
L 410.142832 281.085664 
L 423.498191 278.282937 
L 436.903574 275.811775 
L 449.770562 273.995365 
L 461.355249 273.190081 
L 471.114225 273.552855 
L 478.966402 274.957398 
L 485.166103 277.152631 
L 490.051166 279.911403 
L 493.911641 283.071025 
L 496.963817 286.522873 
L 499.362156 290.194666 
L 501.216737 294.037126 
L 502.607389 298.015428 
L 503.593687 302.103916 
L 504.221762 306.282822 
L 504.528926 310.536184 
L 504.546846 314.850483 
L 504.303727 319.213744 
L 503.825832 323.614915 
L 503.138484 328.043461 
L 502.266686 332.489094 
L 501.235416 336.941625 
L 498.794143 345.826862 
L 496.009512 354.619482 
L 491.56769 367.47463 
L 481.852126 395.027756 
L 476.078121 412.238104 
L 466.63088 440.715181 
L 463.314388 450.093576 
L 460.155392 458.434255 
L 457.11265 465.809899 
L 454.156874 472.292199 
L 451.98384 476.610106 
L 449.840111 480.494225 
L 447.719501 483.972832 
L 445.616636 487.073249 
L 443.526747 489.821695 
L 441.44552 492.243164 
L 439.368977 494.361335 
L 437.293396 496.19852 
L 435.215236 497.77563 
L 433.131092 499.112176 
L 431.037647 500.226283 
L 428.93164 501.134724 
L 426.809835 501.852965 
L 424.669004 502.395219 
L 421.779349 502.866804 
L 418.842305 503.076304 
L 415.849932 503.048185 
L 412.794095 502.803882 
L 409.666441 502.362058 
L 405.64278 501.556366 
L 401.476196 500.493571 
L 396.262557 498.908724 
L 390.785966 497.012906 
L 384.021663 494.434876 
L 375.73506 491.02901 
L 365.61845 486.623582 
L 353.287013 481.002971 
L 339.720712 474.572357 
L 326.424955 468.029613 
L 313.768061 461.552524 
L 302.107349 455.324823 
L 291.752622 449.534006 
L 282.940637 444.364699 
L 274.042739 438.861709 
L 266.929391 434.204731 
L 259.890299 429.308914 
L 254.707145 425.472986 
L 249.650299 421.490461 
L 244.765924 417.355744 
L 240.107224 413.063021 
L 237.156653 410.110455 
L 234.353702 407.083141 
L 231.72062 403.979189 
L 229.281766 400.796659 
L 227.063783 397.533561 
L 225.095798 394.187856 
L 223.409639 390.757454 
L 222.040059 387.240211 
L 221.024997 383.633927 
L 220.405838 379.93635 
L 220.258673 378.052606 
L 220.22772 376.145168 
L 220.319258 374.213737 
L 220.539844 372.258012 
L 220.89632 370.277687 
L 221.395828 368.272452 
L 222.045821 366.241995 
L 222.854076 364.185998 
L 223.82871 362.104139 
L 224.978191 359.996095 
L 226.311351 357.861534 
L 227.837409 355.700125 
L 229.565977 353.511529 
L 231.507085 351.295404 
L 233.67119 349.051404 
L 236.069203 346.779179 
L 238.712499 344.478373 
L 241.612941 342.148629 
L 244.782901 339.789581 
L 248.235277 337.400863 
L 251.983516 334.9821 
L 256.041639 332.532918 
L 260.42426 330.052933 
L 265.146614 327.541762 
L 270.224577 324.999015 
L 275.674694 322.424299 
L 281.514202 319.817221 
L 287.761052 317.177385 
L 294.433933 314.504399 
L 301.55228 311.797879 
L 309.136283 309.05746 
L 317.206864 306.282814 
L 325.785609 303.473689 
L 334.894617 300.629985 
L 344.55616 297.751902 
L 354.791971 294.840261 
L 365.621729 291.897201 
L 377.059825 288.927703 
L 389.108332 285.943086 
L 401.741724 282.968951 
L 414.874443 280.062865 
L 428.298404 277.349426 
L 441.592375 275.068942 
L 454.086118 273.577507 
L 465.059608 273.186971 
L 474.124608 273.946667 
L 481.34941 275.662712 
L 487.04258 278.081703 
L 491.532826 280.998903 
L 495.083794 284.272979 
L 497.887709 287.81014 
L 500.081313 291.547563 
L 501.7625 295.441903 
L 503.00292 299.462086 
L 503.856702 303.584857 
L 504.366392 307.791999 
L 504.566982 312.068549 
L 504.488692 316.401626 
L 504.158893 320.779641 
L 503.603417 325.191767 
L 502.84742 329.627581 
L 501.915878 334.07684 
L 500.833778 338.529374 
L 498.317303 347.403847 
L 495.490818 356.171895 
L 491.037532 368.967809 
L 482.666364 392.660964 
L 476.770715 410.140006 
L 465.485155 444.016838 
L 462.227698 453.035063 
L 459.112039 461.040344 
L 456.101625 468.105016 
L 453.170123 474.300402 
L 451.01117 478.418587 
L 448.878608 482.115877 
L 446.766648 485.420139 
L 444.670212 488.358212 
L 442.584752 490.955774 
L 440.506118 493.237235 
L 438.430459 495.225659 
L 436.354141 496.942727 
L 434.273691 498.408717 
L 432.185748 499.642509 
L 430.087023 500.661612 
L 427.974272 501.482203 
L 425.844264 502.119172 
L 422.971814 502.706281 
L 420.055191 503.020313 
L 417.086522 503.087055 
L 414.057756 502.929158 
L 410.960633 502.566392 
L 406.980146 501.850723 
L 402.862476 500.869829 
L 397.715331 499.374771 
L 392.313927 497.56177 
L 385.648409 495.074397 
L 377.489008 491.767907 
L 367.532462 487.473462 
L 355.39642 481.980612 
L 342.037246 475.687634 
L 328.928909 469.280943 
L 316.429388 462.936871 
L 304.889351 456.836381 
L 294.616531 451.163573 
L 285.85053 446.099498 
L 276.97104 440.708473 
L 269.846846 436.146219 
L 262.768468 431.34997 
L 255.809479 426.307757 
L 250.721881 422.357134 
L 245.796293 418.255537 
L 241.084331 413.997198 
L 236.645383 409.576134 
L 233.871035 406.535293 
L 231.270742 403.417472 
L 228.869254 400.220722 
L 226.693643 396.943044 
L 224.773503 393.58239 
L 223.141164 390.136661 
L 221.831929 386.603701 
L 220.884331 382.981305 
L 220.340402 379.267206 
L 220.233981 377.375046 
L 220.24598 375.459085 
L 220.382777 373.519024 
L 220.651029 371.55456 
L 221.057682 369.565387 
L 221.609989 367.551192 
L 222.315517 365.511663 
L 223.182163 363.446479 
L 224.218167 361.355319 
L 225.432124 359.237856 
L 226.833005 357.093758 
L 228.430164 354.922691 
L 230.233363 352.724316 
L 232.25278 350.498289 
L 234.499034 348.244263 
L 236.983198 345.961886 
L 239.716819 343.650801 
L 242.71194 341.310647 
L 245.981117 338.94106 
L 249.537441 336.541669 
L 253.394562 334.112101 
L 257.56671 331.651976 
L 262.068718 329.160913 
L 266.916045 326.638525 
L 272.124805 324.084422 
L 277.711785 321.498209 
L 283.694476 318.879493 
L 290.091089 316.227878 
L 296.920578 313.542976 
L 304.202648 310.824406 
L 311.957754 308.071814 
L 320.207065 305.284895 
L 328.972377 302.463438 
L 338.2759 299.607426 
L 348.139827 296.717232 
L 358.585393 293.794038 
L 369.630899 290.840752 
L 381.287448 287.864059 
L 393.549666 284.879101 
L 406.375613 281.920116 
L 419.645103 279.063465 
L 433.084701 276.469684 
L 446.180208 274.426727 
L 458.204802 273.302531 
L 468.516459 273.332645 
L 476.89877 274.462517 
L 483.537602 276.456873 
L 488.766732 279.073536 
L 492.895688 282.131362 
L 496.161432 285.508118 
L 498.734323 289.122706 
L 500.735527 292.92031 
L 502.252356 296.862617 
L 503.349375 300.921748 
L 504.076017 305.076501 
L 504.471748 309.309986 
L 504.569589 313.608094 
L 504.398561 317.958478 
L 503.985359 322.349875 
L 503.355497 326.771631 
L 502.534026 331.21341 
L 501.54592 335.665003 
L 500.416164 340.11625 
L 497.830657 348.977432 
L 494.967839 357.718574 
L 490.509146 370.452487 
L 482.212827 393.977355 
L 476.385111 411.307309 
L 466.025559 442.466896 
L 462.740902 451.654862 
L 459.605241 459.818155 
L 456.57989 467.029269 
L 453.637171 473.359707 
L 451.471719 477.571867 
L 449.334013 481.357038 
L 447.218084 484.743286 
L 445.118717 487.757684 
L 443.031265 490.426168 
L 440.951501 492.773426 
L 438.875516 494.822818 
L 436.799637 496.596322 
L 434.720359 498.114518 
L 432.634302 499.396584 
L 430.538164 500.460319 
L 428.428693 501.322183 
L 426.302657 501.997338 
L 423.436587 502.631001 
L 420.527595 502.987127 
L 417.567835 503.092036 
L 414.549287 502.968862 
L 411.463725 502.637824 
L 407.499636 501.958217 
L 403.400595 501.010053 
L 399.149036 499.817016 
L 393.820424 498.088516 
L 387.250898 495.693061 
L 379.215616 492.486575 
L 369.416011 488.302933 
L 357.472684 482.93671 
L 344.31934 476.779415 
L 331.399081 470.506428 
L 319.059666 464.292869 
L 307.645034 458.3171 
L 297.460522 452.759948 
L 286.986478 446.768991 
L 278.116946 441.421179 
L 270.991303 436.895484 
L 263.900975 432.137661 
L 256.917183 427.135842 
L 251.80089 423.216865 
L 246.836458 419.148122 
L 242.073962 414.923893 
L 237.571039 410.538241 
L 234.745608 407.521757 
L 232.086732 404.428909 
L 229.618456 401.257763 
L 227.367083 398.006338 
L 225.361374 394.672602 
L 223.632753 391.254472 
L 222.215541 387.74981 
L 221.147202 384.156427 
L 220.468612 380.472077 
L 220.28925 378.595072 
L 220.224349 376.694457 
L 220.280113 374.769936 
L 220.463015 372.821207 
L 220.779815 370.847965 
L 221.237568 368.849904 
L 221.843637 366.82671 
L 222.605705 364.778068 
L 223.53179 362.703657 
L 224.630256 360.603153 
L 225.909831 358.476229 
L 227.379621 356.322551 
L 229.049124 354.141784 
L 230.928248 351.933586 
L 233.027326 349.697614 
L 235.357137 347.433517 
L 237.92892 345.140942 
L 240.754398 342.819531 
L 243.845794 340.468922 
L 247.215853 338.088747 
L 250.877862 335.678637 
L 254.845675 333.238214 
L 259.133735 330.7671 
L 263.757095 328.264909 
L 268.731445 325.731254 
L 274.073137 323.165744 
L 279.799205 320.567984 
L 285.927395 317.93758 
L 292.476181 315.274138 
L 299.464785 312.57727 
L 306.91318 309.846605 
L 314.842082 307.081802 
L 323.272899 304.282581 
L 332.227605 301.448788 
L 341.728475 298.580512 
L 351.797504 295.678351 
L 362.45519 292.743955 
L 373.717936 289.781255 
L 385.592427 286.799202 
L 398.063388 283.818057 
L 411.067303 280.883537 
L 424.43974 278.096231 
L 437.82961 275.658986 
L 450.631173 273.902649 
L 462.101036 273.177536 
L 471.723878 273.619917 
L 479.449969 275.088221 
L 485.546861 277.329551 
L 490.351666 280.12093 
L 494.149372 283.304015 
L 497.151389 286.773273 
L 499.508525 290.458403 
L 501.328335 294.31137 
L 502.688948 298.298131 
L 503.648807 302.393534 
L 504.253298 306.578135 
L 504.539247 310.836177 
L 504.538016 315.154278 
L 504.277634 319.520542 
L 503.784269 323.923967 
L 503.083204 328.354041 
L 502.199436 332.800488 
L 501.157945 337.253121 
L 498.701431 346.136447 
L 495.908147 354.924433 
L 491.463582 367.768187 
L 481.764627 395.283029 
L 476.003603 412.464225 
L 466.571214 440.888544 
L 463.257926 450.248157 
L 460.101275 458.571337 
L 457.060278 465.930743 
L 454.105813 472.398049 
L 451.93354 476.705513 
L 449.790417 480.579857 
L 447.67028 484.049337 
L 445.567769 487.141252 
L 443.47813 489.881793 
L 441.397056 492.295924 
L 439.320577 494.407294 
L 437.244975 496.238181 
L 435.166715 497.809465 
L 433.082392 499.140622 
L 430.988691 500.249747 
L 428.882351 501.153582 
L 426.76014 501.867562 
L 424.618826 502.405871 
L 421.72841 502.872644 
L 418.790467 503.077787 
L 415.797055 503.045711 
L 412.740034 502.797801 
L 409.611048 502.352673 
L 405.585507 501.543214 
L 401.416799 500.476984 
L 396.200276 498.888363 
L 390.720431 496.989054 
L 383.951862 494.407191 
L 375.659775 490.997105 
L 365.536283 486.586946 
L 353.196471 480.960869 
L 339.621327 474.524351 
L 326.317612 467.97576 
L 313.654087 461.492952 
L 301.988352 455.25978 
L 291.630291 449.463885 
L 282.816525 444.290051 
L 273.918078 438.782243 
L 266.805428 434.121189 
L 259.7683 429.221088 
L 254.587613 425.381804 
L 249.534238 421.395795 
L 244.654491 417.257459 
L 240.001751 412.960981 
L 237.05599 410.005831 
L 234.258593 406.975869 
L 231.631882 403.869201 
L 229.200291 400.683886 
L 226.990545 397.417934 
L 225.031866 394.069302 
L 223.356176 390.635899 
L 221.998338 387.115578 
L 220.996404 383.506139 
L 220.391889 379.805327 
L 220.252655 377.919935 
L 220.230064 376.010828 
L 220.330415 374.077708 
L 220.560281 372.120271 
L 220.926528 370.138214 
L 221.436318 368.131225 
L 222.097126 366.098991 
L 222.916753 364.041195 
L 223.90334 361.957516 
L 225.065379 359.847627 
L 226.41173 357.711199 
L 227.951638 355.547898 
L 229.694744 353.357387 
L 231.651107 351.139324 
L 233.831217 348.893361 
L 236.246014 346.619148 
L 238.906908 344.316329 
L 241.825798 341.984547 
L 245.01509 339.623435 
L 248.48772 337.232627 
L 252.257176 334.811749 
L 256.337518 332.360424 
L 260.743404 329.87827 
L 265.490113 327.364902 
L 270.593565 324.819931 
L 276.070356 322.242964 
L 281.937769 319.633607 
L 288.213808 316.991465 
L 294.917212 314.316145 
L 302.067471 311.607265 
L 309.684827 308.864461 
L 317.79025 306.08741 
L 326.405369 303.275868 
L 335.552309 300.429747 
L 345.253334 297.549279 
L 355.530094 294.635349 
L 366.402035 291.690229 
L 377.882975 288.7192 
L 389.973693 285.734242 
L 402.645788 282.762463 
L 415.807586 279.864734 
L 429.239168 277.17217 
L 442.501395 274.934466 
L 454.910459 273.512002 
L 465.757383 273.203988 
L 474.687029 274.038614 
L 481.793495 275.811828 
L 487.392365 278.271552 
L 491.809209 281.217659 
L 495.302405 284.51275 
L 498.059711 288.065687 
L 500.214645 291.815324 
L 501.86291 295.719368 
L 503.074682 299.747413 
L 503.903114 303.876634 
L 504.390109 308.089089 
L 504.570247 312.369994 
L 504.473496 316.70658 
L 504.12708 321.087328 
L 503.556761 325.501447 
L 502.78767 329.938533 
L 501.844782 334.388352 
L 500.753084 338.840735 
L 498.222584 347.712799 
L 495.388541 356.475753 
L 490.933729 369.259719 
L 482.576977 392.920028 
L 476.694748 410.369802 
L 466.268053 441.767066 
L 462.970819 451.031288 
L 459.82593 459.265598 
L 456.793696 466.542567 
L 453.84581 472.933772 
L 451.677358 477.188237 
L 449.537273 481.012986 
L 447.419498 484.436171 
L 445.318757 487.484964 
L 443.230354 490.185418 
L 441.150029 492.562343 
L 439.073845 494.639228 
L 436.998109 496.438186 
L 434.919304 497.979929 
L 432.834038 499.28377 
L 430.739005 500.367638 
L 428.630948 501.248118 
L 426.506635 501.940495 
L 423.643343 502.595151 
L 420.737687 502.970254 
L 417.78183 503.092362 
L 414.767767 502.98483 
L 411.687286 502.668076 
L 407.730414 502.004693 
L 403.639581 501.07124 
L 399.39725 499.891689 
L 394.081093 498.178116 
L 387.528026 495.798838 
L 379.514079 492.609876 
L 369.741527 488.445556 
L 357.831534 483.10132 
L 344.713944 476.967504 
L 331.826537 470.717609 
L 319.515297 464.526569 
L 308.122983 458.572308 
L 297.954484 453.035096 
L 287.492029 447.065603 
L 278.62741 441.736938 
L 271.501605 437.22744 
L 264.406548 432.486643 
L 257.41243 427.502719 
L 252.283995 423.597764 
L 247.302998 419.543576 
L 242.51884 415.33446 
L 237.988394 410.964496 
L 235.140933 407.958803 
L 232.456757 404.877019 
L 229.959598 401.717218 
L 227.675427 398.477425 
L 225.632638 395.155614 
L 223.86226 391.749711 
L 222.398185 388.257587 
L 221.27741 384.677059 
L 220.540303 381.005888 
L 220.329234 379.135598 
L 220.230895 377.241782 
L 220.251415 375.324145 
L 220.397189 373.382387 
L 220.674893 371.416204 
L 221.091497 369.425291 
L 221.654274 367.409334 
L 222.370813 365.36802 
L 223.249035 363.30103 
L 224.297204 361.20804 
L 225.523943 359.088724 
L 226.938246 356.942751 
L 228.549498 354.769785 
L 230.367487 352.569486 
L 232.402424 350.341512 
L 234.664956 348.085514 
L 237.166191 345.80114 
L 239.917709 343.488033 
L 242.931588 341.145832 
L 246.220421 338.774171 
L 249.797339 336.372682 
L 253.67603 333.940988 
L 257.870765 331.478712 
L 262.396421 328.98547 
L 267.268502 326.460876 
L 272.503168 323.904538 
L 278.117256 321.316065 
L 284.128303 318.69506 
L 290.554575 316.041129 
L 297.415077 313.353883 
L 304.729567 310.632945 
L 312.518551 307.877961 
L 320.803246 305.08863 
L 329.605486 302.264753 
L 338.947498 299.406332 
L 348.851445 296.513777 
L 359.33844 293.588355 
L 370.426456 290.633151 
L 382.125829 287.655244 
L 394.429459 284.670669 
L 407.291619 281.715664 
L 420.584259 278.870886 
L 434.019657 276.304699 
L 447.065217 274.314087 
L 458.987288 273.266062 
L 469.165212 273.378119 
L 477.416324 274.576976 
L 483.945351 276.622171 
L 489.088215 279.274819 
L 493.149932 282.358356 
L 496.362332 285.754013 
L 498.891754 289.382953 
L 500.856548 293.191779 
L 502.342117 297.143072 
L 503.411756 301.209521 
L 504.114056 305.370292 
L 504.487929 309.608732 
L 504.566051 313.910883 
L 504.377231 318.264494 
L 503.94805 322.658356 
L 503.30397 327.081847 
L 502.470029 331.524644 
L 501.4712 335.976542 
L 500.332469 340.427386 
L 497.734137 349.285666 
L 494.864825 358.021261 
L 490.405751 370.742698 
L 482.12449 394.234318 
L 476.309956 411.535065 
L 465.966544 442.636815 
L 462.684913 451.806231 
L 459.551473 459.952249 
L 456.52778 467.147349 
L 453.586307 473.463013 
L 451.421576 477.664889 
L 449.284443 481.440442 
L 447.168957 484.817714 
L 445.069919 487.823754 
L 442.982692 490.484471 
L 440.90306 492.824522 
L 438.827119 494.867235 
L 436.7512 496.634557 
L 434.671802 498.147033 
L 432.585547 499.42381 
L 430.489135 500.482656 
L 428.379314 501.339998 
L 426.252854 502.010969 
L 423.3861 502.639533 
L 420.476288 502.991049 
L 417.515569 503.091778 
L 414.49592 502.964804 
L 411.409112 502.630293 
L 407.443254 501.946742 
L 403.342201 500.995 
L 399.08838 499.798682 
L 393.756718 498.066548 
L 387.183163 495.667151 
L 379.14266 492.456393 
L 369.336438 488.268035 
L 357.384965 482.896443 
L 346.955706 478.032165 
L 346.955706 478.032165 
" style="fill:none;stroke:#ff0000;stroke-linecap:square;stroke-width:1.5;"/>
   </g>
   <g id="patch_3">
    <path d="M 127.584 528.12 
L 127.584 191.88 
" style="fill:none;stroke:#000000;stroke-linecap:square;stroke-linejoin:miter;stroke-width:0.8;"/>
   </g>
   <g id="patch_4">
    <path d="M 592.416 528.12 
L 592.416 191.88 
" style="fill:none;stroke:#000000;stroke-linecap:square;stroke-linejoin:miter;stroke-width:0.8;"/>
   </g>
   <g id="patch_5">
    <path d="M 127.584 528.12 
L 592.416 528.12 
" style="fill:none;stroke:#000000;stroke-linecap:square;stroke-linejoin:miter;stroke-width:0.8;"/>
   </g>
   <g id="patch_6">
    <path d="M 127.584 191.88 
L 592.416 191.88 
" style="fill:none;stroke:#000000;stroke-linecap:square;stroke-linejoin:miter;stroke-width:0.8;"/>
   </g>
  </g>
 </g>
 <defs>
  <clipPath id="pa358dd27a7">
   <rect height="336.24" width="464.832" x="127.584" y="191.88"/>
  </clipPath>
 </defs>
</svg>
