<?xml version="1.0" encoding="utf-8" standalone="no"?>
<!DOCTYPE svg PUBLIC "-//W3C//DTD SVG 1.1//EN"
  "http://www.w3.org/Graphics/SVG/1.1/DTD/svg11.dtd">
<!-- Created with matplotlib (http://matplotlib.org/) -->
<svg height="720pt" version="1.1" viewBox="0 0 720 720" width="720pt" xmlns="http://www.w3.org/2000/svg" xmlns:xlink="http://www.w3.org/1999/xlink">
 <defs>
  <style type="text/css">
*{stroke-linecap:butt;stroke-linejoin:round;}
  </style>
 </defs>
 <g id="figure_1">
  <g id="patch_1">
   <path d="M 0 720 
L 720 720 
L 720 0 
L 0 0 
z
" style="fill:#ffffff;"/>
  </g>
  <g id="axes_1">
   <g id="patch_2">
    <path d="M 127.584 528.12 
L 592.416 528.12 
L 592.416 191.88 
L 127.584 191.88 
z
" style="fill:#ffffff;"/>
   </g>
   <g id="matplotlib.axis_1">
    <g id="xtick_1">
     <g id="line2d_1">
      <defs>
       <path d="M 0 0 
L 0 3.5 
" id="me9af5f95b9" style="stroke:#000000;stroke-width:0.8;"/>
      </defs>
      <g>
       <use style="stroke:#000000;stroke-width:0.8;" x="148.2432" xlink:href="#me9af5f95b9" y="528.12"/>
      </g>
     </g>
     <g id="text_1">
      <!-- −10.0 -->
      <defs>
       <path d="M 10.59375 35.5 
L 73.1875 35.5 
L 73.1875 27.203125 
L 10.59375 27.203125 
z
" id="DejaVuSans-2212"/>
       <path d="M 12.40625 8.296875 
L 28.515625 8.296875 
L 28.515625 63.921875 
L 10.984375 60.40625 
L 10.984375 69.390625 
L 28.421875 72.90625 
L 38.28125 72.90625 
L 38.28125 8.296875 
L 54.390625 8.296875 
L 54.390625 0 
L 12.40625 0 
z
" id="DejaVuSans-31"/>
       <path d="M 31.78125 66.40625 
Q 24.171875 66.40625 20.328125 58.90625 
Q 16.5 51.421875 16.5 36.375 
Q 16.5 21.390625 20.328125 13.890625 
Q 24.171875 6.390625 31.78125 6.390625 
Q 39.453125 6.390625 43.28125 13.890625 
Q 47.125 21.390625 47.125 36.375 
Q 47.125 51.421875 43.28125 58.90625 
Q 39.453125 66.40625 31.78125 66.40625 
z
M 31.78125 74.21875 
Q 44.046875 74.21875 50.515625 64.515625 
Q 56.984375 54.828125 56.984375 36.375 
Q 56.984375 17.96875 50.515625 8.265625 
Q 44.046875 -1.421875 31.78125 -1.421875 
Q 19.53125 -1.421875 13.0625 8.265625 
Q 6.59375 17.96875 6.59375 36.375 
Q 6.59375 54.828125 13.0625 64.515625 
Q 19.53125 74.21875 31.78125 74.21875 
z
" id="DejaVuSans-30"/>
       <path d="M 10.6875 12.40625 
L 21 12.40625 
L 21 0 
L 10.6875 0 
z
" id="DejaVuSans-2e"/>
      </defs>
      <g transform="translate(123.72695 547.2775)scale(0.16 -0.16)">
       <use xlink:href="#DejaVuSans-2212"/>
       <use x="83.789062" xlink:href="#DejaVuSans-31"/>
       <use x="147.412109" xlink:href="#DejaVuSans-30"/>
       <use x="211.035156" xlink:href="#DejaVuSans-2e"/>
       <use x="242.822266" xlink:href="#DejaVuSans-30"/>
      </g>
     </g>
    </g>
    <g id="xtick_2">
     <g id="line2d_2">
      <g>
       <use style="stroke:#000000;stroke-width:0.8;" x="199.8912" xlink:href="#me9af5f95b9" y="528.12"/>
      </g>
     </g>
     <g id="text_2">
      <!-- −7.5 -->
      <defs>
       <path d="M 8.203125 72.90625 
L 55.078125 72.90625 
L 55.078125 68.703125 
L 28.609375 0 
L 18.3125 0 
L 43.21875 64.59375 
L 8.203125 64.59375 
z
" id="DejaVuSans-37"/>
       <path d="M 10.796875 72.90625 
L 49.515625 72.90625 
L 49.515625 64.59375 
L 19.828125 64.59375 
L 19.828125 46.734375 
Q 21.96875 47.46875 24.109375 47.828125 
Q 26.265625 48.1875 28.421875 48.1875 
Q 40.625 48.1875 47.75 41.5 
Q 54.890625 34.8125 54.890625 23.390625 
Q 54.890625 11.625 47.5625 5.09375 
Q 40.234375 -1.421875 26.90625 -1.421875 
Q 22.3125 -1.421875 17.546875 -0.640625 
Q 12.796875 0.140625 7.71875 1.703125 
L 7.71875 11.625 
Q 12.109375 9.234375 16.796875 8.0625 
Q 21.484375 6.890625 26.703125 6.890625 
Q 35.15625 6.890625 40.078125 11.328125 
Q 45.015625 15.765625 45.015625 23.390625 
Q 45.015625 31 40.078125 35.4375 
Q 35.15625 39.890625 26.703125 39.890625 
Q 22.75 39.890625 18.8125 39.015625 
Q 14.890625 38.140625 10.796875 36.28125 
z
" id="DejaVuSans-35"/>
      </defs>
      <g transform="translate(180.46495 547.2775)scale(0.16 -0.16)">
       <use xlink:href="#DejaVuSans-2212"/>
       <use x="83.789062" xlink:href="#DejaVuSans-37"/>
       <use x="147.412109" xlink:href="#DejaVuSans-2e"/>
       <use x="179.199219" xlink:href="#DejaVuSans-35"/>
      </g>
     </g>
    </g>
    <g id="xtick_3">
     <g id="line2d_3">
      <g>
       <use style="stroke:#000000;stroke-width:0.8;" x="251.5392" xlink:href="#me9af5f95b9" y="528.12"/>
      </g>
     </g>
     <g id="text_3">
      <!-- −5.0 -->
      <g transform="translate(232.11295 547.2775)scale(0.16 -0.16)">
       <use xlink:href="#DejaVuSans-2212"/>
       <use x="83.789062" xlink:href="#DejaVuSans-35"/>
       <use x="147.412109" xlink:href="#DejaVuSans-2e"/>
       <use x="179.199219" xlink:href="#DejaVuSans-30"/>
      </g>
     </g>
    </g>
    <g id="xtick_4">
     <g id="line2d_4">
      <g>
       <use style="stroke:#000000;stroke-width:0.8;" x="303.1872" xlink:href="#me9af5f95b9" y="528.12"/>
      </g>
     </g>
     <g id="text_4">
      <!-- −2.5 -->
      <defs>
       <path d="M 19.1875 8.296875 
L 53.609375 8.296875 
L 53.609375 0 
L 7.328125 0 
L 7.328125 8.296875 
Q 12.9375 14.109375 22.625 23.890625 
Q 32.328125 33.6875 34.8125 36.53125 
Q 39.546875 41.84375 41.421875 45.53125 
Q 43.3125 49.21875 43.3125 52.78125 
Q 43.3125 58.59375 39.234375 62.25 
Q 35.15625 65.921875 28.609375 65.921875 
Q 23.96875 65.921875 18.8125 64.3125 
Q 13.671875 62.703125 7.8125 59.421875 
L 7.8125 69.390625 
Q 13.765625 71.78125 18.9375 73 
Q 24.125 74.21875 28.421875 74.21875 
Q 39.75 74.21875 46.484375 68.546875 
Q 53.21875 62.890625 53.21875 53.421875 
Q 53.21875 48.921875 51.53125 44.890625 
Q 49.859375 40.875 45.40625 35.40625 
Q 44.1875 33.984375 37.640625 27.21875 
Q 31.109375 20.453125 19.1875 8.296875 
z
" id="DejaVuSans-32"/>
      </defs>
      <g transform="translate(283.76095 547.2775)scale(0.16 -0.16)">
       <use xlink:href="#DejaVuSans-2212"/>
       <use x="83.789062" xlink:href="#DejaVuSans-32"/>
       <use x="147.412109" xlink:href="#DejaVuSans-2e"/>
       <use x="179.199219" xlink:href="#DejaVuSans-35"/>
      </g>
     </g>
    </g>
    <g id="xtick_5">
     <g id="line2d_5">
      <g>
       <use style="stroke:#000000;stroke-width:0.8;" x="354.8352" xlink:href="#me9af5f95b9" y="528.12"/>
      </g>
     </g>
     <g id="text_5">
      <!-- 0.0 -->
      <g transform="translate(342.1127 547.2775)scale(0.16 -0.16)">
       <use xlink:href="#DejaVuSans-30"/>
       <use x="63.623047" xlink:href="#DejaVuSans-2e"/>
       <use x="95.410156" xlink:href="#DejaVuSans-30"/>
      </g>
     </g>
    </g>
    <g id="xtick_6">
     <g id="line2d_6">
      <g>
       <use style="stroke:#000000;stroke-width:0.8;" x="406.4832" xlink:href="#me9af5f95b9" y="528.12"/>
      </g>
     </g>
     <g id="text_6">
      <!-- 2.5 -->
      <g transform="translate(393.7607 547.2775)scale(0.16 -0.16)">
       <use xlink:href="#DejaVuSans-32"/>
       <use x="63.623047" xlink:href="#DejaVuSans-2e"/>
       <use x="95.410156" xlink:href="#DejaVuSans-35"/>
      </g>
     </g>
    </g>
    <g id="xtick_7">
     <g id="line2d_7">
      <g>
       <use style="stroke:#000000;stroke-width:0.8;" x="458.1312" xlink:href="#me9af5f95b9" y="528.12"/>
      </g>
     </g>
     <g id="text_7">
      <!-- 5.0 -->
      <g transform="translate(445.4087 547.2775)scale(0.16 -0.16)">
       <use xlink:href="#DejaVuSans-35"/>
       <use x="63.623047" xlink:href="#DejaVuSans-2e"/>
       <use x="95.410156" xlink:href="#DejaVuSans-30"/>
      </g>
     </g>
    </g>
    <g id="xtick_8">
     <g id="line2d_8">
      <g>
       <use style="stroke:#000000;stroke-width:0.8;" x="509.7792" xlink:href="#me9af5f95b9" y="528.12"/>
      </g>
     </g>
     <g id="text_8">
      <!-- 7.5 -->
      <g transform="translate(497.0567 547.2775)scale(0.16 -0.16)">
       <use xlink:href="#DejaVuSans-37"/>
       <use x="63.623047" xlink:href="#DejaVuSans-2e"/>
       <use x="95.410156" xlink:href="#DejaVuSans-35"/>
      </g>
     </g>
    </g>
    <g id="xtick_9">
     <g id="line2d_9">
      <g>
       <use style="stroke:#000000;stroke-width:0.8;" x="561.4272" xlink:href="#me9af5f95b9" y="528.12"/>
      </g>
     </g>
     <g id="text_9">
      <!-- 10.0 -->
      <g transform="translate(543.6147 547.2775)scale(0.16 -0.16)">
       <use xlink:href="#DejaVuSans-31"/>
       <use x="63.623047" xlink:href="#DejaVuSans-30"/>
       <use x="127.246094" xlink:href="#DejaVuSans-2e"/>
       <use x="159.033203" xlink:href="#DejaVuSans-30"/>
      </g>
     </g>
    </g>
    <g id="text_10">
     <!-- x -->
     <defs>
      <path d="M 54.890625 54.6875 
L 35.109375 28.078125 
L 55.90625 0 
L 45.3125 0 
L 29.390625 21.484375 
L 13.484375 0 
L 2.875 0 
L 24.125 28.609375 
L 4.6875 54.6875 
L 15.28125 54.6875 
L 29.78125 35.203125 
L 44.28125 54.6875 
z
" id="DejaVuSans-78"/>
     </defs>
     <g transform="translate(355.265 566.7625)scale(0.16 -0.16)">
      <use xlink:href="#DejaVuSans-78"/>
     </g>
    </g>
   </g>
   <g id="matplotlib.axis_2">
    <g id="ytick_1">
     <g id="line2d_10">
      <defs>
       <path d="M 0 0 
L -3.5 0 
" id="mbfe0d23910" style="stroke:#000000;stroke-width:0.8;"/>
      </defs>
      <g>
       <use style="stroke:#000000;stroke-width:0.8;" x="127.584" xlink:href="#mbfe0d23910" y="528.12"/>
      </g>
     </g>
     <g id="text_11">
      <!-- −2 -->
      <g transform="translate(96.9965 534.19875)scale(0.16 -0.16)">
       <use xlink:href="#DejaVuSans-2212"/>
       <use x="83.789062" xlink:href="#DejaVuSans-32"/>
      </g>
     </g>
    </g>
    <g id="ytick_2">
     <g id="line2d_11">
      <g>
       <use style="stroke:#000000;stroke-width:0.8;" x="127.584" xlink:href="#mbfe0d23910" y="481.742069"/>
      </g>
     </g>
     <g id="text_12">
      <!-- 0 -->
      <g transform="translate(110.404 487.820819)scale(0.16 -0.16)">
       <use xlink:href="#DejaVuSans-30"/>
      </g>
     </g>
    </g>
    <g id="ytick_3">
     <g id="line2d_12">
      <g>
       <use style="stroke:#000000;stroke-width:0.8;" x="127.584" xlink:href="#mbfe0d23910" y="435.364138"/>
      </g>
     </g>
     <g id="text_13">
      <!-- 2 -->
      <g transform="translate(110.404 441.442888)scale(0.16 -0.16)">
       <use xlink:href="#DejaVuSans-32"/>
      </g>
     </g>
    </g>
    <g id="ytick_4">
     <g id="line2d_13">
      <g>
       <use style="stroke:#000000;stroke-width:0.8;" x="127.584" xlink:href="#mbfe0d23910" y="388.986207"/>
      </g>
     </g>
     <g id="text_14">
      <!-- 4 -->
      <defs>
       <path d="M 37.796875 64.3125 
L 12.890625 25.390625 
L 37.796875 25.390625 
z
M 35.203125 72.90625 
L 47.609375 72.90625 
L 47.609375 25.390625 
L 58.015625 25.390625 
L 58.015625 17.1875 
L 47.609375 17.1875 
L 47.609375 0 
L 37.796875 0 
L 37.796875 17.1875 
L 4.890625 17.1875 
L 4.890625 26.703125 
z
" id="DejaVuSans-34"/>
      </defs>
      <g transform="translate(110.404 395.064957)scale(0.16 -0.16)">
       <use xlink:href="#DejaVuSans-34"/>
      </g>
     </g>
    </g>
    <g id="ytick_5">
     <g id="line2d_14">
      <g>
       <use style="stroke:#000000;stroke-width:0.8;" x="127.584" xlink:href="#mbfe0d23910" y="342.608276"/>
      </g>
     </g>
     <g id="text_15">
      <!-- 6 -->
      <defs>
       <path d="M 33.015625 40.375 
Q 26.375 40.375 22.484375 35.828125 
Q 18.609375 31.296875 18.609375 23.390625 
Q 18.609375 15.53125 22.484375 10.953125 
Q 26.375 6.390625 33.015625 6.390625 
Q 39.65625 6.390625 43.53125 10.953125 
Q 47.40625 15.53125 47.40625 23.390625 
Q 47.40625 31.296875 43.53125 35.828125 
Q 39.65625 40.375 33.015625 40.375 
z
M 52.59375 71.296875 
L 52.59375 62.3125 
Q 48.875 64.0625 45.09375 64.984375 
Q 41.3125 65.921875 37.59375 65.921875 
Q 27.828125 65.921875 22.671875 59.328125 
Q 17.53125 52.734375 16.796875 39.40625 
Q 19.671875 43.65625 24.015625 45.921875 
Q 28.375 48.1875 33.59375 48.1875 
Q 44.578125 48.1875 50.953125 41.515625 
Q 57.328125 34.859375 57.328125 23.390625 
Q 57.328125 12.15625 50.6875 5.359375 
Q 44.046875 -1.421875 33.015625 -1.421875 
Q 20.359375 -1.421875 13.671875 8.265625 
Q 6.984375 17.96875 6.984375 36.375 
Q 6.984375 53.65625 15.1875 63.9375 
Q 23.390625 74.21875 37.203125 74.21875 
Q 40.921875 74.21875 44.703125 73.484375 
Q 48.484375 72.75 52.59375 71.296875 
z
" id="DejaVuSans-36"/>
      </defs>
      <g transform="translate(110.404 348.687026)scale(0.16 -0.16)">
       <use xlink:href="#DejaVuSans-36"/>
      </g>
     </g>
    </g>
    <g id="ytick_6">
     <g id="line2d_15">
      <g>
       <use style="stroke:#000000;stroke-width:0.8;" x="127.584" xlink:href="#mbfe0d23910" y="296.230345"/>
      </g>
     </g>
     <g id="text_16">
      <!-- 8 -->
      <defs>
       <path d="M 31.78125 34.625 
Q 24.75 34.625 20.71875 30.859375 
Q 16.703125 27.09375 16.703125 20.515625 
Q 16.703125 13.921875 20.71875 10.15625 
Q 24.75 6.390625 31.78125 6.390625 
Q 38.8125 6.390625 42.859375 10.171875 
Q 46.921875 13.96875 46.921875 20.515625 
Q 46.921875 27.09375 42.890625 30.859375 
Q 38.875 34.625 31.78125 34.625 
z
M 21.921875 38.8125 
Q 15.578125 40.375 12.03125 44.71875 
Q 8.5 49.078125 8.5 55.328125 
Q 8.5 64.0625 14.71875 69.140625 
Q 20.953125 74.21875 31.78125 74.21875 
Q 42.671875 74.21875 48.875 69.140625 
Q 55.078125 64.0625 55.078125 55.328125 
Q 55.078125 49.078125 51.53125 44.71875 
Q 48 40.375 41.703125 38.8125 
Q 48.828125 37.15625 52.796875 32.3125 
Q 56.78125 27.484375 56.78125 20.515625 
Q 56.78125 9.90625 50.3125 4.234375 
Q 43.84375 -1.421875 31.78125 -1.421875 
Q 19.734375 -1.421875 13.25 4.234375 
Q 6.78125 9.90625 6.78125 20.515625 
Q 6.78125 27.484375 10.78125 32.3125 
Q 14.796875 37.15625 21.921875 38.8125 
z
M 18.3125 54.390625 
Q 18.3125 48.734375 21.84375 45.5625 
Q 25.390625 42.390625 31.78125 42.390625 
Q 38.140625 42.390625 41.71875 45.5625 
Q 45.3125 48.734375 45.3125 54.390625 
Q 45.3125 60.0625 41.71875 63.234375 
Q 38.140625 66.40625 31.78125 66.40625 
Q 25.390625 66.40625 21.84375 63.234375 
Q 18.3125 60.0625 18.3125 54.390625 
z
" id="DejaVuSans-38"/>
      </defs>
      <g transform="translate(110.404 302.309095)scale(0.16 -0.16)">
       <use xlink:href="#DejaVuSans-38"/>
      </g>
     </g>
    </g>
    <g id="ytick_7">
     <g id="line2d_16">
      <g>
       <use style="stroke:#000000;stroke-width:0.8;" x="127.584" xlink:href="#mbfe0d23910" y="249.852414"/>
      </g>
     </g>
     <g id="text_17">
      <!-- 10 -->
      <g transform="translate(100.224 255.931164)scale(0.16 -0.16)">
       <use xlink:href="#DejaVuSans-31"/>
       <use x="63.623047" xlink:href="#DejaVuSans-30"/>
      </g>
     </g>
    </g>
    <g id="ytick_8">
     <g id="line2d_17">
      <g>
       <use style="stroke:#000000;stroke-width:0.8;" x="127.584" xlink:href="#mbfe0d23910" y="203.474483"/>
      </g>
     </g>
     <g id="text_18">
      <!-- 12 -->
      <g transform="translate(100.224 209.553233)scale(0.16 -0.16)">
       <use xlink:href="#DejaVuSans-31"/>
       <use x="63.623047" xlink:href="#DejaVuSans-32"/>
      </g>
     </g>
    </g>
    <g id="text_19">
     <!-- y -->
     <defs>
      <path d="M 32.171875 -5.078125 
Q 28.375 -14.84375 24.75 -17.8125 
Q 21.140625 -20.796875 15.09375 -20.796875 
L 7.90625 -20.796875 
L 7.90625 -13.28125 
L 13.1875 -13.28125 
Q 16.890625 -13.28125 18.9375 -11.515625 
Q 21 -9.765625 23.484375 -3.21875 
L 25.09375 0.875 
L 2.984375 54.6875 
L 12.5 54.6875 
L 29.59375 11.921875 
L 46.6875 54.6875 
L 56.203125 54.6875 
z
" id="DejaVuSans-79"/>
     </defs>
     <g transform="translate(89.669 364.735)rotate(-90)scale(0.16 -0.16)">
      <use xlink:href="#DejaVuSans-79"/>
     </g>
    </g>
   </g>
   <g id="line2d_18">
    <path clip-path="url(#pbaf7dcc4ec)" d="M 127.538541 226.612422 
L 343.201744 468.517138 
L 355.930357 482.450027 
L 363.741096 490.691011 
L 369.382186 496.338046 
L 373.866129 500.521841 
L 377.482213 503.604274 
L 380.519723 505.917319 
L 383.123302 507.639441 
L 385.437596 508.918404 
L 387.462602 509.802413 
L 389.342966 510.391061 
L 391.078685 510.704131 
L 392.669762 510.768999 
L 394.116195 510.620098 
L 395.562629 510.250246 
L 397.009062 509.635433 
L 398.310852 508.851489 
L 399.612642 507.828629 
L 401.059075 506.386868 
L 402.505508 504.595643 
L 403.951942 502.425375 
L 405.398375 499.846618 
L 406.844808 496.830833 
L 408.435885 492.976923 
L 410.026962 488.530636 
L 411.762681 482.975377 
L 413.498401 476.664812 
L 415.378765 468.970512 
L 417.403771 459.708757 
L 419.573421 448.73403 
L 422.032358 435.149525 
L 425.214511 416.220164 
L 434.616327 359.289534 
L 437.219907 345.388163 
L 439.389557 334.922919 
L 441.414564 326.176159 
L 443.294927 318.974906 
L 445.17529 312.664641 
L 446.91101 307.61392 
L 448.502087 303.611574 
L 450.093164 300.178755 
L 451.68424 297.280737 
L 453.130673 295.078563 
L 454.577107 293.257825 
L 456.02354 291.78893 
L 457.469973 290.642721 
L 458.916407 289.790958 
L 460.36284 289.206669 
L 461.809273 288.864389 
L 463.255707 288.740312 
L 464.846783 288.829561 
L 466.582503 289.166049 
L 468.462866 289.776715 
L 470.487873 290.681004 
L 472.657523 291.890869 
L 475.116459 293.513189 
L 478.009326 295.698987 
L 481.336123 298.502788 
L 485.241492 302.091006 
L 490.014722 306.784989 
L 496.234385 313.232826 
L 504.768342 322.428329 
L 518.075528 337.131856 
L 546.714907 369.184219 
L 592.422199 420.480766 
L 592.422199 420.480766 
" style="fill:none;stroke:#8fbbda;stroke-linecap:square;stroke-width:1.5;"/>
   </g>
   <g id="line2d_19">
    <path clip-path="url(#pbaf7dcc4ec)" d="M 127.538541 511.887724 
L 382.255442 511.778061 
L 394.116195 511.542007 
L 401.348362 511.191465 
L 406.700165 510.718875 
L 410.894822 510.133481 
L 414.366261 509.432964 
L 417.403771 508.594071 
L 420.007351 507.650341 
L 422.321644 506.586827 
L 424.491294 505.348722 
L 426.516301 503.933755 
L 428.396664 502.347316 
L 430.132384 500.60377 
L 431.868104 498.542044 
L 433.459181 496.323359 
L 435.050257 493.736547 
L 436.641334 490.720787 
L 438.232411 487.205304 
L 439.823487 483.107772 
L 441.414564 478.332476 
L 443.00564 472.768194 
L 444.452074 466.916801 
L 445.898507 460.195071 
L 447.34494 452.475121 
L 448.791374 443.610783 
L 450.237807 433.435148 
L 451.68424 421.757834 
L 453.130673 408.36197 
L 454.577107 393.000869 
L 456.02354 375.394414 
L 457.469973 355.225155 
L 458.916407 332.134157 
L 460.36284 305.716653 
L 461.809273 275.517589 
L 463.40035 237.320776 
L 464.991426 193.169096 
L 466.582503 142.209208 
L 468.17358 83.491056 
L 469.764656 15.96571 
L 470.131883 -1 
L 470.131883 -1 
" style="fill:none;stroke:#ffb280;stroke-linecap:square;stroke-width:1.5;"/>
   </g>
   <g id="line2d_20">
    <path clip-path="url(#pbaf7dcc4ec)" d="M 522.516278 359.269899 
L 523.058783 355.97184 
L 523.46466 352.660802 
L 523.738861 349.341165 
L 523.886293 346.016842 
L 523.911803 342.691417 
L 523.82017 339.368265 
L 523.304235 332.741818 
L 522.375322 326.163847 
L 521.069278 319.662826 
L 519.421244 313.271611 
L 517.466062 307.029483 
L 515.238766 300.983839 
L 512.775127 295.191041 
L 510.112142 289.715631 
L 507.28834 284.626909 
L 504.343699 279.992216 
L 501.31899 275.86739 
L 498.254473 272.286709 
L 495.188084 269.255917 
L 492.153485 266.751375 
L 489.17845 264.725655 
L 486.28392 263.117037 
L 483.483824 261.859303 
L 480.785519 260.889219 
L 478.19059 260.150866 
L 474.483752 259.377551 
L 470.973951 258.89986 
L 466.523858 258.578518 
L 462.201506 258.500062 
L 456.650462 258.623949 
L 431.371503 259.585661 
L 413.653626 259.880314 
L 306.281174 261.286489 
L 265.895219 262.087131 
L 236.763678 262.885215 
L 215.804211 263.68075 
L 200.778278 264.473742 
L 190.060355 265.264202 
L 182.470075 266.052136 
L 177.150313 266.837552 
L 173.864295 267.522733 
L 171.529636 268.205998 
L 169.913581 268.887352 
L 168.840221 269.566802 
L 168.176607 270.244351 
L 167.82226 270.920006 
L 167.70124 271.593772 
L 167.775685 272.361484 
L 168.097299 273.317675 
L 168.766529 274.55502 
L 169.964438 276.257678 
L 172.112477 278.882011 
L 176.909379 284.316566 
L 210.840191 322.032278 
L 343.627191 469.422977 
L 356.296222 483.146393 
L 364.051348 491.23755 
L 369.666205 496.78944 
L 374.068919 500.842635 
L 377.680853 503.876294 
L 380.733376 506.15923 
L 383.371134 507.862805 
L 385.691557 509.104203 
L 387.767908 509.969036 
L 389.664832 510.522927 
L 391.49726 510.826495 
L 393.749787 510.955124 
L 399.963985 510.994654 
L 451.356535 510.936736 
L 467.028731 510.776912 
L 474.855324 510.551849 
L 482.482884 510.107321 
L 489.849156 509.295873 
L 496.91919 507.964772 
L 503.670143 506.033962 
L 510.086701 503.544161 
L 516.160845 500.621089 
L 521.891455 497.403577 
L 527.282741 494.000922 
L 532.342375 490.486072 
L 537.079997 486.904015 
L 541.506224 483.281629 
L 545.632062 479.634874 
L 549.468558 475.973301 
L 553.026615 472.302708 
L 556.316877 468.626682 
L 559.349685 464.947486 
L 562.135039 461.266576 
L 564.682594 457.584907 
L 567.001654 453.90312 
L 569.101181 450.221652 
L 570.989796 446.540808 
L 572.675794 442.860802 
L 574.167151 439.18179 
L 575.471534 435.503885 
L 576.596315 431.827172 
L 577.548578 428.151716 
L 578.335131 424.477567 
L 578.962519 420.804765 
L 579.43703 417.133341 
L 579.764707 413.463323 
L 579.951356 409.794734 
L 580.002558 406.127595 
L 579.923674 402.461924 
L 579.719856 398.79774 
L 579.396055 395.135062 
L 578.407348 387.8143 
L 576.993426 380.49981 
L 575.187416 373.191813 
L 573.019915 365.890604 
L 570.519191 358.596602 
L 567.711373 351.310415 
L 564.620628 344.032945 
L 561.269341 336.765551 
L 557.678286 329.510309 
L 553.866811 322.270425 
L 549.853042 315.050906 
L 545.65413 307.859622 
L 541.286563 300.709016 
L 536.766602 293.618785 
L 532.110904 286.619973 
L 527.337416 279.760859 
L 522.466648 273.114489 
L 517.523332 266.786075 
L 512.538271 260.915062 
L 510.041728 258.201436 
L 507.549665 255.662813 
L 505.06794 253.317138 
L 502.602657 251.178454 
L 500.159974 249.255445 
L 497.745878 247.550504 
L 495.36595 246.059573 
L 493.025143 244.772758 
L 490.727604 243.675558 
L 488.476551 242.750423 
L 484.121785 241.340024 
L 479.966718 240.39308 
L 476.002445 239.782572 
L 472.207084 239.411017 
L 466.754045 239.153679 
L 461.436619 239.125863 
L 452.103361 239.36552 
L 435.688732 239.895856 
L 418.791693 240.209664 
L 284.459241 242.049011 
L 245.363379 242.911115 
L 217.183887 243.770464 
L 199.109572 244.520143 
L 185.61217 245.267725 
L 175.573469 246.013217 
L 168.148344 246.756624 
L 162.698064 247.497953 
L 158.739889 248.237209 
L 155.908972 248.974398 
L 153.92957 249.709525 
L 152.593279 250.442597 
L 151.742597 251.17362 
L 151.258484 251.902598 
L 151.050973 252.629538 
L 151.066088 253.457839 
L 151.316384 254.386514 
L 151.852837 255.51703 
L 152.840376 257.050649 
L 154.57017 259.283377 
L 157.844562 263.093929 
L 167.867375 274.27921 
L 340.774953 466.291177 
L 354.826244 481.577572 
L 363.050133 490.215225 
L 368.908808 496.061835 
L 373.459833 500.302357 
L 377.173081 503.469386 
L 380.300228 505.853894 
L 382.993167 507.636398 
L 385.355959 508.941495 
L 387.465034 509.85891 
L 389.383851 510.456165 
L 391.212008 510.793684 
L 393.324614 510.943153 
L 398.244298 510.99224 
L 438.169204 510.97289 
L 459.883305 510.878127 
L 467.789027 510.761563 
L 475.600442 510.520616 
L 483.204917 510.047695 
L 490.543895 509.192298 
L 497.58404 507.805078 
L 504.303317 505.816746 
L 510.687105 503.278988 
L 516.728089 500.32178 
L 522.425743 497.082271 
L 527.784689 493.666152 
L 532.812846 490.143222 
L 537.519983 486.556327 
L 541.916777 482.931026 
L 546.014248 479.282502 
L 549.823438 475.619851 
L 553.355225 471.948605 
L 556.620229 468.272191 
L 559.628757 464.592776 
L 562.390777 460.911757 
L 564.91591 457.230053 
L 567.213427 453.54828 
L 569.292256 449.866861 
L 571.160987 446.186089 
L 572.827883 442.506173 
L 574.30089 438.827263 
L 575.587647 435.14947 
L 576.695496 431.472876 
L 577.631496 427.797544 
L 578.402428 424.123523 
L 579.014812 420.450852 
L 579.474912 416.779563 
L 579.788747 413.109682 
L 579.962102 409.441231 
L 580.000536 405.774233 
L 579.90939 402.108704 
L 579.693795 398.444665 
L 579.358685 394.782133 
L 578.348687 387.461669 
L 576.915132 380.147487 
L 575.091019 372.839809 
L 572.90683 365.538936 
L 570.390724 358.245295 
L 567.568732 350.959505 
L 564.464932 343.682485 
L 561.101627 336.415621 
L 557.499516 329.161034 
L 553.677886 321.922 
L 549.654809 314.703632 
L 545.447394 307.513977 
L 541.07211 300.365756 
L 536.54522 293.279107 
L 531.883419 286.285753 
L 527.104746 279.434984 
L 522.229872 272.801242 
L 517.283783 266.491417 
L 512.297613 260.646449 
L 509.801257 257.948835 
L 507.30993 255.428076 
L 504.829522 253.101815 
L 502.36615 250.983635 
L 499.925966 249.081643 
L 497.514929 247.397605 
L 495.138567 245.926862 
L 492.801763 244.659014 
L 490.50858 243.579197 
L 488.262141 242.669651 
L 483.916989 241.284889 
L 479.771431 240.356842 
L 475.815897 239.759848 
L 472.027919 239.397836 
L 466.582187 239.149828 
L 461.265501 239.127652 
L 451.90625 239.372443 
L 435.295255 239.905611 
L 418.055142 240.219997 
L 283.908381 242.059414 
L 244.965905 242.921484 
L 216.897787 243.780801 
L 198.895588 244.53045 
L 185.452683 245.278003 
L 175.455165 246.023466 
L 168.061158 246.766845 
L 162.634392 247.508145 
L 158.693981 248.247373 
L 155.876484 248.984533 
L 153.907217 249.719633 
L 152.578582 250.452676 
L 151.733678 251.183671 
L 151.253927 251.912621 
L 151.049706 252.639533 
L 151.067603 253.467801 
L 151.320119 254.396441 
L 151.91666 255.629437 
L 152.994191 257.264253 
L 154.828471 259.596047 
L 158.468482 263.799142 
L 171.01647 277.778947 
L 343.037174 468.775946 
L 355.983525 482.813395 
L 363.832838 491.01513 
L 369.502789 496.633108 
L 373.939594 500.728539 
L 377.573283 503.790681 
L 380.639942 506.093932 
L 383.289443 507.814409 
L 385.618815 509.069448 
L 387.701696 509.945451 
L 389.603345 510.508782 
L 391.4331 510.819541 
L 393.655525 510.952764 
L 399.519227 510.994201 
L 445.411953 510.957858 
L 460.644528 510.870289 
L 468.548374 510.745095 
L 476.343598 510.487265 
L 483.924467 509.98452 
L 491.235851 509.083718 
L 498.245903 507.639696 
L 504.933368 505.594363 
L 511.284319 503.009917 
L 517.292139 500.019876 
L 522.956881 496.759354 
L 528.283563 493.330411 
L 533.280334 489.799791 
L 537.957086 486.208289 
L 542.324549 482.580211 
L 546.393757 478.930002 
L 550.17574 475.266323 
L 553.681357 471.594455 
L 556.921198 467.917672 
L 559.905539 464.238051 
L 562.644315 460.556932 
L 565.147112 456.875198 
L 567.423168 453.193444 
L 569.481379 449.512076 
L 571.330303 445.831378 
L 572.978171 442.151554 
L 574.432899 438.472747 
L 575.702098 434.795066 
L 576.793081 431.118591 
L 577.71288 427.443383 
L 578.468252 423.769491 
L 579.06569 420.096952 
L 579.511435 416.425797 
L 579.811482 412.756053 
L 579.971595 409.087742 
L 579.997311 405.420884 
L 579.89395 401.755499 
L 579.666625 398.091604 
L 579.320249 394.429218 
L 578.289043 387.109052 
L 576.835931 379.795178 
L 574.993787 372.487821 
L 572.792974 365.187285 
L 570.261547 357.894006 
L 567.425437 350.608615 
L 564.308634 343.332048 
L 560.933358 336.06572 
L 557.320237 328.811796 
L 553.488493 321.573621 
L 549.456147 314.356423 
L 545.240269 307.168426 
L 540.857305 300.022637 
L 536.323524 292.939642 
L 531.655662 285.951859 
L 526.871851 279.109606 
L 521.992931 272.488741 
L 517.044139 266.197833 
L 512.056951 260.379294 
L 509.560832 257.697878 
L 507.070296 255.19515 
L 504.591261 252.888429 
L 502.129858 250.790829 
L 499.692229 248.909871 
L 497.284301 247.246692 
L 494.911551 245.796039 
L 492.578789 244.547019 
L 490.289991 243.484419 
L 488.048186 242.590283 
L 483.712659 241.230809 
L 479.576588 240.321366 
L 475.629741 239.737665 
L 471.849066 239.385036 
L 466.41047 239.146204 
L 461.094262 239.12958 
L 451.708064 239.379433 
L 434.894358 239.915394 
L 417.305962 240.23034 
L 289.158761 241.961867 
L 248.75473 242.82425 
L 219.625356 243.683876 
L 200.935983 244.433797 
L 186.973783 245.18162 
L 176.583847 245.927353 
L 168.893317 246.671 
L 163.242501 247.412569 
L 159.132815 248.152063 
L 156.187441 248.88949 
L 154.121585 249.624855 
L 152.720007 250.358164 
L 151.820032 251.089423 
L 151.298715 251.818637 
L 151.063138 252.545812 
L 151.054529 253.374379 
L 151.285883 254.303354 
L 151.806884 255.434236 
L 152.781985 256.96835 
L 154.503258 259.201798 
L 157.773678 263.013582 
L 167.541565 273.917081 
L 340.227392 465.6889 
L 354.555414 481.287625 
L 362.873687 490.034236 
L 368.778811 495.936188 
L 373.357169 500.210573 
L 377.086843 503.399586 
L 380.227283 505.801824 
L 382.930926 507.598512 
L 385.301883 508.914718 
L 387.415839 509.840485 
L 389.339155 510.445045 
L 391.16707 510.78806 
L 393.258251 510.940946 
L 397.972611 510.99165 
L 433.618575 510.978972 
L 461.406471 510.861863 
L 469.306641 510.727431 
L 477.084726 510.451676 
L 484.641497 509.917646 
L 491.925 508.970019 
L 498.904765 507.468625 
L 505.560288 505.366916 
L 511.87834 502.737083 
L 517.852999 499.715489 
L 523.484877 496.4349 
L 528.77937 492.993745 
L 533.744849 489.455807 
L 538.391317 485.859919 
L 542.729552 482.229195 
L 546.770598 478.577378 
L 550.525476 474.912721 
L 554.005021 471.24026 
L 557.219795 467.563128 
L 560.180041 463.883313 
L 562.895661 460.202101 
L 565.376208 456.520343 
L 567.630886 452.838611 
L 569.668559 449.157297 
L 571.497751 445.476676 
L 573.126665 441.796943 
L 574.563185 438.118241 
L 575.814893 434.440673 
L 576.889076 430.764318 
L 577.792738 427.089235 
L 578.532609 423.415472 
L 579.115159 419.743065 
L 579.546604 416.072045 
L 579.832918 412.402438 
L 579.97984 408.734266 
L 579.992887 405.06755 
L 579.877359 401.402307 
L 579.638349 397.738557 
L 579.280751 394.076317 
L 578.22842 386.75645 
L 576.755827 379.442885 
L 574.895721 372.135848 
L 572.678351 364.835651 
L 570.131663 357.542736 
L 567.281491 350.257745 
L 564.151736 342.981634 
L 560.764537 335.715847 
L 557.14045 328.462593 
L 553.298635 321.225291 
L 549.257059 314.009282 
L 545.032755 306.822973 
L 540.642149 299.679662 
L 536.101516 292.600395 
L 531.427635 285.618298 
L 526.638735 278.784736 
L 521.755826 272.176998 
L 516.804405 265.905343 
L 511.816289 260.113615 
L 509.320459 257.448584 
L 506.830769 254.964047 
L 504.353165 252.67699 
L 501.893787 250.600041 
L 499.458768 248.740127 
L 497.054001 247.097758 
L 494.684908 245.667092 
L 492.356225 244.436758 
L 490.071839 243.391207 
L 487.834686 242.512303 
L 483.508795 241.17777 
L 479.382187 240.286641 
L 475.443972 239.716013 
L 471.67052 239.372611 
L 466.238886 239.142805 
L 459.134331 239.160737 
L 447.057678 239.54642 
L 434.485794 239.925203 
L 416.544385 240.240691 
L 294.605565 241.864286 
L 252.686195 242.726979 
L 222.456495 243.586917 
L 200.714675 244.444108 
L 186.808762 245.191902 
L 176.461361 245.937606 
L 168.802972 246.681225 
L 163.17644 247.422764 
L 159.085103 248.162231 
L 156.15359 248.899629 
L 154.098204 249.634966 
L 152.704532 250.368247 
L 151.810527 251.099477 
L 151.293716 251.828663 
L 151.061538 252.55581 
L 151.055802 253.384345 
L 151.28945 254.313284 
L 151.812323 255.444122 
L 152.788931 256.978177 
L 154.511237 259.21154 
L 157.78214 263.023176 
L 167.549818 273.926255 
L 340.245802 465.709155 
L 354.567938 481.301039 
L 362.883015 490.04381 
L 368.786028 495.943169 
L 373.362867 500.215673 
L 377.091399 503.403279 
L 380.230959 505.804453 
L 382.933925 507.600341 
L 385.304378 508.915956 
L 387.418016 509.841303 
L 389.341301 510.445582 
L 391.167326 510.788093 
L 393.258963 510.940971 
L 397.979193 510.991665 
L 434.125079 510.978382 
L 462.16891 510.852806 
L 470.063708 510.708491 
L 477.823763 510.413723 
L 485.355973 509.846922 
L 492.611321 508.851098 
L 499.56061 507.291876 
L 506.184068 505.134513 
L 512.469167 502.460617 
L 518.41067 499.408725 
L 524.009737 496.108982 
L 529.272121 492.656199 
L 534.2064 489.111296 
L 538.822683 485.511232 
L 543.131793 481.877988 
L 547.14478 478.224638 
L 550.872654 474.559047 
L 554.326225 470.886022 
L 557.516027 467.208559 
L 560.45227 463.528562 
L 563.144823 459.847266 
L 565.603206 456.165489 
L 567.836589 452.483782 
L 569.853802 448.802524 
L 571.663339 445.121982 
L 573.273372 441.442343 
L 574.691754 437.763746 
L 575.92604 434.086292 
L 576.983488 430.410057 
L 577.871074 426.735099 
L 578.595505 423.061465 
L 579.163225 419.389191 
L 579.580426 415.718306 
L 579.853058 412.048837 
L 579.986841 408.380804 
L 579.987268 404.714229 
L 579.85962 401.049129 
L 579.608971 397.385524 
L 579.240195 393.723431 
L 578.166821 386.403863 
L 576.674824 379.090606 
L 574.796827 371.783891 
L 572.562963 364.484034 
L 570.001074 357.191484 
L 567.136896 349.906896 
L 563.99424 342.631244 
L 560.595166 335.366003 
L 556.960158 328.113428 
L 553.108312 320.87701 
L 549.057547 313.662208 
L 544.824855 306.477617 
L 540.426645 299.336833 
L 535.879199 292.26137 
L 531.19934 285.285077 
L 526.4054 278.460384 
L 521.51856 271.86603 
L 516.564584 265.613962 
L 511.575631 259.84943 
L 509.080143 257.200968 
L 506.591354 254.734782 
L 504.115238 252.467508 
L 501.657943 250.411274 
L 499.225588 248.572408 
L 496.824033 246.950794 
L 494.458641 245.54001 
L 492.134072 244.328215 
L 489.854127 243.299543 
L 487.621645 242.435691 
L 483.305396 241.125756 
L 479.188226 240.252655 
L 475.258588 239.694883 
L 471.492278 239.360553 
L 466.067428 239.139626 
L 458.960659 239.164235 
L 446.824183 239.554716 
L 434.069313 239.935038 
L 415.770686 240.251051 
L 294.015036 241.874695 
L 252.259913 242.737356 
L 222.149478 243.597261 
L 200.494254 244.454418 
L 186.644411 245.202184 
L 176.339381 245.947859 
L 168.713009 246.691449 
L 163.110669 247.43296 
L 159.037609 248.172398 
L 156.119904 248.909768 
L 154.074947 249.645076 
L 152.689151 250.378328 
L 151.801093 251.109531 
L 151.28877 251.838688 
L 151.059978 252.565807 
L 151.057105 253.394311 
L 151.293038 254.323214 
L 151.817775 255.454008 
L 152.795884 256.988004 
L 154.519219 259.221281 
L 157.790603 263.03277 
L 167.558072 273.935429 
L 340.264205 465.729402 
L 354.580457 481.314447 
L 362.883835 490.044652 
L 368.786663 495.943783 
L 373.363368 500.216121 
L 377.0918 503.403603 
L 380.231283 505.804684 
L 382.934188 507.600502 
L 385.304598 508.916065 
L 387.418207 509.841375 
L 389.34149 510.445629 
L 391.167582 510.788125 
L 393.259676 510.940995 
L 397.98579 510.99168 
L 434.641546 510.977761 
L 462.931638 510.843071 
L 470.819459 510.688192 
L 478.560652 510.373276 
L 486.067864 509.7722 
L 493.294793 508.726859 
L 500.213422 507.109472 
L 506.804698 504.89727 
L 513.056797 502.180652 
L 518.965158 499.099689 
L 524.531467 495.781669 
L 529.761822 492.317815 
L 534.664996 488.766284 
L 539.251197 485.162244 
L 543.531284 481.526597 
L 547.516315 477.871786 
L 551.217284 474.205306 
L 554.644979 470.531744 
L 557.809904 466.853967 
L 560.722236 463.173799 
L 563.391811 459.492427 
L 565.828114 455.810636 
L 568.040284 452.128957 
L 570.037116 448.447759 
L 571.827075 444.767296 
L 573.418299 441.087752 
L 574.818614 437.409261 
L 576.035544 433.731922 
L 577.076321 430.055808 
L 577.947895 426.380976 
L 578.656946 422.707471 
L 579.209893 419.03533 
L 579.612905 415.36458 
L 579.87191 411.695248 
L 579.992604 408.027355 
L 579.98046 404.360921 
L 579.84074 400.695965 
L 579.578496 397.032505 
L 579.198586 393.370559 
L 578.104251 386.051291 
L 576.592925 378.738343 
L 574.697107 371.431951 
L 572.446814 364.132434 
L 569.869784 356.84025 
L 566.991654 349.556067 
L 563.836149 342.280879 
L 560.425247 335.016188 
L 556.779363 327.764299 
L 552.917529 320.528778 
L 548.857612 313.315204 
L 544.616571 306.132362 
L 540.210795 298.994153 
L 535.656574 291.922571 
L 530.97078 284.952203 
L 526.171848 278.13656 
L 521.281137 271.555849 
L 516.32468 265.32371 
L 511.334983 259.586758 
L 508.839888 256.955047 
L 506.352057 254.507368 
L 503.877486 252.25999 
L 501.42233 250.22453 
L 498.992695 248.406713 
L 496.594402 246.805793 
L 494.232754 245.414779 
L 491.912335 244.221375 
L 489.636857 243.209412 
L 487.409061 242.360431 
L 483.102463 241.074751 
L 478.994703 240.219395 
L 475.073586 239.674268 
L 471.314334 239.348859 
L 465.896091 239.136663 
L 458.786708 239.167847 
L 446.588523 239.56306 
L 433.644658 239.944898 
L 414.985179 240.261418 
L 299.643407 241.777082 
L 256.323239 242.640055 
L 225.076361 243.50027 
L 202.595984 244.357737 
L 188.21186 245.105773 
L 177.503088 245.851718 
L 169.571632 246.595577 
L 163.738774 247.337356 
L 159.49155 248.077061 
L 156.442273 248.814698 
L 154.297934 249.550272 
L 152.837084 250.283789 
L 151.892359 251.015256 
L 151.337266 251.744677 
L 151.076206 252.472059 
L 151.046055 253.300862 
L 151.260207 254.230101 
L 151.767171 255.361304 
L 152.730971 256.895855 
L 154.362078 259.028815 
L 157.448152 262.643893 
L 166.105792 272.321075 
L 335.861354 460.877018 
L 352.567618 479.151803 
L 361.566785 488.68655 
L 367.804039 494.987291 
L 372.583408 499.512434 
L 376.44761 502.876155 
L 379.681058 505.406135 
L 379.778375 505.477368 
L 379.778375 505.477368 
" style="fill:none;stroke:#000000;stroke-linecap:square;stroke-width:1.5;"/>
   </g>
   <g id="patch_3">
    <path d="M 127.584 528.12 
L 127.584 191.88 
" style="fill:none;stroke:#000000;stroke-linecap:square;stroke-linejoin:miter;stroke-width:0.8;"/>
   </g>
   <g id="patch_4">
    <path d="M 592.416 528.12 
L 592.416 191.88 
" style="fill:none;stroke:#000000;stroke-linecap:square;stroke-linejoin:miter;stroke-width:0.8;"/>
   </g>
   <g id="patch_5">
    <path d="M 127.584 528.12 
L 592.416 528.12 
" style="fill:none;stroke:#000000;stroke-linecap:square;stroke-linejoin:miter;stroke-width:0.8;"/>
   </g>
   <g id="patch_6">
    <path d="M 127.584 191.88 
L 592.416 191.88 
" style="fill:none;stroke:#000000;stroke-linecap:square;stroke-linejoin:miter;stroke-width:0.8;"/>
   </g>
  </g>
 </g>
 <defs>
  <clipPath id="pbaf7dcc4ec">
   <rect height="336.24" width="464.832" x="127.584" y="191.88"/>
  </clipPath>
 </defs>
</svg>
